<?xml version="1.0" encoding="UTF-8"?>
<!-- Generator: visioncortex VTracer 0.6.4 -->
<svg version="1.1" xmlns="http://www.w3.org/2000/svg" width="493" height="409">
<path d="M0 0 C162.69 0 325.38 0 493 0 C493 134.97 493 269.94 493 409 C330.31 409 167.62 409 0 409 C0 274.03 0 139.06 0 0 Z " fill="#FEFEFE" transform="translate(0,0)"/>
<path d="M0 0 C27.72 0 55.44 0 84 0 C84 7.26 84 14.52 84 22 C91.59 22 99.18 22 107 22 C107 29.59 107 37.18 107 45 C114.59 45 122.18 45 130 45 C130 80.31 130 115.62 130 152 C137.59 152 145.18 152 153 152 C153 159.59 153 167.18 153 175 C160.59 175 168.18 175 176 175 C176 190.18 176 205.36 176 221 C160.82 221 145.64 221 130 221 C130 213.41 130 205.82 130 198 C122.41 198 114.82 198 107 198 C107 190.74 107 183.48 107 176 C71.69 176 36.38 176 0 176 C0 168.08 0 160.16 0 152 C-7.59 152 -15.18 152 -23 152 C-23 144.74 -23 137.48 -23 130 C-30.59 130 -38.18 130 -46 130 C-46 101.95 -46 73.9 -46 45 C-38.41 45 -30.82 45 -23 45 C-23 37.41 -23 29.82 -23 22 C-15.41 22 -7.82 22 0 22 C0 14.74 0 7.48 0 0 Z " fill="#030303" transform="translate(217,121)"/>
<path d="M0 0 C27.72 0 55.44 0 84 0 C84 27.39 84 54.78 84 83 C56.28 83 28.56 83 0 83 C0 55.61 0 28.22 0 0 Z " fill="#FEFEFE" transform="translate(217,167)"/>
<path d="M0 0 C7.59 0 15.18 0 23 0 C23 80.85 23 161.7 23 245 C15.41 245 7.82 245 0 245 C0 164.15 0 83.3 0 0 Z " fill="#020202" transform="translate(41,52)"/>
<path d="M0 0 C7.59 0 15.18 0 23 0 C23 65.67 23 131.34 23 199 C15.41 199 7.82 199 0 199 C0 133.33 0 67.66 0 0 Z " fill="#020202" transform="translate(370,52)"/>
<path d="M0 0 C7.26 0 14.52 0 22 0 C22 65.34 22 130.68 22 198 C14.74 198 7.48 198 0 198 C0 132.66 0 67.32 0 0 Z " fill="#000000" transform="translate(95,52)"/>
<path d="M0 0 C7.59 0 15.18 0 23 0 C23 30.03 23 60.06 23 91 C15.41 91 7.82 91 0 91 C0 60.97 0 30.94 0 0 Z " fill="#010101" transform="translate(148,52)"/>
<path d="M0 0 C7.59 0 15.18 0 23 0 C23 15.51 23 31.02 23 47 C15.41 47 7.82 47 0 47 C0 31.49 0 15.98 0 0 Z " fill="#0A0A0A" transform="translate(209,51)"/>
<path d="M0 0 C7.59 0 15.18 0 23 0 C23 15.18 23 30.36 23 46 C15.41 46 7.82 46 0 46 C0 30.82 0 15.64 0 0 Z " fill="#040404" transform="translate(263,52)"/>
<path d="M0 0 C7.26 0 14.52 0 22 0 C22 14.85 22 29.7 22 45 C14.74 45 7.48 45 0 45 C0 30.15 0 15.3 0 0 Z " fill="#000000" transform="translate(317,52)"/>
<path d="M0 0 C7.59 0 15.18 0 23 0 C23 7.92 23 15.84 23 24 C15.41 24 7.82 24 0 24 C0 16.08 0 8.16 0 0 Z " fill="#0B0B0B" transform="translate(148,273)"/>
<path d="M0 0 C7.26 0 14.52 0 22 0 C22 7.26 22 14.52 22 22 C14.74 22 7.48 22 0 22 C0 14.74 0 7.48 0 0 Z " fill="#000000" transform="translate(95,274)"/>
</svg>
