<?xml version="1.0" encoding="UTF-8"?>
<!-- Generator: visioncortex VTracer 0.6.4 -->
<svg version="1.1" xmlns="http://www.w3.org/2000/svg" width="460" height="369">
<path d="M0 0 C151.8 0 303.6 0 460 0 C460 121.77 460 243.54 460 369 C308.2 369 156.4 369 0 369 C0 247.23 0 125.46 0 0 Z " fill="#FDFDFD" transform="translate(0,0)"/>
<path d="M0 0 C27.72 0 55.44 0 84 0 C84 7.26 84 14.52 84 22 C91.59 22 99.18 22 107 22 C107 29.59 107 37.18 107 45 C114.59 45 122.18 45 130 45 C130 80.31 130 115.62 130 152 C137.59 152 145.18 152 153 152 C153 159.59 153 167.18 153 175 C160.59 175 168.18 175 176 175 C176 190.18 176 205.36 176 221 C160.82 221 145.64 221 130 221 C130 213.74 130 206.48 130 199 C137.59 199 145.18 199 153 199 C153 191.41 153 183.82 153 176 C145.41 176 137.82 176 130 176 C130 183.26 130 190.52 130 198 C122.41 198 114.82 198 107 198 C107 190.74 107 183.48 107 176 C71.69 176 36.38 176 0 176 C0 168.41 0 160.82 0 153 C-7.59 153 -15.18 153 -23 153 C-23 145.41 -23 137.82 -23 130 C-30.59 130 -38.18 130 -46 130 C-46 101.95 -46 73.9 -46 45 C-38.41 45 -30.82 45 -23 45 C-23 37.41 -23 29.82 -23 22 C-15.41 22 -7.82 22 0 22 C0 14.74 0 7.48 0 0 Z " fill="#828282" transform="translate(207,108)"/>
<path d="M0 0 C7.59 0 15.18 0 23 0 C23 35.31 23 70.62 23 107 C30.59 107 38.18 107 46 107 C46 114.59 46 122.18 46 130 C53.59 130 61.18 130 69 130 C69 145.18 69 160.36 69 176 C53.82 176 38.64 176 23 176 C23 168.74 23 161.48 23 154 C30.59 154 38.18 154 46 154 C46 146.41 46 138.82 46 131 C38.41 131 30.82 131 23 131 C23 138.26 23 145.52 23 153 C15.41 153 7.82 153 0 153 C0 145.74 0 138.48 0 131 C-35.31 131 -70.62 131 -107 131 C-107 123.41 -107 115.82 -107 108 C-114.59 108 -122.18 108 -130 108 C-130 107.67 -130 107.34 -130 107 C-87.1 107 -44.2 107 0 107 C0 71.69 0 36.38 0 0 Z " fill="#353535" transform="translate(314,153)"/>
<path d="M0 0 C27.72 0 55.44 0 84 0 C84 27.39 84 54.78 84 83 C56.28 83 28.56 83 0 83 C0 55.61 0 28.22 0 0 Z " fill="#000000" transform="translate(207,154)"/>
<path d="M0 0 C7.59 0 15.18 0 23 0 C23 80.85 23 161.7 23 245 C15.41 245 7.82 245 0 245 C0 164.15 0 83.3 0 0 Z " fill="#020202" transform="translate(31,39)"/>
<path d="M0 0 C7.59 0 15.18 0 23 0 C23 65.67 23 131.34 23 199 C15.41 199 7.82 199 0 199 C0 133.33 0 67.66 0 0 Z " fill="#020202" transform="translate(360,39)"/>
<path d="M0 0 C7.26 0 14.52 0 22 0 C22 65.34 22 130.68 22 198 C14.74 198 7.48 198 0 198 C0 132.66 0 67.32 0 0 Z " fill="#000000" transform="translate(85,39)"/>
<path d="M0 0 C7.26 0 14.52 0 22 0 C22 34.98 22 69.96 22 106 C-13.31 106 -48.62 106 -85 106 C-85 98.74 -85 91.48 -85 84 C-56.95 84 -28.9 84 0 84 C0 56.28 0 28.56 0 0 Z " fill="#FEFEFE" transform="translate(292,154)"/>
<path d="M0 0 C7.59 0 15.18 0 23 0 C23 35.31 23 70.62 23 107 C15.41 107 7.82 107 0 107 C0 71.69 0 36.38 0 0 Z " fill="#020202" transform="translate(314,153)"/>
<path d="M0 0 C35.31 0 70.62 0 107 0 C107 7.26 107 14.52 107 22 C71.69 22 36.38 22 0 22 C0 14.74 0 7.48 0 0 Z " fill="#000000" transform="translate(207,261)"/>
<path d="M0 0 C7.59 0 15.18 0 23 0 C23 30.03 23 60.06 23 91 C15.41 91 7.82 91 0 91 C0 60.97 0 30.94 0 0 Z " fill="#010101" transform="translate(138,39)"/>
<path d="M0 0 C7.59 0 15.18 0 23 0 C23 27.72 23 55.44 23 84 C15.41 84 7.82 84 0 84 C0 56.28 0 28.56 0 0 Z " fill="#040404" transform="translate(161,154)"/>
<path d="M0 0 C7.59 0 15.18 0 23 0 C23 27.39 23 54.78 23 83 C15.41 83 7.82 83 0 83 C0 55.61 0 28.22 0 0 Z " fill="#FDFDFD" transform="translate(184,154)"/>
<path d="M0 0 C27.72 0 55.44 0 84 0 C84 7.26 84 14.52 84 22 C56.28 22 28.56 22 0 22 C0 14.74 0 7.48 0 0 Z " fill="#FEFEFE" transform="translate(207,131)"/>
<path d="M0 0 C27.72 0 55.44 0 84 0 C84 7.26 84 14.52 84 22 C56.28 22 28.56 22 0 22 C0 14.74 0 7.48 0 0 Z " fill="#000000" transform="translate(207,108)"/>
<path d="M0 0 C7.59 0 15.18 0 23 0 C23 14.85 23 29.7 23 45 C7.82 45 -7.36 45 -23 45 C-23 37.74 -23 30.48 -23 23 C-15.41 23 -7.82 23 0 23 C0 15.41 0 7.82 0 0 Z " fill="#010101" transform="translate(360,284)"/>
<path d="M0 0 C7.59 0 15.18 0 23 0 C23 15.51 23 31.02 23 47 C15.41 47 7.82 47 0 47 C0 31.49 0 15.98 0 0 Z " fill="#0A0A0A" transform="translate(199,38)"/>
<path d="M0 0 C7.59 0 15.18 0 23 0 C23 15.18 23 30.36 23 46 C15.41 46 7.82 46 0 46 C0 30.82 0 15.64 0 0 Z " fill="#040404" transform="translate(253,39)"/>
<path d="M0 0 C7.26 0 14.52 0 22 0 C22 14.85 22 29.7 22 45 C14.74 45 7.48 45 0 45 C0 30.15 0 15.3 0 0 Z " fill="#000000" transform="translate(307,39)"/>
<path d="M0 0 C7.59 0 15.18 0 23 0 C23 7.59 23 15.18 23 23 C7.82 23 -7.36 23 -23 23 C-23 22.67 -23 22.34 -23 22 C-15.41 22 -7.82 22 0 22 C0 14.74 0 7.48 0 0 Z " fill="#F1F1F1" transform="translate(337,284)"/>
<path d="M0 0 C7.59 0 15.18 0 23 0 C23 7.92 23 15.84 23 24 C15.41 24 7.82 24 0 24 C0 16.08 0 8.16 0 0 Z " fill="#0B0B0B" transform="translate(138,260)"/>
<path d="M0 0 C7.59 0 15.18 0 23 0 C23 7.26 23 14.52 23 22 C15.41 22 7.82 22 0 22 C0 14.74 0 7.48 0 0 Z " fill="#010101" transform="translate(314,284)"/>
<path d="M0 0 C7.59 0 15.18 0 23 0 C23 7.26 23 14.52 23 22 C15.41 22 7.82 22 0 22 C0 14.74 0 7.48 0 0 Z " fill="#FDFDFD" transform="translate(314,261)"/>
<path d="M0 0 C7.59 0 15.18 0 23 0 C23 7.26 23 14.52 23 22 C15.41 22 7.82 22 0 22 C0 14.74 0 7.48 0 0 Z " fill="#010101" transform="translate(184,238)"/>
<path d="M0 0 C7.59 0 15.18 0 23 0 C23 7.26 23 14.52 23 22 C15.41 22 7.82 22 0 22 C0 14.74 0 7.48 0 0 Z " fill="#010101" transform="translate(184,131)"/>
<path d="M0 0 C7.26 0 14.52 0 22 0 C22 7.26 22 14.52 22 22 C14.74 22 7.48 22 0 22 C0 14.74 0 7.48 0 0 Z " fill="#000000" transform="translate(85,261)"/>
<path d="M0 0 C7.26 0 14.52 0 22 0 C22 7.26 22 14.52 22 22 C14.74 22 7.48 22 0 22 C0 14.74 0 7.48 0 0 Z " fill="#010101" transform="translate(292,131)"/>
</svg>
