<?xml version="1.0" encoding="UTF-8"?>
<!-- Generator: visioncortex VTracer 0.6.4 -->
<svg version="1.1" xmlns="http://www.w3.org/2000/svg" width="491" height="372">
<path d="M0 0 C162.03 0 324.06 0 491 0 C491 122.76 491 245.52 491 372 C328.97 372 166.94 372 0 372 C0 249.24 0 126.48 0 0 Z " fill="#FDFDFD" transform="translate(0,0)"/>
<path d="M0 0 C162.03 0 324.06 0 491 0 C491 122.76 491 245.52 491 372 C328.97 372 166.94 372 0 372 C0 249.24 0 126.48 0 0 Z M161 38 C161 45.26 161 52.52 161 60 C150.063 59.938 150.063 59.938 146.61 59.91 C145.719 59.907 144.828 59.905 143.91 59.902 C142.994 59.897 142.077 59.892 141.133 59.886 C139.016 59.761 139.016 59.761 138 61 C138 68.59 138 76.18 138 84 C112.92 84 87.84 84 62 84 C62 91.26 62 98.52 62 106 C54.41 106 46.82 106 39 106 C39 181.9 39 257.8 39 336 C155.16 336 271.32 336 391 336 C391 260.1 391 184.2 391 106 C383.41 106 375.82 106 368 106 C368 98.74 368 91.48 368 84 C342.92 84 317.84 84 292 84 C292 76.41 292 68.82 292 61 C290.984 59.761 290.984 59.761 288.867 59.886 C287.492 59.894 287.492 59.894 286.09 59.902 C285.199 59.905 284.308 59.907 283.39 59.91 C281.681 59.924 281.681 59.924 279.938 59.938 C274.523 59.968 274.523 59.968 269 60 C269 52.74 269 45.48 269 38 C233.36 38 197.72 38 161 38 Z " fill="#FEFEFE" transform="translate(0,0)"/>
<path d="M0 0 C35.64 0 71.28 0 108 0 C108 7.26 108 14.52 108 22 C115.195 21.96 115.195 21.96 122.39 21.91 C123.281 21.907 124.172 21.905 125.09 21.902 C126.465 21.894 126.465 21.894 127.867 21.886 C130 22 130 22 131 23 C131 30.59 131 38.18 131 46 C156.08 46 181.16 46 207 46 C207 53.26 207 60.52 207 68 C214.59 68 222.18 68 230 68 C230 143.9 230 219.8 230 298 C113.84 298 -2.32 298 -122 298 C-122 222.1 -122 146.2 -122 68 C-114.41 68 -106.82 68 -99 68 C-99 60.74 -99 53.48 -99 46 C-73.92 46 -48.84 46 -23 46 C-23 38.41 -23 30.82 -23 23 C-22 22 -22 22 -19.867 21.886 C-18.951 21.892 -18.034 21.897 -17.09 21.902 C-16.199 21.905 -15.308 21.907 -14.39 21.91 C-13.251 21.919 -12.111 21.928 -10.938 21.938 C-5.523 21.968 -5.523 21.968 0 22 C0 14.74 0 7.48 0 0 Z M1 23 C1 30.59 1 38.18 1 46 C-6.59 46 -14.18 46 -22 46 C-22 53.59 -22 61.18 -22 69 C-47.41 69 -72.82 69 -99 69 C-99 136.98 -99 204.96 -99 275 C1.98 275 102.96 275 207 275 C207 207.02 207 139.04 207 69 C181.59 69 156.18 69 130 69 C130 61.41 130 53.82 130 46 C122.41 46 114.82 46 107 46 C107 38.41 107 30.82 107 23 C72.02 23 37.04 23 1 23 Z " fill="#010101" transform="translate(161,38)"/>
<path d="M0 0 C30.36 0 60.72 0 92 0 C92 7.26 92 14.52 92 22 C99.59 22 107.18 22 115 22 C115 52.36 115 82.72 115 114 C107.41 114 99.82 114 92 114 C92 121.59 92 129.18 92 137 C61.64 137 31.28 137 0 137 C0 129.41 0 121.82 0 114 C-7.59 114 -15.18 114 -23 114 C-23 83.64 -23 53.28 -23 22 C-15.41 22 -7.82 22 0 22 C0 14.74 0 7.48 0 0 Z " fill="#FEFEFE" transform="translate(169,138)"/>
<path d="M0 0 C35.64 0 71.28 0 108 0 C108 7.26 108 14.52 108 22 C115.195 21.96 115.195 21.96 122.39 21.91 C123.281 21.907 124.172 21.905 125.09 21.902 C126.465 21.894 126.465 21.894 127.867 21.886 C130 22 130 22 131 23 C131 30.59 131 38.18 131 46 C156.08 46 181.16 46 207 46 C207 53.26 207 60.52 207 68 C214.59 68 222.18 68 230 68 C230 68.33 230 68.66 230 69 C222.74 69 215.48 69 208 69 C208 136.98 208 204.96 208 275 C207.67 275 207.34 275 207 275 C207 207.02 207 139.04 207 69 C181.59 69 156.18 69 130 69 C130 61.41 130 53.82 130 46 C122.41 46 114.82 46 107 46 C107 38.41 107 30.82 107 23 C72.02 23 37.04 23 1 23 C1 30.59 1 38.18 1 46 C-6.59 46 -14.18 46 -22 46 C-22 53.59 -22 61.18 -22 69 C-47.41 69 -72.82 69 -99 69 C-99 136.98 -99 204.96 -99 275 C-99.33 275 -99.66 275 -100 275 C-100 207.02 -100 139.04 -100 69 C-107.26 69 -114.52 69 -122 69 C-122 68.67 -122 68.34 -122 68 C-114.41 68 -106.82 68 -99 68 C-99 60.74 -99 53.48 -99 46 C-73.92 46 -48.84 46 -23 46 C-23 38.41 -23 30.82 -23 23 C-22 22 -22 22 -19.867 21.886 C-18.951 21.892 -18.034 21.897 -17.09 21.902 C-16.199 21.905 -15.308 21.907 -14.39 21.91 C-13.251 21.919 -12.111 21.928 -10.938 21.938 C-5.523 21.968 -5.523 21.968 0 22 C0 14.74 0 7.48 0 0 Z " fill="#1D1D1D" transform="translate(161,38)"/>
<path d="M0 0 C34.98 0 69.96 0 106 0 C106 7.26 106 14.52 106 22 C71.02 22 36.04 22 0 22 C0 14.74 0 7.48 0 0 Z " fill="#000000" transform="translate(162,38)"/>
<path d="M0 0 C30.36 0 60.72 0 92 0 C92 7.59 92 15.18 92 23 C61.64 23 31.28 23 0 23 C0 15.41 0 7.82 0 0 Z " fill="#020202" transform="translate(169,275)"/>
<path d="M0 0 C7.59 0 15.18 0 23 0 C23 30.36 23 60.72 23 92 C15.41 92 7.82 92 0 92 C0 61.64 0 31.28 0 0 Z " fill="#040404" transform="translate(284,160)"/>
<path d="M0 0 C7.59 0 15.18 0 23 0 C23 30.36 23 60.72 23 92 C15.41 92 7.82 92 0 92 C0 61.64 0 31.28 0 0 Z " fill="#040404" transform="translate(123,160)"/>
<path d="M0 0 C30.36 0 60.72 0 92 0 C92 7.59 92 15.18 92 23 C61.64 23 31.28 23 0 23 C0 15.41 0 7.82 0 0 Z " fill="#030303" transform="translate(169,114)"/>
<path d="M0 0 C25.08 0 50.16 0 76 0 C76 7.26 76 14.52 76 22 C50.92 22 25.84 22 0 22 C0 14.74 0 7.48 0 0 Z " fill="#000000" transform="translate(292,84)"/>
<path d="M0 0 C25.08 0 50.16 0 76 0 C76 7.26 76 14.52 76 22 C50.92 22 25.84 22 0 22 C0 14.74 0 7.48 0 0 Z " fill="#000000" transform="translate(62,84)"/>
<path d="M0 0 C7.59 0 15.18 0 23 0 C23 14.85 23 29.7 23 45 C55.67 45 88.34 45 122 45 C122 45.33 122 45.66 122 46 C114.74 46 107.48 46 100 46 C100 113.98 100 181.96 100 252 C99.67 252 99.34 252 99 252 C99 184.02 99 116.04 99 46 C73.59 46 48.18 46 22 46 C22 38.41 22 30.82 22 23 C14.74 23 7.48 23 0 23 C0 15.41 0 7.82 0 0 Z " fill="#1D1D1D" transform="translate(269,61)"/>
<path d="M0 0 C7.59 0 15.18 0 23 0 C23 7.59 23 15.18 23 23 C15.41 23 7.82 23 0 23 C0 15.41 0 7.82 0 0 Z " fill="#030303" transform="translate(261,252)"/>
<path d="M0 0 C7.59 0 15.18 0 23 0 C23 7.59 23 15.18 23 23 C15.41 23 7.82 23 0 23 C0 15.41 0 7.82 0 0 Z " fill="#030303" transform="translate(146,252)"/>
<path d="M0 0 C7.59 0 15.18 0 23 0 C23 7.26 23 14.52 23 22 C15.41 22 7.82 22 0 22 C0 14.74 0 7.48 0 0 Z " fill="#010101" transform="translate(261,138)"/>
<path d="M0 0 C7.59 0 15.18 0 23 0 C23 7.26 23 14.52 23 22 C15.41 22 7.82 22 0 22 C0 14.74 0 7.48 0 0 Z " fill="#010101" transform="translate(146,138)"/>
<path d="M0 0 C0.33 0 0.66 0 1 0 C1 7.26 1 14.52 1 22 C35.98 22 70.96 22 107 22 C107 14.74 107 7.48 107 0 C107.33 0 107.66 0 108 0 C108 7.26 108 14.52 108 22 C115.26 22 122.52 22 130 22 C130 22.33 130 22.66 130 23 C122.74 23 115.48 23 108 23 C108 30.59 108 38.18 108 46 C107.67 46 107.34 46 107 46 C107 38.41 107 30.82 107 23 C72.02 23 37.04 23 1 23 C1 30.59 1 38.18 1 46 C0.67 46 0.34 46 0 46 C0 38.41 0 30.82 0 23 C-7.26 23 -14.52 23 -22 23 C-22 22.67 -22 22.34 -22 22 C-14.74 22 -7.48 22 0 22 C0 14.74 0 7.48 0 0 Z " fill="#747474" transform="translate(161,38)"/>
</svg>
