<?xml version="1.0" encoding="UTF-8"?>
<!-- Generator: visioncortex VTracer 0.6.4 -->
<svg version="1.1" xmlns="http://www.w3.org/2000/svg" width="466" height="397">
<path d="M0 0 C153.78 0 307.56 0 466 0 C466 131.01 466 262.02 466 397 C312.22 397 158.44 397 0 397 C0 265.99 0 134.98 0 0 Z " fill="#000000" transform="translate(0,0)"/>
<path d="M0 0 C153.78 0 307.56 0 466 0 C466 131.01 466 262.02 466 397 C312.22 397 158.44 397 0 397 C0 265.99 0 134.98 0 0 Z M175 53 C175 60.59 175 68.18 175 76 C167.41 76 159.82 76 152 76 C152 83.59 152 91.18 152 99 C126.59 99 101.18 99 75 99 C75 106.59 75 114.18 75 122 C67.41 122 59.82 122 52 122 C52 197.57 52 273.14 52 351 C168.16 351 284.32 351 404 351 C404 275.43 404 199.86 404 122 C396.41 122 388.82 122 381 122 C381 114.41 381 106.82 381 99 C355.59 99 330.18 99 304 99 C304 91.41 304 83.82 304 76 C296.41 76 288.82 76 281 76 C281 68.41 281 60.82 281 53 C246.02 53 211.04 53 175 53 Z " fill="#FEFEFE" transform="translate(0,0)"/>
<path d="M0 0 C30.36 0 60.72 0 92 0 C92 7.59 92 15.18 92 23 C99.59 23 107.18 23 115 23 C115 53.36 115 83.72 115 115 C107.41 115 99.82 115 92 115 C92 122.59 92 130.18 92 138 C61.64 138 31.28 138 0 138 C0 130.41 0 122.82 0 115 C-7.59 115 -15.18 115 -23 115 C-23 84.64 -23 54.28 -23 23 C-15.41 23 -7.82 23 0 23 C0 15.41 0 7.82 0 0 Z " fill="#FDFDFD" transform="translate(182,152)"/>
</svg>
