<?xml version="1.0" encoding="UTF-8"?>
<!-- Generator: visioncortex VTracer 0.6.4 -->
<svg version="1.1" xmlns="http://www.w3.org/2000/svg" width="451" height="402">
<path d="M0 0 C148.83 0 297.66 0 451 0 C451 132.66 451 265.32 451 402 C302.17 402 153.34 402 0 402 C0 269.34 0 136.68 0 0 Z " fill="#FEFEFE" transform="translate(0,0)"/>
<path d="M0 0 C6.93 0 13.86 0 21 0 C21 27.06 21 54.12 21 82 C123.3 82 225.6 82 331 82 C331 54.94 331 27.88 331 0 C337.93 0 344.86 0 352 0 C352 102.3 352 204.6 352 310 C345.07 310 338.14 310 331 310 C331 316.93 331 323.86 331 331 C228.7 331 126.4 331 21 331 C21 324.07 21 317.14 21 310 C14.07 310 7.14 310 0 310 C0 207.7 0 105.4 0 0 Z " fill="#010101" transform="translate(38,51)"/>
<path d="M0 0 C102.3 0 204.6 0 310 0 C310 33.99 310 67.98 310 103 C207.7 103 105.4 103 0 103 C0 69.01 0 35.02 0 0 Z " fill="#FEFEFE" transform="translate(59,30)"/>
<path d="M0 0 C102.3 0 204.6 0 310 0 C310 6.93 310 13.86 310 21 C207.7 21 105.4 21 0 21 C0 14.07 0 7.14 0 0 Z " fill="#030303" transform="translate(59,30)"/>
<path d="M0 0 C6.93 0 13.86 0 21 0 C21 13.53 21 27.06 21 41 C14.07 41 7.14 41 0 41 C0 27.47 0 13.94 0 0 Z " fill="#FAFAFA" transform="translate(183,258)"/>
<path d="M0 0 C6.93 0 13.86 0 21 0 C21 6.6 21 13.2 21 20 C14.4 20 7.8 20 1 20 C1 26.93 1 33.86 1 41 C-5.93 41 -12.86 41 -20 41 C-20 34.07 -20 27.14 -20 20 C-13.4 20 -6.8 20 0 20 C0 13.4 0 6.8 0 0 Z " fill="#EFEFEF" transform="translate(141,196)"/>
<path d="M0 0 C6.93 0 13.86 0 21 0 C21 13.53 21 27.06 21 41 C14.07 41 7.14 41 0 41 C0 27.47 0 13.94 0 0 Z " fill="#FBFBFB" transform="translate(224,175)"/>
<path d="M0 0 C6.6 0 13.2 0 20 0 C20 13.86 20 27.72 20 42 C13.4 42 6.8 42 0 42 C0 28.14 0 14.28 0 0 Z " fill="#FBFBFB" transform="translate(204,216)"/>
<path d="M0 0 C6.93 0 13.86 0 21 0 C21 6.93 21 13.86 21 21 C14.07 21 7.14 21 0 21 C0 14.07 0 7.14 0 0 Z " fill="#F4F4F4" transform="translate(307,237)"/>
<path d="M0 0 C6.93 0 13.86 0 21 0 C21 6.93 21 13.86 21 21 C14.07 21 7.14 21 0 21 C0 14.07 0 7.14 0 0 Z " fill="#F4F4F4" transform="translate(100,237)"/>
<path d="M0 0 C6.93 0 13.86 0 21 0 C21 6.93 21 13.86 21 21 C14.07 21 7.14 21 0 21 C0 14.07 0 7.14 0 0 Z " fill="#090909" transform="translate(162,71)"/>
<path d="M0 0 C6.93 0 13.86 0 21 0 C21 6.93 21 13.86 21 21 C14.07 21 7.14 21 0 21 C0 14.07 0 7.14 0 0 Z " fill="#0A0A0A" transform="translate(121,71)"/>
<path d="M0 0 C6.93 0 13.86 0 21 0 C21 6.93 21 13.86 21 21 C14.07 21 7.14 21 0 21 C0 14.07 0 7.14 0 0 Z " fill="#080808" transform="translate(79,71)"/>
<path d="M0 0 C6.6 0 13.2 0 20 0 C20 6.93 20 13.86 20 21 C13.4 21 6.8 21 0 21 C0 14.07 0 7.14 0 0 Z " fill="#FAFAFA" transform="translate(287,216)"/>
<path d="M0 0 C6.6 0 13.2 0 20 0 C20 6.6 20 13.2 20 20 C13.4 20 6.8 20 0 20 C0 13.4 0 6.8 0 0 Z " fill="#FDFDFD" transform="translate(266,279)"/>
<path d="M0 0 C6.6 0 13.2 0 20 0 C20 6.6 20 13.2 20 20 C13.4 20 6.8 20 0 20 C0 13.4 0 6.8 0 0 Z " fill="#FDFDFD" transform="translate(142,279)"/>
<path d="M0 0 C6.6 0 13.2 0 20 0 C20 6.6 20 13.2 20 20 C13.4 20 6.8 20 0 20 C0 13.4 0 6.8 0 0 Z " fill="#FDFDFD" transform="translate(287,258)"/>
<path d="M0 0 C6.6 0 13.2 0 20 0 C20 6.6 20 13.2 20 20 C13.4 20 6.8 20 0 20 C0 13.4 0 6.8 0 0 Z " fill="#FDFDFD" transform="translate(121,258)"/>
<path d="M0 0 C6.6 0 13.2 0 20 0 C20 6.6 20 13.2 20 20 C13.4 20 6.8 20 0 20 C0 13.4 0 6.8 0 0 Z " fill="#FEFEFE" transform="translate(121,217)"/>
<path d="M0 0 C6.6 0 13.2 0 20 0 C20 6.6 20 13.2 20 20 C13.4 20 6.8 20 0 20 C0 13.4 0 6.8 0 0 Z " fill="#FDFDFD" transform="translate(266,196)"/>
<path d="M0 0 C6.93 0 13.86 0 21 0 C21 0.33 21 0.66 21 1 C14.4 1 7.8 1 1 1 C1 7.6 1 14.2 1 21 C7.6 21 14.2 21 21 21 C21 21.33 21 21.66 21 22 C14.4 22 7.8 22 1 22 C1 28.6 1 35.2 1 42 C0.67 42 0.34 42 0 42 C0 35.4 0 28.8 0 22 C-6.6 22 -13.2 22 -20 22 C-20 28.6 -20 35.2 -20 42 C-20.33 42 -20.66 42 -21 42 C-21 35.07 -21 28.14 -21 21 C-14.07 21 -7.14 21 0 21 C0 14.07 0 7.14 0 0 Z " fill="#6C6C6C" transform="translate(286,257)"/>
<path d="M0 0 C6.93 0 13.86 0 21 0 C21 6.93 21 13.86 21 21 C27.93 21 34.86 21 42 21 C42 27.93 42 34.86 42 42 C41.67 42 41.34 42 41 42 C41 35.4 41 28.8 41 22 C34.4 22 27.8 22 21 22 C21 28.6 21 35.2 21 42 C20.67 42 20.34 42 20 42 C20 35.4 20 28.8 20 22 C13.4 22 6.8 22 0 22 C0 21.67 0 21.34 0 21 C6.6 21 13.2 21 20 21 C20 14.4 20 7.8 20 1 C13.4 1 6.8 1 0 1 C0 0.67 0 0.34 0 0 Z " fill="#6C6C6C" transform="translate(121,257)"/>
</svg>
