<?xml version="1.0" encoding="UTF-8"?>
<!-- Generator: visioncortex VTracer 0.6.4 -->
<svg version="1.1" xmlns="http://www.w3.org/2000/svg" width="425" height="426">
<path d="M0 0 C140.25 0 280.5 0 425 0 C425 140.58 425 281.16 425 426 C284.75 426 144.5 426 0 426 C0 285.42 0 144.84 0 0 Z " fill="#FEFEFE" transform="translate(0,0)"/>
<path d="M0 0 C47.85 0 95.7 0 145 0 C145 27.06 145 54.12 145 82 C151.6 82 158.2 82 165 82 C165 54.94 165 27.88 165 0 C171.93 0 178.86 0 186 0 C186 6.93 186 13.86 186 21 C192.93 21 199.86 21 207 21 C207 27.6 207 34.2 207 41 C213.93 41 220.86 41 228 41 C228 47.93 228 54.86 228 62 C234.93 62 241.86 62 249 62 C249 68.93 249 75.86 249 83 C221.61 83 194.22 83 166 83 C166 89.6 166 96.2 166 103 C193.39 103 220.78 103 249 103 C249 178.24 249 253.48 249 331 C242.07 331 235.14 331 228 331 C228 337.93 228 344.86 228 352 C152.76 352 77.52 352 0 352 C0 345.07 0 338.14 0 331 C-6.93 331 -13.86 331 -21 331 C-21 228.7 -21 126.4 -21 21 C-14.07 21 -7.14 21 0 21 C0 14.07 0 7.14 0 0 Z " fill="#020202" transform="translate(85,33)"/>
<path d="M0 0 C75.24 0 150.48 0 228 0 C228 6.93 228 13.86 228 21 C152.76 21 77.52 21 0 21 C0 14.07 0 7.14 0 0 Z " fill="#030303" transform="translate(85,364)"/>
<path d="M0 0 C75.24 0 150.48 0 228 0 C228 6.6 228 13.2 228 20 C152.76 20 77.52 20 0 20 C0 13.4 0 6.8 0 0 Z " fill="#FEFEFE" transform="translate(85,344)"/>
<path d="M0 0 C6.6 0 13.2 0 20 0 C20 6.93 20 13.86 20 21 C26.93 21 33.86 21 41 21 C41 27.6 41 34.2 41 41 C47.93 41 54.86 41 62 41 C62 47.93 62 54.86 62 62 C68.93 62 75.86 62 83 62 C83 68.93 83 75.86 83 83 C55.61 83 28.22 83 0 83 C0 55.61 0 28.22 0 0 Z " fill="#030303" transform="translate(251,33)"/>
<path d="M0 0 C6.93 0 13.86 0 21 0 C21 6.93 21 13.86 21 21 C14.07 21 7.14 21 0 21 C0 14.07 0 7.14 0 0 Z " fill="#F7F7F7" transform="translate(168,219)"/>
<path d="M0 0 C6.93 0 13.86 0 21 0 C21 6.93 21 13.86 21 21 C14.07 21 7.14 21 0 21 C0 14.07 0 7.14 0 0 Z " fill="#F7F7F7" transform="translate(209,178)"/>
<path d="M0 0 C6.6 0 13.2 0 20 0 C20 6.93 20 13.86 20 21 C13.4 21 6.8 21 0 21 C0 14.07 0 7.14 0 0 Z " fill="#FAFAFA" transform="translate(251,219)"/>
<path d="M0 0 C6.6 0 13.2 0 20 0 C20 6.93 20 13.86 20 21 C13.4 21 6.8 21 0 21 C0 14.07 0 7.14 0 0 Z " fill="#FAFAFA" transform="translate(127,219)"/>
<path d="M0 0 C6.6 0 13.2 0 20 0 C20 6.93 20 13.86 20 21 C13.4 21 6.8 21 0 21 C0 14.07 0 7.14 0 0 Z " fill="#FAFAFA" transform="translate(127,178)"/>
<path d="M0 0 C6.6 0 13.2 0 20 0 C20 6.6 20 13.2 20 20 C13.4 20 6.8 20 0 20 C0 13.4 0 6.8 0 0 Z " fill="#FEFEFE" transform="translate(272,199)"/>
<path d="M0 0 C6.6 0 13.2 0 20 0 C20 6.6 20 13.2 20 20 C13.4 20 6.8 20 0 20 C0 13.4 0 6.8 0 0 Z " fill="#FEFEFE" transform="translate(189,199)"/>
<path d="M0 0 C6.6 0 13.2 0 20 0 C20 6.6 20 13.2 20 20 C13.4 20 6.8 20 0 20 C0 13.4 0 6.8 0 0 Z " fill="#FEFEFE" transform="translate(106,199)"/>
<path d="M0 0 C6.6 0 13.2 0 20 0 C20 6.6 20 13.2 20 20 C13.4 20 6.8 20 0 20 C0 13.4 0 6.8 0 0 Z " fill="#FDFDFD" transform="translate(251,178)"/>
</svg>
