<?xml version="1.0" encoding="UTF-8"?>
<!-- Generator: visioncortex VTracer 0.6.4 -->
<svg version="1.1" xmlns="http://www.w3.org/2000/svg" width="450" height="437">
<path d="M0 0 C148.5 0 297 0 450 0 C450 144.21 450 288.42 450 437 C301.5 437 153 437 0 437 C0 292.79 0 148.58 0 0 Z " fill="#FEFEFE" transform="translate(0,0)"/>
<path d="M0 0 C55.44 0 110.88 0 168 0 C168 30.36 168 60.72 168 92 C198.36 92 228.72 92 260 92 C260 177.8 260 263.6 260 352 C174.2 352 88.4 352 0 352 C0 319 0 286 0 252 C55.44 252 110.88 252 168 252 C168 224.28 168 196.56 168 168 C112.56 168 57.12 168 0 168 C0 112.56 0 57.12 0 0 Z " fill="#000000" transform="translate(107,46)"/>
<path d="M0 0 C7.59 0 15.18 0 23 0 C23 12.54 23 25.08 23 38 C78.44 38 133.88 38 191 38 C191 50.87 191 63.74 191 77 C135.56 77 80.12 77 23 77 C23 89.54 23 102.08 23 115 C15.41 115 7.82 115 0 115 C0 107.41 0 99.82 0 92 C-7.59 92 -15.18 92 -23 92 C-23 84.41 -23 76.82 -23 69 C-30.59 69 -38.18 69 -46 69 C-46 61.41 -46 53.82 -46 46 C-38.41 46 -30.82 46 -23 46 C-23 38.41 -23 30.82 -23 23 C-15.41 23 -7.82 23 0 23 C0 15.41 0 7.82 0 0 Z " fill="#030303" transform="translate(61,199)"/>
<path d="M0 0 C7.59 0 15.18 0 23 0 C23 7.59 23 15.18 23 23 C30.59 23 38.18 23 46 23 C46 30.59 46 38.18 46 46 C53.59 46 61.18 46 69 46 C69 53.59 69 61.18 69 69 C46.23 69 23.46 69 0 69 C0 46.23 0 23.46 0 0 Z " fill="#010101" transform="translate(298,46)"/>
</svg>
