<?xml version="1.0" encoding="UTF-8"?>
<!-- Generator: visioncortex VTracer 0.6.4 -->
<svg version="1.1" xmlns="http://www.w3.org/2000/svg" width="417" height="336">
<path d="M0 0 C137.61 0 275.22 0 417 0 C417 110.88 417 221.76 417 336 C279.39 336 141.78 336 0 336 C0 225.12 0 114.24 0 0 Z " fill="#010101" transform="translate(0,0)"/>
<path d="M0 0 C137.61 0 275.22 0 417 0 C417 110.88 417 221.76 417 336 C279.39 336 141.78 336 0 336 C0 225.12 0 114.24 0 0 Z M49 36 C49 42.93 49 49.86 49 57 C42.07 57 35.14 57 28 57 C28 132.24 28 207.48 28 285 C34.93 285 41.86 285 49 285 C49 291.93 49 298.86 49 306 C130.84 306 212.68 306 297 306 C297 299.07 297 292.14 297 285 C303.93 285 310.86 285 318 285 C318 278.07 318 271.14 318 264 C324.93 264 331.86 264 339 264 C339 257.4 339 250.8 339 244 C345.6 244 352.2 244 359 244 C359 237.07 359 230.14 359 223 C365.93 223 372.86 223 380 223 C380 216.07 380 209.14 380 202 C373.07 202 366.14 202 359 202 C359 195.07 359 188.14 359 181 C352.4 181 345.8 181 339 181 C339 174.4 339 167.8 339 161 C345.6 161 352.2 161 359 161 C359 154.07 359 147.14 359 140 C352.4 140 345.8 140 339 140 C339 133.07 339 126.14 339 119 C325.14 119 311.28 119 297 119 C297 112.4 297 105.8 297 99 C290.07 99 283.14 99 276 99 C276 92.07 276 85.14 276 78 C228.15 78 180.3 78 131 78 C131 71.07 131 64.14 131 57 C124.4 57 117.8 57 111 57 C111 50.07 111 43.14 111 36 C90.54 36 70.08 36 49 36 Z " fill="#FEFEFE" transform="translate(0,0)"/>
<path d="M0 0 C74.91 0 149.82 0 227 0 C227 6.6 227 13.2 227 20 C220.4 20 213.8 20 207 20 C207 26.93 207 33.86 207 41 C145.29 41 83.58 41 20 41 C20 47.93 20 54.86 20 62 C13.4 62 6.8 62 0 62 C0 68.93 0 75.86 0 83 C-6.93 83 -13.86 83 -21 83 C-21 89.6 -21 96.2 -21 103 C-27.93 103 -34.86 103 -42 103 C-42 109.93 -42 116.86 -42 124 C-48.6 124 -55.2 124 -62 124 C-62 103.54 -62 83.08 -62 62 C-55.4 62 -48.8 62 -42 62 C-42 55.07 -42 48.14 -42 41 C-35.07 41 -28.14 41 -21 41 C-21 34.4 -21 27.8 -21 21 C-14.07 21 -7.14 21 0 21 C0 14.07 0 7.14 0 0 Z " fill="#FEFEFE" transform="translate(111,140)"/>
<path d="M0 0 C13.86 0 27.72 0 42 0 C42 6.93 42 13.86 42 21 C48.6 21 55.2 21 62 21 C62 27.93 62 34.86 62 42 C55.4 42 48.8 42 42 42 C42 48.6 42 55.2 42 62 C41.67 62 41.34 62 41 62 C41 55.4 41 48.8 41 42 C34.4 42 27.8 42 21 42 C21 41.67 21 41.34 21 41 C27.6 41 34.2 41 41 41 C41 34.4 41 27.8 41 21 C-33.91 21 -108.82 21 -186 21 C-186 20.67 -186 20.34 -186 20 C-111.09 20 -36.18 20 41 20 C41 13.73 41 7.46 41 1 C27.47 1 13.94 1 0 1 C0 0.67 0 0.34 0 0 Z " fill="#1E1E1E" transform="translate(297,119)"/>
</svg>
