<?xml version="1.0" encoding="UTF-8"?>
<!-- Generator: visioncortex VTracer 0.6.4 -->
<svg version="1.1" xmlns="http://www.w3.org/2000/svg" width="427" height="417">
<path d="M0 0 C140.91 0 281.82 0 427 0 C427 137.61 427 275.22 427 417 C286.09 417 145.18 417 0 417 C0 279.39 0 141.78 0 0 Z " fill="#FEFEFE" transform="translate(0,0)"/>
<path d="M0 0 C15.18 0 30.36 0 46 0 C46 7.59 46 15.18 46 23 C53.59 23 61.18 23 69 23 C69 30.59 69 38.18 69 46 C84.18 46 99.36 46 115 46 C115 38.41 115 30.82 115 23 C127.54 23 140.08 23 153 23 C153 30.59 153 38.18 153 46 C160.59 46 168.18 46 176 46 C176 58.54 176 71.08 176 84 C168.41 84 160.82 84 153 84 C153 99.18 153 114.36 153 130 C160.59 130 168.18 130 176 130 C176 137.59 176 145.18 176 153 C183.59 153 191.18 153 199 153 C199 168.18 199 183.36 199 199 C191.41 199 183.82 199 176 199 C176 206.59 176 214.18 176 222 C168.41 222 160.82 222 153 222 C153 237.18 153 252.36 153 268 C160.59 268 168.18 268 176 268 C176 280.54 176 293.08 176 306 C168.41 306 160.82 306 153 306 C153 313.59 153 321.18 153 329 C140.46 329 127.92 329 115 329 C115 321.41 115 313.82 115 306 C99.82 306 84.64 306 69 306 C69 313.59 69 321.18 69 329 C61.41 329 53.82 329 46 329 C46 336.59 46 344.18 46 352 C30.82 352 15.64 352 0 352 C0 344.41 0 336.82 0 329 C-7.59 329 -15.18 329 -23 329 C-23 321.41 -23 313.82 -23 306 C-38.18 306 -53.36 306 -69 306 C-69 313.59 -69 321.18 -69 329 C-81.54 329 -94.08 329 -107 329 C-107 321.41 -107 313.82 -107 306 C-114.59 306 -122.18 306 -130 306 C-130 293.46 -130 280.92 -130 268 C-122.41 268 -114.82 268 -107 268 C-107 252.82 -107 237.64 -107 222 C-114.59 222 -122.18 222 -130 222 C-130 214.41 -130 206.82 -130 199 C-137.59 199 -145.18 199 -153 199 C-153 183.82 -153 168.64 -153 153 C-145.41 153 -137.82 153 -130 153 C-130 145.41 -130 137.82 -130 130 C-122.41 130 -114.82 130 -107 130 C-107 114.82 -107 99.64 -107 84 C-114.59 84 -122.18 84 -130 84 C-130 71.46 -130 58.92 -130 46 C-122.41 46 -114.82 46 -107 46 C-107 38.41 -107 30.82 -107 23 C-94.46 23 -81.92 23 -69 23 C-69 30.59 -69 38.18 -69 46 C-53.82 46 -38.64 46 -23 46 C-23 38.41 -23 30.82 -23 23 C-15.41 23 -7.82 23 0 23 C0 15.41 0 7.82 0 0 Z " fill="#000000" transform="translate(169,30)"/>
<path d="M0 0 C25.08 0 50.16 0 76 0 C76 7.59 76 15.18 76 23 C83.59 23 91.18 23 99 23 C99 48.08 99 73.16 99 99 C91.41 99 83.82 99 76 99 C76 106.59 76 114.18 76 122 C50.92 122 25.84 122 0 122 C0 114.41 0 106.82 0 99 C-7.59 99 -15.18 99 -23 99 C-23 73.92 -23 48.84 -23 23 C-15.41 23 -7.82 23 0 23 C0 15.41 0 7.82 0 0 Z " fill="#FEFEFE" transform="translate(154,145)"/>
</svg>
