<?xml version="1.0" encoding="UTF-8"?>
<!-- Generator: visioncortex VTracer 0.6.4 -->
<svg version="1.1" xmlns="http://www.w3.org/2000/svg" width="464" height="417">
<path d="M0 0 C153.12 0 306.24 0 464 0 C464 137.61 464 275.22 464 417 C310.88 417 157.76 417 0 417 C0 279.39 0 141.78 0 0 Z " fill="#FDFDFD" transform="translate(0,0)"/>
<path d="M0 0 C116.16 0 232.32 0 352 0 C352 22.77 352 45.54 352 69 C235.84 69 119.68 69 0 69 C0 46.23 0 23.46 0 0 Z " fill="#000000" transform="translate(32,32)"/>
<path d="M0 0 C35.64 0 71.28 0 108 0 C108 20.46 108 40.92 108 62 C72.36 62 36.72 62 0 62 C0 41.54 0 21.08 0 0 Z " fill="#050505" transform="translate(154,292)"/>
<path d="M0 0 C35.64 0 71.28 0 108 0 C108 20.46 108 40.92 108 62 C72.36 62 36.72 62 0 62 C0 41.54 0 21.08 0 0 Z " fill="#050505" transform="translate(154,208)"/>
<path d="M0 0 C34.98 0 69.96 0 106 0 C106 20.13 106 40.26 106 61 C71.02 61 36.04 61 0 61 C0 40.87 0 20.74 0 0 Z " fill="#000000" transform="translate(155,124)"/>
<path d="M0 0 C32.67 0 65.34 0 99 0 C99 20.13 99 40.26 99 61 C66.33 61 33.66 61 0 61 C0 40.87 0 20.74 0 0 Z " fill="#010101" transform="translate(285,293)"/>
<path d="M0 0 C32.67 0 65.34 0 99 0 C99 20.13 99 40.26 99 61 C66.33 61 33.66 61 0 61 C0 40.87 0 20.74 0 0 Z " fill="#010101" transform="translate(32,293)"/>
<path d="M0 0 C32.67 0 65.34 0 99 0 C99 20.13 99 40.26 99 61 C66.33 61 33.66 61 0 61 C0 40.87 0 20.74 0 0 Z " fill="#010101" transform="translate(285,208)"/>
<path d="M0 0 C32.67 0 65.34 0 99 0 C99 20.13 99 40.26 99 61 C66.33 61 33.66 61 0 61 C0 40.87 0 20.74 0 0 Z " fill="#010101" transform="translate(32,208)"/>
<path d="M0 0 C32.67 0 65.34 0 99 0 C99 20.13 99 40.26 99 61 C66.33 61 33.66 61 0 61 C0 40.87 0 20.74 0 0 Z " fill="#000000" transform="translate(285,124)"/>
<path d="M0 0 C32.67 0 65.34 0 99 0 C99 20.13 99 40.26 99 61 C66.33 61 33.66 61 0 61 C0 40.87 0 20.74 0 0 Z " fill="#000000" transform="translate(32,124)"/>
</svg>
