<?xml version="1.0" encoding="UTF-8"?>
<!-- Generator: visioncortex VTracer 0.6.4 -->
<svg version="1.1" xmlns="http://www.w3.org/2000/svg" width="472" height="439">
<path d="M0 0 C155.76 0 311.52 0 472 0 C472 144.87 472 289.74 472 439 C316.24 439 160.48 439 0 439 C0 294.13 0 149.26 0 0 Z " fill="#FEFEFE" transform="translate(0,0)"/>
<path d="M0 0 C53.13 0 106.26 0 161 0 C161 53.13 161 106.26 161 161 C107.87 161 54.74 161 0 161 C0 107.87 0 54.74 0 0 Z " fill="#FCFCFC" transform="translate(219,241)"/>
<path d="M0 0 C53.13 0 106.26 0 161 0 C161 53.13 161 106.26 161 161 C107.87 161 54.74 161 0 161 C0 107.87 0 54.74 0 0 Z " fill="#FCFCFC" transform="translate(28,241)"/>
<path d="M0 0 C53.13 0 106.26 0 161 0 C161 53.13 161 106.26 161 161 C107.87 161 54.74 161 0 161 C0 107.87 0 54.74 0 0 Z " fill="#FCFCFC" transform="translate(219,50)"/>
<path d="M0 0 C53.13 0 106.26 0 161 0 C161 53.13 161 106.26 161 161 C107.87 161 54.74 161 0 161 C0 107.87 0 54.74 0 0 Z " fill="#FCFCFC" transform="translate(28,50)"/>
<path d="M0 0 C53.13 0 106.26 0 161 0 C161 53.13 161 106.26 161 161 C107.87 161 54.74 161 0 161 C0 107.87 0 54.74 0 0 Z M23 23 C23 60.95 23 98.9 23 138 C60.95 138 98.9 138 138 138 C138 100.05 138 62.1 138 23 C100.05 23 62.1 23 23 23 Z " fill="#020202" transform="translate(219,241)"/>
<path d="M0 0 C53.13 0 106.26 0 161 0 C161 53.13 161 106.26 161 161 C107.87 161 54.74 161 0 161 C0 107.87 0 54.74 0 0 Z M23 23 C23 60.95 23 98.9 23 138 C60.95 138 98.9 138 138 138 C138 100.05 138 62.1 138 23 C100.05 23 62.1 23 23 23 Z " fill="#020202" transform="translate(28,241)"/>
<path d="M0 0 C53.13 0 106.26 0 161 0 C161 53.13 161 106.26 161 161 C107.87 161 54.74 161 0 161 C0 107.87 0 54.74 0 0 Z M23 23 C23 60.95 23 98.9 23 138 C60.95 138 98.9 138 138 138 C138 100.05 138 62.1 138 23 C100.05 23 62.1 23 23 23 Z " fill="#020202" transform="translate(219,50)"/>
<path d="M0 0 C53.13 0 106.26 0 161 0 C161 53.13 161 106.26 161 161 C107.87 161 54.74 161 0 161 C0 107.87 0 54.74 0 0 Z M23 23 C23 60.95 23 98.9 23 138 C60.95 138 98.9 138 138 138 C138 100.05 138 62.1 138 23 C100.05 23 62.1 23 23 23 Z " fill="#020202" transform="translate(28,50)"/>
</svg>
