<?xml version="1.0" encoding="UTF-8"?>
<!-- Generator: visioncortex VTracer 0.6.4 -->
<svg version="1.1" xmlns="http://www.w3.org/2000/svg" width="444" height="381">
<path d="M0 0 C146.52 0 293.04 0 444 0 C444 125.73 444 251.46 444 381 C297.48 381 150.96 381 0 381 C0 255.27 0 129.54 0 0 Z " fill="#FEFEFE" transform="translate(0,0)"/>
<path d="M0 0 C30.36 0 60.72 0 92 0 C92 7.59 92 15.18 92 23 C99.59 23 107.18 23 115 23 C115 30.59 115 38.18 115 46 C124.9 46 134.8 46 145 46 C145 38.41 145 30.82 145 23 C152.59 23 160.18 23 168 23 C168 15.41 168 7.82 168 0 C198.36 0 228.72 0 260 0 C260 7.59 260 15.18 260 23 C267.59 23 275.18 23 283 23 C283 30.59 283 38.18 283 46 C290.59 46 298.18 46 306 46 C306 91.21 306 136.42 306 183 C298.41 183 290.82 183 283 183 C283 190.59 283 198.18 283 206 C275.41 206 267.82 206 260 206 C260 213.59 260 221.18 260 229 C252.41 229 244.82 229 237 229 C237 236.59 237 244.18 237 252 C221.82 252 206.64 252 191 252 C191 259.59 191 267.18 191 275 C175.82 275 160.64 275 145 275 C145 282.59 145 290.18 145 298 C135.1 298 125.2 298 115 298 C115 290.41 115 282.82 115 275 C99.82 275 84.64 275 69 275 C69 267.41 69 259.82 69 252 C53.82 252 38.64 252 23 252 C23 244.41 23 236.82 23 229 C15.41 229 7.82 229 0 229 C0 221.41 0 213.82 0 206 C-7.59 206 -15.18 206 -23 206 C-23 198.41 -23 190.82 -23 183 C-30.59 183 -38.18 183 -46 183 C-46 137.79 -46 92.58 -46 46 C-38.41 46 -30.82 46 -23 46 C-23 38.41 -23 30.82 -23 23 C-15.41 23 -7.82 23 0 23 C0 15.41 0 7.82 0 0 Z " fill="#000000" transform="translate(74,35)"/>
</svg>
