<?xml version="1.0" encoding="UTF-8"?>
<!-- Generator: visioncortex VTracer 0.6.4 -->
<svg version="1.1" xmlns="http://www.w3.org/2000/svg" width="451" height="402">
<path d="M0 0 C148.83 0 297.66 0 451 0 C451 132.66 451 265.32 451 402 C302.17 402 153.34 402 0 402 C0 269.34 0 136.68 0 0 Z " fill="#FEFEFE" transform="translate(0,0)"/>
<path d="M0 0 C27.39 0 54.78 0 83 0 C83 6.93 83 13.86 83 21 C89.93 21 96.86 21 104 21 C104 27.6 104 34.2 104 41 C110.6 41 117.2 41 124 41 C124 54.86 124 68.72 124 83 C117.4 83 110.8 83 104 83 C104 76.07 104 69.14 104 62 C97.07 62 90.14 62 83 62 C83 68.93 83 75.86 83 83 C76.07 83 69.14 83 62 83 C62 89.6 62 96.2 62 103 C55.07 103 48.14 103 41 103 C41 109.93 41 116.86 41 124 C34.4 124 27.8 124 21 124 C21 130.93 21 137.86 21 145 C14.07 145 7.14 145 0 145 C0 151.93 0 158.86 0 166 C-6.93 166 -13.86 166 -21 166 C-21 172.6 -21 179.2 -21 186 C-27.6 186 -34.2 186 -41 186 C-41 192.93 -41 199.86 -41 207 C-47.93 207 -54.86 207 -62 207 C-62 213.93 -62 220.86 -62 228 C-68.6 228 -75.2 228 -82 228 C-82 234.6 -82 241.2 -82 248 C-75.4 248 -68.8 248 -62 248 C-62 254.93 -62 261.86 -62 269 C-68.93 269 -75.86 269 -83 269 C-83 282.53 -83 296.06 -83 310 C-89.6 310 -96.2 310 -103 310 C-103 303.4 -103 296.8 -103 290 C-109.93 290 -116.86 290 -124 290 C-124 283.07 -124 276.14 -124 269 C-130.93 269 -137.86 269 -145 269 C-145 262.4 -145 255.8 -145 249 C-138.07 249 -131.14 249 -124 249 C-124 235.14 -124 221.28 -124 207 C-130.93 207 -137.86 207 -145 207 C-145 200.4 -145 193.8 -145 187 C-151.93 187 -158.86 187 -166 187 C-166 180.07 -166 173.14 -166 166 C-172.6 166 -179.2 166 -186 166 C-186 179.53 -186 193.06 -186 207 C-192.93 207 -199.86 207 -207 207 C-207 166.08 -207 125.16 -207 83 C-200.07 83 -193.14 83 -186 83 C-186 103.46 -186 123.92 -186 145 C-179.07 145 -172.14 145 -165 145 C-165 151.6 -165 158.2 -165 165 C-158.4 165 -151.8 165 -145 165 C-145 171.93 -145 178.86 -145 186 C-131.47 186 -117.94 186 -104 186 C-104 179.4 -104 172.8 -104 166 C-97.07 166 -90.14 166 -83 166 C-83 159.07 -83 152.14 -83 145 C-76.07 145 -69.14 145 -62 145 C-62 138.07 -62 131.14 -62 124 C-55.07 124 -48.14 124 -41 124 C-41 117.07 -41 110.14 -41 103 C-34.4 103 -27.8 103 -21 103 C-21 96.4 -21 89.8 -21 83 C-14.07 83 -7.14 83 0 83 C0 76.07 0 69.14 0 62 C6.93 62 13.86 62 21 62 C21 55.07 21 48.14 21 41 C27.6 41 34.2 41 41 41 C41 34.4 41 27.8 41 21 C27.47 21 13.94 21 0 21 C0 14.07 0 7.14 0 0 Z " fill="#020202" transform="translate(244,24)"/>
<path d="M0 0 C6.93 0 13.86 0 21 0 C21 6.93 21 13.86 21 21 C34.53 21 48.06 21 62 21 C62 61.92 62 102.84 62 145 C55.07 145 48.14 145 41 145 C41 131.47 41 117.94 41 104 C34.4 104 27.8 104 21 104 C21 110.93 21 117.86 21 125 C14.07 125 7.14 125 0 125 C0 131.6 0 138.2 0 145 C-6.6 145 -13.2 145 -20 145 C-20 151.93 -20 158.86 -20 166 C-26.93 166 -33.86 166 -41 166 C-40.96 172.537 -40.96 172.537 -40.91 179.074 C-40.907 179.884 -40.905 180.693 -40.902 181.527 C-40.894 182.776 -40.894 182.776 -40.886 184.051 C-41 186 -41 186 -42 187 C-43.489 187.087 -44.981 187.107 -46.473 187.098 C-47.282 187.095 -48.092 187.093 -48.926 187.09 C-49.961 187.081 -50.996 187.072 -52.062 187.062 C-55.342 187.042 -58.621 187.021 -62 187 C-62 193.93 -62 200.86 -62 208 C-68.93 208 -75.86 208 -83 208 C-83 214.6 -83 221.2 -83 228 C-103.46 228 -123.92 228 -145 228 C-145 214.14 -145 200.28 -145 186 C-151.6 186 -158.2 186 -165 186 C-165 179.4 -165 172.8 -165 166 C-158.4 166 -151.8 166 -145 166 C-145 159.07 -145 152.14 -145 145 C-138.07 145 -131.14 145 -124 145 C-124 138.07 -124 131.14 -124 124 C-117.4 124 -110.8 124 -104 124 C-104 117.4 -104 110.8 -104 104 C-97.07 104 -90.14 104 -83 104 C-83 97.07 -83 90.14 -83 83 C-76.07 83 -69.14 83 -62 83 C-62 76.07 -62 69.14 -62 62 C-55.4 62 -48.8 62 -42 62 C-42 55.07 -42 48.14 -42 41 C-35.07 41 -28.14 41 -21 41 C-21 34.4 -21 27.8 -21 21 C-14.07 21 -7.14 21 0 21 C0 14.07 0 7.14 0 0 Z " fill="#FDFDFD" transform="translate(327,86)"/>
<path d="M0 0 C27.39 0 54.78 0 83 0 C83 6.93 83 13.86 83 21 C89.6 21 96.2 21 103 21 C103 27.6 103 34.2 103 41 C110.26 41 117.52 41 125 41 C125 34.4 125 27.8 125 21 C131.6 21 138.2 21 145 21 C145 14.07 145 7.14 145 0 C158.53 0 172.06 0 186 0 C186 6.6 186 13.2 186 20 C179.4 20 172.8 20 166 20 C166 26.93 166 33.86 166 41 C159.07 41 152.14 41 145 41 C145 47.93 145 54.86 145 62 C138.07 62 131.14 62 124 62 C124 68.6 124 75.2 124 82 C117.4 82 110.8 82 104 82 C104 88.93 104 95.86 104 103 C97.07 103 90.14 103 83 103 C83 109.93 83 116.86 83 124 C76.07 124 69.14 124 62 124 C62 130.93 62 137.86 62 145 C55.07 145 48.14 145 41 145 C41 151.6 41 158.2 41 165 C27.47 165 13.94 165 0 165 C0 158.07 0 151.14 0 144 C-6.6 144 -13.2 144 -20 144 C-20 137.4 -20 130.8 -20 124 C-26.93 124 -33.86 124 -41 124 C-41 103.54 -41 83.08 -41 62 C-34.07 62 -27.14 62 -20 62 C-20 48.47 -20 34.94 -20 21 C-13.4 21 -6.8 21 0 21 C0 14.07 0 7.14 0 0 Z " fill="#FEFEFE" transform="translate(99,45)"/>
<path d="M0 0 C6.6 0 13.2 0 20 0 C20 13.53 20 27.06 20 41 C13.07 41 6.14 41 -1 41 C-1 47.6 -1 54.2 -1 61 C-7.6 61 -14.2 61 -21 61 C-21 67.93 -21 74.86 -21 82 C-27.93 82 -34.86 82 -42 82 C-42 88.93 -42 95.86 -42 103 C-48.93 103 -55.86 103 -63 103 C-63 109.93 -63 116.86 -63 124 C-69.93 124 -76.86 124 -84 124 C-84 130.6 -84 137.2 -84 144 C-90.6 144 -97.2 144 -104 144 C-104 150.93 -104 157.86 -104 165 C-124.46 165 -144.92 165 -166 165 C-166 158.07 -166 151.14 -166 144 C-172.6 144 -179.2 144 -186 144 C-186 130.8 -186 117.6 -186 104 C-179.4 104 -172.8 104 -166 104 C-166 110.6 -166 117.2 -166 124 C-145.54 124 -125.08 124 -104 124 C-104 117.4 -104 110.8 -104 104 C-97.07 104 -90.14 104 -83 104 C-83 97.07 -83 90.14 -83 83 C-73.1 82.505 -73.1 82.505 -63 82 C-62.67 75.4 -62.34 68.8 -62 62 C-55.07 62 -48.14 62 -41 62 C-41 55.07 -41 48.14 -41 41 C-34.4 41 -27.8 41 -21 41 C-21 34.4 -21 27.8 -21 21 C-14.07 21 -7.14 21 0 21 C0 14.07 0 7.14 0 0 Z " fill="#FEFEFE" transform="translate(348,190)"/>
<path d="M0 0 C6.93 0 13.86 0 21 0 C21 20.46 21 40.92 21 62 C27.93 62 34.86 62 42 62 C42 68.6 42 75.2 42 82 C48.6 82 55.2 82 62 82 C62 88.93 62 95.86 62 103 C75.53 103 89.06 103 103 103 C103 96.4 103 89.8 103 83 C103.33 83 103.66 83 104 83 C104 89.93 104 96.86 104 104 C90.47 104 76.94 104 63 104 C63 110.6 63 117.2 63 124 C62.67 124 62.34 124 62 124 C62 117.4 62 110.8 62 104 C55.07 104 48.14 104 41 104 C41 97.07 41 90.14 41 83 C34.4 83 27.8 83 21 83 C21 96.53 21 110.06 21 124 C14.07 124 7.14 124 0 124 C0 83.08 0 42.16 0 0 Z " fill="#090909" transform="translate(37,107)"/>
<path d="M0 0 C6.93 0 13.86 0 21 0 C21 40.92 21 81.84 21 124 C14.07 124 7.14 124 0 124 C0 110.47 0 96.94 0 83 C-6.6 83 -13.2 83 -20 83 C-20 76.07 -20 69.14 -20 62 C-13.4 62 -6.8 62 0 62 C0 41.54 0 21.08 0 0 Z " fill="#030303" transform="translate(368,107)"/>
<path d="M0 0 C6.6 0 13.2 0 20 0 C20 6.93 20 13.86 20 21 C26.93 21 33.86 21 41 21 C41 27.6 41 34.2 41 41 C47.6 41 54.2 41 61 41 C61 54.53 61 68.06 61 82 C54.4 82 47.8 82 41 82 C41 75.07 41 68.14 41 61 C34.4 61 27.8 61 21 61 C21 54.4 21 47.8 21 41 C14.07 41 7.14 41 0 41 C0 27.47 0 13.94 0 0 Z " fill="#FEFEFE" transform="translate(58,190)"/>
<path d="M0 0 C27.39 0 54.78 0 83 0 C83 6.93 83 13.86 83 21 C55.61 21 28.22 21 0 21 C0 14.07 0 7.14 0 0 Z " fill="#040404" transform="translate(99,24)"/>
<path d="M0 0 C6.93 0 13.86 0 21 0 C21 6.93 21 13.86 21 21 C14.4 21 7.8 21 1 21 C1 27.93 1 34.86 1 42 C-5.93 42 -12.86 42 -20 42 C-20 48.6 -20 55.2 -20 62 C-26.93 62 -33.86 62 -41 62 C-41 55.07 -41 48.14 -41 41 C-34.4 41 -27.8 41 -21 41 C-21 34.4 -21 27.8 -21 21 C-14.07 21 -7.14 21 0 21 C0 14.07 0 7.14 0 0 Z " fill="#212121" transform="translate(285,293)"/>
<path d="M0 0 C6.93 0 13.86 0 21 0 C21 6.93 21 13.86 21 21 C14.4 21 7.8 21 1 21 C1 27.93 1 34.86 1 42 C-5.93 42 -12.86 42 -20 42 C-20 48.6 -20 55.2 -20 62 C-26.93 62 -33.86 62 -41 62 C-41 55.07 -41 48.14 -41 41 C-34.07 41 -27.14 41 -20 41 C-20 34.07 -20 27.14 -20 20 C-13.4 20 -6.8 20 0 20 C0 13.4 0 6.8 0 0 Z " fill="#212121" transform="translate(347,231)"/>
<path d="M0 0 C20.46 0 40.92 0 62 0 C62 6.93 62 13.86 62 21 C41.54 21 21.08 21 0 21 C0 14.07 0 7.14 0 0 Z " fill="#030303" transform="translate(182,355)"/>
<path d="M0 0 C20.46 0 40.92 0 62 0 C62 6.93 62 13.86 62 21 C41.54 21 21.08 21 0 21 C0 14.07 0 7.14 0 0 Z " fill="#060606" transform="translate(182,293)"/>
<path d="M0 0 C6.6 0 13.2 0 20 0 C20 13.53 20 27.06 20 41 C13.4 41 6.8 41 0 41 C0 27.47 0 13.94 0 0 Z " fill="#020202" transform="translate(58,66)"/>
<path d="M0 0 C6.93 0 13.86 0 21 0 C21 6.93 21 13.86 21 21 C14.07 21 7.14 21 0 21 C0 14.07 0 7.14 0 0 Z " fill="#090909" transform="translate(306,210)"/>
<path d="M0 0 C6.93 0 13.86 0 21 0 C21 6.6 21 13.2 21 20 C14.07 20 7.14 20 0 20 C0 13.4 0 6.8 0 0 Z " fill="#050505" transform="translate(161,335)"/>
<path d="M0 0 C6.6 0 13.2 0 20 0 C20 6.93 20 13.86 20 21 C13.4 21 6.8 21 0 21 C0 14.07 0 7.14 0 0 Z " fill="#050505" transform="translate(58,231)"/>
<path d="M0 0 C6.93 0 13.86 0 21 0 C21 6.6 21 13.2 21 20 C14.07 20 7.14 20 0 20 C0 13.4 0 6.8 0 0 Z " fill="#040404" transform="translate(223,45)"/>
<path d="M0 0 C6.93 0 13.86 0 21 0 C21 6.6 21 13.2 21 20 C14.07 20 7.14 20 0 20 C0 13.4 0 6.8 0 0 Z " fill="#040404" transform="translate(182,45)"/>
<path d="M0 0 C6.6 0 13.2 0 20 0 C20 6.6 20 13.2 20 20 C13.4 20 6.8 20 0 20 C0 13.4 0 6.8 0 0 Z " fill="#000000" transform="translate(265,314)"/>
<path d="M0 0 C6.6 0 13.2 0 20 0 C20 6.6 20 13.2 20 20 C13.4 20 6.8 20 0 20 C0 13.4 0 6.8 0 0 Z " fill="#020202" transform="translate(244,273)"/>
<path d="M0 0 C6.6 0 13.2 0 20 0 C20 6.6 20 13.2 20 20 C13.4 20 6.8 20 0 20 C0 13.4 0 6.8 0 0 Z " fill="#000000" transform="translate(327,252)"/>
<path d="M0 0 C6.6 0 13.2 0 20 0 C20 6.6 20 13.2 20 20 C13.4 20 6.8 20 0 20 C0 13.4 0 6.8 0 0 Z " fill="#010101" transform="translate(265,252)"/>
<path d="M0 0 C6.6 0 13.2 0 20 0 C20 6.6 20 13.2 20 20 C13.4 20 6.8 20 0 20 C0 13.4 0 6.8 0 0 Z " fill="#000000" transform="translate(79,252)"/>
<path d="M0 0 C6.6 0 13.2 0 20 0 C20 6.6 20 13.2 20 20 C13.4 20 6.8 20 0 20 C0 13.4 0 6.8 0 0 Z " fill="#020202" transform="translate(286,231)"/>
<path d="M0 0 C6.6 0 13.2 0 20 0 C20 6.6 20 13.2 20 20 C13.4 20 6.8 20 0 20 C0 13.4 0 6.8 0 0 Z " fill="#000000" transform="translate(327,190)"/>
<path d="M0 0 C6.6 0 13.2 0 20 0 C20 6.6 20 13.2 20 20 C13.4 20 6.8 20 0 20 C0 13.4 0 6.8 0 0 Z " fill="#000000" transform="translate(79,190)"/>
<path d="M0 0 C6.6 0 13.2 0 20 0 C20 6.6 20 13.2 20 20 C13.4 20 6.8 20 0 20 C0 13.4 0 6.8 0 0 Z " fill="#000000" transform="translate(203,66)"/>
<path d="M0 0 C6.6 0 13.2 0 20 0 C20 6.6 20 13.2 20 20 C13.4 20 6.8 20 0 20 C0 13.4 0 6.8 0 0 Z " fill="#000000" transform="translate(79,45)"/>
<path d="M0 0 C6.6 0 13.2 0 20 0 C20 6.27 20 12.54 20 19 C13.4 19 6.8 19 0 19 C0 12.73 0 6.46 0 0 Z " fill="#000000" transform="translate(286,294)"/>
<path d="M0 0 C6.27 0 12.54 0 19 0 C19 6.6 19 13.2 19 20 C12.73 20 6.46 20 0 20 C0 13.4 0 6.8 0 0 Z " fill="#000000" transform="translate(307,273)"/>
<path d="M0 0 C6.93 0 13.86 0 21 0 C21 0.33 21 0.66 21 1 C14.4 1 7.8 1 1 1 C1 7.6 1 14.2 1 21 C7.6 21 14.2 21 21 21 C21 21.33 21 21.66 21 22 C14.4 22 7.8 22 1 22 C1 35.53 1 49.06 1 63 C0.67 63 0.34 63 0 63 C0 49.47 0 35.94 0 22 C-6.6 22 -13.2 22 -20 22 C-20 35.53 -20 49.06 -20 63 C-26.93 63 -33.86 63 -41 63 C-41 62.67 -41 62.34 -41 62 C-34.4 62 -27.8 62 -21 62 C-21 48.47 -21 34.94 -21 21 C-14.07 21 -7.14 21 0 21 C0 14.07 0 7.14 0 0 Z " fill="#9D9D9D" transform="translate(78,44)"/>
<path d="M0 0 C0.33 0 0.66 0 1 0 C1 6.6 1 13.2 1 20 C7.6 20 14.2 20 21 20 C21 20.33 21 20.66 21 21 C14.4 21 7.8 21 1 21 C1 27.93 1 34.86 1 42 C-5.93 42 -12.86 42 -20 42 C-20 41.67 -20 41.34 -20 41 C-13.4 41 -6.8 41 0 41 C0 34.4 0 27.8 0 21 C-6.6 21 -13.2 21 -20 21 C-20 20.67 -20 20.34 -20 20 C-13.4 20 -6.8 20 0 20 C0 13.4 0 6.8 0 0 Z " fill="#8B8B8B" transform="translate(264,252)"/>
<path d="M0 0 C0.33 0 0.66 0 1 0 C1 6.6 1 13.2 1 20 C7.6 20 14.2 20 21 20 C21 13.4 21 6.8 21 0 C21.33 0 21.66 0 22 0 C22 6.93 22 13.86 22 21 C15.07 21 8.14 21 1 21 C1 27.6 1 34.2 1 41 C0.67 41 0.34 41 0 41 C0 34.4 0 27.8 0 21 C-6.6 21 -13.2 21 -20 21 C-20 20.67 -20 20.34 -20 20 C-13.4 20 -6.8 20 0 20 C0 13.4 0 6.8 0 0 Z " fill="#8B8B8B" transform="translate(285,231)"/>
</svg>
