<?xml version="1.0" encoding="UTF-8"?>
<!-- Generator: visioncortex VTracer 0.6.4 -->
<svg version="1.1" xmlns="http://www.w3.org/2000/svg" width="437" height="420">
<path d="M0 0 C144.21 0 288.42 0 437 0 C437 138.6 437 277.2 437 420 C292.79 420 148.58 420 0 420 C0 281.4 0 142.8 0 0 Z " fill="#FEFEFE" transform="translate(0,0)"/>
<path d="M0 0 C27.39 0 54.78 0 83 0 C83 6.93 83 13.86 83 21 C89.93 21 96.86 21 104 21 C104 27.6 104 34.2 104 41 C110.6 41 117.2 41 124 41 C124 34.4 124 27.8 124 21 C130.93 21 137.86 21 145 21 C145 14.07 145 7.14 145 0 C165.46 0 185.92 0 207 0 C207 6.6 207 13.2 207 20 C200.07 20 193.14 20 186 20 C186 26.93 186 33.86 186 41 C179.4 41 172.8 41 166 41 C166 47.93 166 54.86 166 62 C159.07 62 152.14 62 145 62 C145 68.93 145 75.86 145 83 C138.07 83 131.14 83 124 83 C124 89.6 124 96.2 124 103 C117.4 103 110.8 103 104 103 C104 109.93 104 116.86 104 124 C97.07 124 90.14 124 83 124 C83 130.93 83 137.86 83 145 C76.07 145 69.14 145 62 145 C62 151.93 62 158.86 62 166 C55.4 166 48.8 166 42 166 C42 179.53 42 193.06 42 207 C48.93 207 55.86 207 63 207 C63 213.6 63 220.2 63 227 C69.6 227 76.2 227 83 227 C83 220.4 83 213.8 83 207 C89.93 207 96.86 207 104 207 C104 200.07 104 193.14 104 186 C110.6 186 117.2 186 124 186 C124 179.4 124 172.8 124 166 C130.93 166 137.86 166 145 166 C145 159.07 145 152.14 145 145 C151.93 145 158.86 145 166 145 C166 138.07 166 131.14 166 124 C172.6 124 179.2 124 186 124 C186 117.07 186 110.14 186 103 C192.93 103 199.86 103 207 103 C207 96.4 207 89.8 207 83 C213.93 83 220.86 83 228 83 C228 76.07 228 69.14 228 62 C234.93 62 241.86 62 249 62 C249 55.4 249 48.8 249 42 C255.6 42 262.2 42 269 42 C269 55.53 269 69.06 269 83 C275.93 83 282.86 83 290 83 C290 96.53 290 110.06 290 124 C283.07 124 276.14 124 269 124 C269 130.93 269 137.86 269 145 C275.93 145 282.86 145 290 145 C290 165.46 290 185.92 290 207 C283.07 207 276.14 207 269 207 C269 213.93 269 220.86 269 228 C262.4 228 255.8 228 249 228 C249 234.93 249 241.86 249 249 C242.07 249 235.14 249 228 249 C228 255.6 228 262.2 228 269 C221.07 269 214.14 269 207 269 C207 275.93 207 282.86 207 290 C200.4 290 193.8 290 187 290 C187 296.93 187 303.86 187 311 C180.07 311 173.14 311 166 311 C166 317.6 166 324.2 166 331 C159.07 331 152.14 331 145 331 C145 337.93 145 344.86 145 352 C124.54 352 104.08 352 83 352 C83 345.07 83 338.14 83 331 C76.07 331 69.14 331 62 331 C62 324.4 62 317.8 62 311 C55.07 311 48.14 311 41 311 C41 304.07 41 297.14 41 290 C34.4 290 27.8 290 21 290 C21 283.07 21 276.14 21 269 C14.07 269 7.14 269 0 269 C0 262.4 0 255.8 0 249 C-6.93 249 -13.86 249 -21 249 C-21 242.07 -21 235.14 -21 228 C-27.6 228 -34.2 228 -41 228 C-41 221.07 -41 214.14 -41 207 C-47.93 207 -54.86 207 -62 207 C-62 186.54 -62 166.08 -62 145 C-55.07 145 -48.14 145 -41 145 C-41 138.07 -41 131.14 -41 124 C-47.93 124 -54.86 124 -62 124 C-62 110.47 -62 96.94 -62 83 C-55.07 83 -48.14 83 -41 83 C-41 69.14 -41 55.28 -41 41 C-34.4 41 -27.8 41 -21 41 C-21 34.4 -21 27.8 -21 21 C-14.07 21 -7.14 21 0 21 C0 14.07 0 7.14 0 0 Z " fill="#000000" transform="translate(84,35)"/>
<path d="M0 0 C13.86 0 27.72 0 42 0 C42 6.6 42 13.2 42 20 C48.6 20 55.2 20 62 20 C62 26.93 62 33.86 62 41 C68.93 41 75.86 41 83 41 C83 47.93 83 54.86 83 62 C89.6 62 96.2 62 103 62 C103 68.93 103 75.86 103 83 C109.93 83 116.86 83 124 83 C124 89.93 124 96.86 124 104 C130.93 104 137.86 104 145 104 C145 110.6 145 117.2 145 124 C165.46 124 185.92 124 207 124 C207 117.07 207 110.14 207 103 C213.6 103 220.2 103 227 103 C226.96 96.463 226.96 96.463 226.91 89.926 C226.906 88.712 226.906 88.712 226.902 87.473 C226.897 86.64 226.892 85.807 226.886 84.949 C227 83 227 83 228 82 C229.489 81.913 230.981 81.893 232.473 81.902 C233.282 81.905 234.092 81.907 234.926 81.91 C235.961 81.919 236.996 81.928 238.062 81.938 C241.342 81.958 244.621 81.979 248 82 C248 75.4 248 68.8 248 62 C254.93 62 261.86 62 269 62 C269 55.07 269 48.14 269 41 C275.93 41 282.86 41 290 41 C290 34.07 290 27.14 290 20 C296.6 20 303.2 20 310 20 C310 13.4 310 6.8 310 0 C323.86 0 337.72 0 352 0 C352 20.46 352 40.92 352 62 C345.07 62 338.14 62 331 62 C331 68.93 331 75.86 331 83 C324.4 83 317.8 83 311 83 C311 89.93 311 96.86 311 104 C304.07 104 297.14 104 290 104 C290 110.6 290 117.2 290 124 C283.07 124 276.14 124 269 124 C269 130.93 269 137.86 269 145 C262.4 145 255.8 145 249 145 C249 151.93 249 158.86 249 166 C242.07 166 235.14 166 228 166 C228 172.6 228 179.2 228 186 C221.07 186 214.14 186 207 186 C207 192.93 207 199.86 207 207 C186.54 207 166.08 207 145 207 C145 200.07 145 193.14 145 186 C138.07 186 131.14 186 124 186 C124 179.4 124 172.8 124 166 C117.07 166 110.14 166 103 166 C103 159.07 103 152.14 103 145 C96.4 145 89.8 145 83 145 C83 138.07 83 131.14 83 124 C76.07 124 69.14 124 62 124 C62 117.4 62 110.8 62 104 C55.07 104 48.14 104 41 104 C41 97.07 41 90.14 41 83 C34.4 83 27.8 83 21 83 C21 76.07 21 69.14 21 62 C14.07 62 7.14 62 0 62 C0 41.54 0 21.08 0 0 Z " fill="#020202" transform="translate(22,180)"/>
<path d="M0 0 C0.33 0 0.66 0 1 0 C1 6.6 1 13.2 1 20 C14.53 20 28.06 20 42 20 C42 26.93 42 33.86 42 41 C48.93 41 55.86 41 63 41 C63 54.53 63 68.06 63 82 C69.6 82 76.2 82 83 82 C83 82.33 83 82.66 83 83 C76.07 83 69.14 83 62 83 C62 69.47 62 55.94 62 42 C55.4 42 48.8 42 42 42 C42 48.6 42 55.2 42 62 C35.07 62 28.14 62 21 62 C21 68.93 21 75.86 21 83 C14.07 83 7.14 83 0 83 C0 89.6 0 96.2 0 103 C-6.93 103 -13.86 103 -21 103 C-21 109.93 -21 116.86 -21 124 C-27.6 124 -34.2 124 -41 124 C-41 130.93 -41 137.86 -41 145 C-47.93 145 -54.86 145 -62 145 C-62 151.93 -62 158.86 -62 166 C-68.93 166 -75.86 166 -83 166 C-83 172.6 -83 179.2 -83 186 C-89.6 186 -96.2 186 -103 186 C-103 192.93 -103 199.86 -103 207 C-109.93 207 -116.86 207 -124 207 C-124 213.6 -124 220.2 -124 227 C-130.6 227 -137.2 227 -144 227 C-144 220.4 -144 213.8 -144 207 C-150.93 207 -157.86 207 -165 207 C-165 193.47 -165 179.94 -165 166 C-158.4 166 -151.8 166 -145 166 C-145 159.07 -145 152.14 -145 145 C-138.07 145 -131.14 145 -124 145 C-124 138.07 -124 131.14 -124 124 C-117.07 124 -110.14 124 -103 124 C-103 117.07 -103 110.14 -103 103 C-96.4 103 -89.8 103 -83 103 C-83 96.4 -83 89.8 -83 83 C-76.07 83 -69.14 83 -62 83 C-62 76.07 -62 69.14 -62 62 C-55.07 62 -48.14 62 -41 62 C-41 55.07 -41 48.14 -41 41 C-34.4 41 -27.8 41 -21 41 C-21 34.07 -21 27.14 -21 20 C-14.07 20 -7.14 20 0 20 C0 13.4 0 6.8 0 0 Z " fill="#FDFDFD" transform="translate(291,35)"/>
<path d="M0 0 C13.86 0 27.72 0 42 0 C42 6.6 42 13.2 42 20 C48.6 20 55.2 20 62 20 C62 26.93 62 33.86 62 41 C68.93 41 75.86 41 83 41 C83 68.39 83 95.78 83 124 C76.07 124 69.14 124 62 124 C62 117.4 62 110.8 62 104 C55.07 104 48.14 104 41 104 C41 97.07 41 90.14 41 83 C34.4 83 27.8 83 21 83 C21 76.07 21 69.14 21 62 C14.07 62 7.14 62 0 62 C0 41.54 0 21.08 0 0 Z " fill="#040404" transform="translate(22,180)"/>
<path d="M0 0 C6.6 0 13.2 0 20 0 C20 6.93 20 13.86 20 21 C26.93 21 33.86 21 41 21 C41 27.93 41 34.86 41 42 C47.93 42 54.86 42 62 42 C62 48.6 62 55.2 62 62 C55.07 62 48.14 62 41 62 C41 68.93 41 75.86 41 83 C34.4 83 27.8 83 21 83 C21 76.07 21 69.14 21 62 C14.07 62 7.14 62 0 62 C0 41.54 0 21.08 0 0 Z " fill="#FDFDFD" transform="translate(105,242)"/>
<path d="M0 0 C6.93 0 13.86 0 21 0 C21 6.93 21 13.86 21 21 C14.4 21 7.8 21 1 21 C1 27.93 1 34.86 1 42 C-5.93 42 -12.86 42 -20 42 C-20 48.6 -20 55.2 -20 62 C-40.46 62 -60.92 62 -82 62 C-82 55.07 -82 48.14 -82 41 C-61.54 41 -41.08 41 -20 41 C-20 34.07 -20 27.14 -20 20 C-13.4 20 -6.8 20 0 20 C0 13.4 0 6.8 0 0 Z " fill="#FCFCFC" transform="translate(249,263)"/>
<path d="M0 0 C6.93 0 13.86 0 21 0 C21 6.93 21 13.86 21 21 C14.4 21 7.8 21 1 21 C1 27.93 1 34.86 1 42 C-26.39 42 -53.78 42 -82 42 C-82 41.67 -82 41.34 -82 41 C-61.54 41 -41.08 41 -20 41 C-20 34.07 -20 27.14 -20 20 C-13.4 20 -6.8 20 0 20 C0 13.4 0 6.8 0 0 Z " fill="#FCFCFC" transform="translate(249,263)"/>
<path d="M0 0 C13.53 0 27.06 0 41 0 C41 6.6 41 13.2 41 20 C27.47 20 13.94 20 0 20 C0 13.4 0 6.8 0 0 Z " fill="#020202" transform="translate(291,56)"/>
<path d="M0 0 C0.33 0 0.66 0 1 0 C1 13.53 1 27.06 1 41 C7.93 41 14.86 41 22 41 C22 47.6 22 54.2 22 61 C28.6 61 35.2 61 42 61 C42 61.33 42 61.66 42 62 C35.4 62 28.8 62 22 62 C22 68.6 22 75.2 22 82 C28.6 82 35.2 82 42 82 C42 82.33 42 82.66 42 83 C35.07 83 28.14 83 21 83 C21 76.07 21 69.14 21 62 C14.07 62 7.14 62 0 62 C0 41.54 0 21.08 0 0 Z " fill="#020202" transform="translate(125,201)"/>
<path d="M0 0 C6.93 0 13.86 0 21 0 C21 6.93 21 13.86 21 21 C14.07 21 7.14 21 0 21 C0 14.07 0 7.14 0 0 Z " fill="#F5F5F5" transform="translate(291,221)"/>
<path d="M0 0 C6.93 0 13.86 0 21 0 C21 6.93 21 13.86 21 21 C14.07 21 7.14 21 0 21 C0 14.07 0 7.14 0 0 Z " fill="#F5F5F5" transform="translate(84,221)"/>
<path d="M0 0 C6.6 0 13.2 0 20 0 C20 6.93 20 13.86 20 21 C13.4 21 6.8 21 0 21 C0 14.07 0 7.14 0 0 Z " fill="#FAFAFA" transform="translate(333,180)"/>
<path d="M0 0 C6.6 0 13.2 0 20 0 C20 6.93 20 13.86 20 21 C13.4 21 6.8 21 0 21 C0 14.07 0 7.14 0 0 Z " fill="#FAFAFA" transform="translate(43,180)"/>
<path d="M0 0 C6.6 0 13.2 0 20 0 C20 6.6 20 13.2 20 20 C13.4 20 6.8 20 0 20 C0 13.4 0 6.8 0 0 Z " fill="#FDFDFD" transform="translate(250,263)"/>
<path d="M0 0 C6.6 0 13.2 0 20 0 C20 6.6 20 13.2 20 20 C13.4 20 6.8 20 0 20 C0 13.4 0 6.8 0 0 Z " fill="#FCFCFC" transform="translate(271,242)"/>
<path d="M0 0 C6.6 0 13.2 0 20 0 C20 6.6 20 13.2 20 20 C13.4 20 6.8 20 0 20 C0 13.4 0 6.8 0 0 Z " fill="#FEFEFE" transform="translate(312,201)"/>
<path d="M0 0 C6.6 0 13.2 0 20 0 C20 6.6 20 13.2 20 20 C13.4 20 6.8 20 0 20 C0 13.4 0 6.8 0 0 Z " fill="#FEFEFE" transform="translate(64,201)"/>
<path d="M0 0 C0.33 0 0.66 0 1 0 C1 6.6 1 13.2 1 20 C14.53 20 28.06 20 42 20 C42 26.93 42 33.86 42 41 C48.93 41 55.86 41 63 41 C63 54.53 63 68.06 63 82 C69.6 82 76.2 82 83 82 C83 82.33 83 82.66 83 83 C76.07 83 69.14 83 62 83 C62 69.47 62 55.94 62 42 C55.4 42 48.8 42 42 42 C42 48.6 42 55.2 42 62 C41.67 62 41.34 62 41 62 C41 55.4 41 48.8 41 42 C27.47 42 13.94 42 0 42 C0 41.67 0 41.34 0 41 C13.53 41 27.06 41 41 41 C41 34.4 41 27.8 41 21 C20.87 21 0.74 21 -20 21 C-20 27.6 -20 34.2 -20 41 C-20.33 41 -20.66 41 -21 41 C-21 34.07 -21 27.14 -21 20 C-14.07 20 -7.14 20 0 20 C0 13.4 0 6.8 0 0 Z " fill="#999999" transform="translate(291,35)"/>
<path d="M0 0 C0.33 0 0.66 0 1 0 C1 6.6 1 13.2 1 20 C7.6 20 14.2 20 21 20 C21 20.33 21 20.66 21 21 C14.4 21 7.8 21 1 21 C1 27.93 1 34.86 1 42 C-26.39 42 -53.78 42 -82 42 C-82 41.67 -82 41.34 -82 41 C-54.94 41 -27.88 41 0 41 C0 34.4 0 27.8 0 21 C-6.6 21 -13.2 21 -20 21 C-20 20.67 -20 20.34 -20 20 C-13.4 20 -6.8 20 0 20 C0 13.4 0 6.8 0 0 Z " fill="#8D8D8D" transform="translate(249,263)"/>
<path d="M0 0 C0.33 0 0.66 0 1 0 C1 20.13 1 40.26 1 61 C7.6 61 14.2 61 21 61 C21 54.4 21 47.8 21 41 C21.33 41 21.66 41 22 41 C22 47.6 22 54.2 22 61 C28.6 61 35.2 61 42 61 C42 61.33 42 61.66 42 62 C35.4 62 28.8 62 22 62 C22 68.6 22 75.2 22 82 C28.6 82 35.2 82 42 82 C42 82.33 42 82.66 42 83 C35.07 83 28.14 83 21 83 C21 76.07 21 69.14 21 62 C14.07 62 7.14 62 0 62 C0 41.54 0 21.08 0 0 Z " fill="#7F7F7F" transform="translate(125,201)"/>
<path d="M0 0 C0.33 0 0.66 0 1 0 C1 6.6 1 13.2 1 20 C7.6 20 14.2 20 21 20 C21 13.4 21 6.8 21 0 C21.33 0 21.66 0 22 0 C22 6.93 22 13.86 22 21 C15.07 21 8.14 21 1 21 C1 27.6 1 34.2 1 41 C0.67 41 0.34 41 0 41 C0 34.4 0 27.8 0 21 C-6.6 21 -13.2 21 -20 21 C-20 20.67 -20 20.34 -20 20 C-13.4 20 -6.8 20 0 20 C0 13.4 0 6.8 0 0 Z " fill="#737373" transform="translate(270,242)"/>
</svg>
