<?xml version="1.0" encoding="UTF-8"?>
<!-- Generator: visioncortex VTracer 0.6.4 -->
<svg version="1.1" xmlns="http://www.w3.org/2000/svg" width="512" height="512">
<path d="M0 0 C44.55 0 89.1 0 135 0 C135 11.22 135 22.44 135 34 C145.89 34 156.78 34 168 34 C168 44.89 168 55.78 168 67 C182.52 67 197.04 67 212 67 C212 56.11 212 45.22 212 34 C222.89 34 233.78 34 245 34 C245 22.78 245 11.56 245 0 C289.55 0 334.1 0 380 0 C380 11.22 380 22.44 380 34 C390.89 34 401.78 34 413 34 C413 44.89 413 55.78 413 67 C423.89 67 434.78 67 446 67 C446 133.66 446 200.32 446 269 C435.11 269 424.22 269 413 269 C413 279.89 413 290.78 413 302 C402.11 302 391.22 302 380 302 C380 312.89 380 323.78 380 335 C368.78 335 357.56 335 346 335 C346 346.22 346 357.44 346 369 C324.22 369 302.44 369 280 369 C280 379.89 280 390.78 280 402 C257.89 402 235.78 402 213 402 C213 413.22 213 424.44 213 436 C197.82 436 182.64 436 167 436 C167 424.78 167 413.56 167 402 C144.89 402 122.78 402 100 402 C100 391.11 100 380.22 100 369 C78.22 369 56.44 369 34 369 C34 357.78 34 346.56 34 335 C22.78 335 11.56 335 0 335 C0 324.11 0 313.22 0 302 C-10.89 302 -21.78 302 -33 302 C-33 291.11 -33 280.22 -33 269 C-43.89 269 -54.78 269 -66 269 C-66 202.34 -66 135.68 -66 67 C-55.11 67 -44.22 67 -33 67 C-33 56.11 -33 45.22 -33 34 C-22.11 34 -11.22 34 0 34 C0 22.78 0 11.56 0 0 Z M1 35 C1 45.89 1 56.78 1 68 C-9.89 68 -20.78 68 -32 68 C-32 134 -32 200 -32 268 C-21.11 268 -10.22 268 1 268 C1 278.89 1 289.78 1 301 C12.22 301 23.44 301 35 301 C35 311.89 35 322.78 35 334 C56.78 334 78.56 334 101 334 C101 345.22 101 356.44 101 368 C123.11 368 145.22 368 168 368 C168 378.89 168 389.78 168 401 C182.52 401 197.04 401 212 401 C212 390.11 212 379.22 212 368 C234.11 368 256.22 368 279 368 C279 356.78 279 345.56 279 334 C300.78 334 322.56 334 345 334 C345 323.11 345 312.22 345 301 C356.22 301 367.44 301 379 301 C379 290.11 379 279.22 379 268 C389.89 268 400.78 268 412 268 C412 202 412 136 412 68 C401.11 68 390.22 68 379 68 C379 57.11 379 46.22 379 35 C335.11 35 291.22 35 246 35 C246 45.89 246 56.78 246 68 C235.11 68 224.22 68 213 68 C213 79.22 213 90.44 213 102 C197.82 102 182.64 102 167 102 C167 90.78 167 79.56 167 68 C156.11 68 145.22 68 134 68 C134 57.11 134 46.22 134 35 C90.11 35 46.22 35 1 35 Z " fill="#000000" transform="translate(66,38)"/>
</svg>
