<?xml version="1.0" encoding="UTF-8"?>
<!-- Generator: visioncortex VTracer 0.6.4 -->
<svg version="1.1" xmlns="http://www.w3.org/2000/svg" width="434" height="405">
<path d="M0 0 C143.22 0 286.44 0 434 0 C434 133.65 434 267.3 434 405 C290.78 405 147.56 405 0 405 C0 271.35 0 137.7 0 0 Z " fill="#FEFEFE" transform="translate(0,0)"/>
<path d="M0 0 C9.9 0 19.8 0 30 0 C30 7.59 30 15.18 30 23 C37.59 23 45.18 23 53 23 C53 30.59 53 38.18 53 46 C60.59 46 68.18 46 76 46 C76 30.82 76 15.64 76 0 C98.77 0 121.54 0 145 0 C145 45.54 145 91.08 145 138 C152.59 138 160.18 138 168 138 C168 145.59 168 153.18 168 161 C175.59 161 183.18 161 191 161 C191 168.59 191 176.18 191 184 C183.41 184 175.82 184 168 184 C168 239.44 168 294.88 168 352 C132.69 352 97.38 352 61 352 C61 306.46 61 260.92 61 214 C30.64 214 0.28 214 -31 214 C-31 259.54 -31 305.08 -31 352 C-66.64 352 -102.28 352 -139 352 C-139 296.56 -139 241.12 -139 184 C-146.26 184 -153.52 184 -161 184 C-161 176.41 -161 168.82 -161 161 C-153.41 161 -145.82 161 -138 161 C-138 153.41 -138 145.82 -138 138 C-130.41 138 -122.82 138 -115 138 C-115 130.41 -115 122.82 -115 115 C-107.41 115 -99.82 115 -92 115 C-92 107.41 -92 99.82 -92 92 C-84.41 92 -76.82 92 -69 92 C-69 84.41 -69 76.82 -69 69 C-61.41 69 -53.82 69 -46 69 C-46 61.41 -46 53.82 -46 46 C-38.41 46 -30.82 46 -23 46 C-23 38.41 -23 30.82 -23 23 C-15.41 23 -7.82 23 0 23 C0 15.41 0 7.82 0 0 Z " fill="#000000" transform="translate(182,35)"/>
<path d="M0 0 C9.9 0 19.8 0 30 0 C30 7.59 30 15.18 30 23 C37.59 23 45.18 23 53 23 C53 30.59 53 38.18 53 46 C60.59 46 68.18 46 76 46 C76 30.82 76 15.64 76 0 C98.77 0 121.54 0 145 0 C145 45.54 145 91.08 145 138 C152.59 138 160.18 138 168 138 C168 145.59 168 153.18 168 161 C175.59 161 183.18 161 191 161 C191 168.59 191 176.18 191 184 C183.41 184 175.82 184 168 184 C168 239.44 168 294.88 168 352 C167.67 352 167.34 352 167 352 C167 296.56 167 241.12 167 184 C159.74 184 152.48 184 145 184 C145 176.41 145 168.82 145 161 C137.41 161 129.82 161 122 161 C122 153.41 122 145.82 122 138 C114.41 138 106.82 138 99 138 C99 130.41 99 122.82 99 115 C91.41 115 83.82 115 76 115 C76 107.41 76 99.82 76 92 C68.41 92 60.82 92 53 92 C53 84.41 53 76.82 53 69 C45.41 69 37.82 69 30 69 C30 61.41 30 53.82 30 46 C20.1 46 10.2 46 0 46 C0 53.59 0 61.18 0 69 C-7.59 69 -15.18 69 -23 69 C-23 76.59 -23 84.18 -23 92 C-30.59 92 -38.18 92 -46 92 C-46 99.59 -46 107.18 -46 115 C-53.59 115 -61.18 115 -69 115 C-69 122.59 -69 130.18 -69 138 C-76.59 138 -84.18 138 -92 138 C-92 145.59 -92 153.18 -92 161 C-99.59 161 -107.18 161 -115 161 C-115 168.59 -115 176.18 -115 184 C-122.59 184 -130.18 184 -138 184 C-138 239.44 -138 294.88 -138 352 C-138.33 352 -138.66 352 -139 352 C-139 296.56 -139 241.12 -139 184 C-146.26 184 -153.52 184 -161 184 C-161 176.41 -161 168.82 -161 161 C-153.41 161 -145.82 161 -138 161 C-138 153.41 -138 145.82 -138 138 C-130.41 138 -122.82 138 -115 138 C-115 130.41 -115 122.82 -115 115 C-107.41 115 -99.82 115 -92 115 C-92 107.41 -92 99.82 -92 92 C-84.41 92 -76.82 92 -69 92 C-69 84.41 -69 76.82 -69 69 C-61.41 69 -53.82 69 -46 69 C-46 61.41 -46 53.82 -46 46 C-38.41 46 -30.82 46 -23 46 C-23 38.41 -23 30.82 -23 23 C-15.41 23 -7.82 23 0 23 C0 15.41 0 7.82 0 0 Z " fill="#020202" transform="translate(182,35)"/>
<path d="M0 0 C9.9 0 19.8 0 30 0 C30 7.59 30 15.18 30 23 C37.59 23 45.18 23 53 23 C53 38.18 53 53.36 53 69 C45.41 69 37.82 69 30 69 C30 61.41 30 53.82 30 46 C20.1 46 10.2 46 0 46 C0 53.59 0 61.18 0 69 C-7.59 69 -15.18 69 -23 69 C-23 76.59 -23 84.18 -23 92 C-30.59 92 -38.18 92 -46 92 C-46 99.59 -46 107.18 -46 115 C-53.59 115 -61.18 115 -69 115 C-69 122.59 -69 130.18 -69 138 C-76.59 138 -84.18 138 -92 138 C-92 145.59 -92 153.18 -92 161 C-99.59 161 -107.18 161 -115 161 C-115 168.59 -115 176.18 -115 184 C-122.59 184 -130.18 184 -138 184 C-138 239.44 -138 294.88 -138 352 C-138.33 352 -138.66 352 -139 352 C-139 296.56 -139 241.12 -139 184 C-146.26 184 -153.52 184 -161 184 C-161 176.41 -161 168.82 -161 161 C-153.41 161 -145.82 161 -138 161 C-138 153.41 -138 145.82 -138 138 C-130.41 138 -122.82 138 -115 138 C-115 130.41 -115 122.82 -115 115 C-107.41 115 -99.82 115 -92 115 C-92 107.41 -92 99.82 -92 92 C-84.41 92 -76.82 92 -69 92 C-69 84.41 -69 76.82 -69 69 C-61.41 69 -53.82 69 -46 69 C-46 61.41 -46 53.82 -46 46 C-38.41 46 -30.82 46 -23 46 C-23 38.41 -23 30.82 -23 23 C-15.41 23 -7.82 23 0 23 C0 15.41 0 7.82 0 0 Z " fill="#FBFBFB" transform="translate(182,35)"/>
<path d="M0 0 C7.59 0 15.18 0 23 0 C23 37.95 23 75.9 23 115 C15.41 115 7.82 115 0 115 C0 107.41 0 99.82 0 92 C-7.59 92 -15.18 92 -23 92 C-23 84.41 -23 76.82 -23 69 C-15.41 69 -7.82 69 0 69 C0 46.23 0 23.46 0 0 Z " fill="#FBFBFB" transform="translate(281,58)"/>
<path d="M0 0 C15.18 0 30.36 0 46 0 C46 7.59 46 15.18 46 23 C38.41 23 30.82 23 23 23 C23 30.59 23 38.18 23 46 C15.41 46 7.82 46 0 46 C0 101.44 0 156.88 0 214 C-0.33 214 -0.66 214 -1 214 C-1 158.56 -1 103.12 -1 46 C-8.26 46 -15.52 46 -23 46 C-23 38.41 -23 30.82 -23 23 C-15.41 23 -7.82 23 0 23 C0 15.41 0 7.82 0 0 Z " fill="#EBEBEB" transform="translate(44,173)"/>
<path d="M0 0 C7.59 0 15.18 0 23 0 C23 15.18 23 30.36 23 46 C7.82 46 -7.36 46 -23 46 C-23 38.41 -23 30.82 -23 23 C-15.41 23 -7.82 23 0 23 C0 15.41 0 7.82 0 0 Z " fill="#F7F7F7" transform="translate(90,127)"/>
<path d="M0 0 C15.18 0 30.36 0 46 0 C46 7.59 46 15.18 46 23 C38.41 23 30.82 23 23 23 C23 30.59 23 38.18 23 46 C15.41 46 7.82 46 0 46 C0 30.82 0 15.64 0 0 Z " fill="#F7F7F7" transform="translate(113,104)"/>
<path d="M0 0 C7.59 0 15.18 0 23 0 C23 15.18 23 30.36 23 46 C7.82 46 -7.36 46 -23 46 C-23 38.41 -23 30.82 -23 23 C-15.41 23 -7.82 23 0 23 C0 15.41 0 7.82 0 0 Z " fill="#FAFAFA" transform="translate(159,58)"/>
<path d="M0 0 C15.18 0 30.36 0 46 0 C46 7.59 46 15.18 46 23 C38.41 23 30.82 23 23 23 C23 78.44 23 133.88 23 191 C22.67 191 22.34 191 22 191 C22 135.56 22 80.12 22 23 C14.74 23 7.48 23 0 23 C0 15.41 0 7.82 0 0 Z " fill="#111111" transform="translate(327,196)"/>
<path d="M0 0 C9.9 0 19.8 0 30 0 C30 7.59 30 15.18 30 23 C20.1 23 10.2 23 0 23 C0 15.41 0 7.82 0 0 Z " fill="#010101" transform="translate(182,35)"/>
<path d="M0 0 C7.59 0 15.18 0 23 0 C23 7.59 23 15.18 23 23 C15.41 23 7.82 23 0 23 C0 15.41 0 7.82 0 0 Z " fill="#060606" transform="translate(327,173)"/>
<path d="M0 0 C7.59 0 15.18 0 23 0 C23 7.59 23 15.18 23 23 C15.41 23 7.82 23 0 23 C0 15.41 0 7.82 0 0 Z " fill="#FAFAFA" transform="translate(304,173)"/>
<path d="M0 0 C7.59 0 15.18 0 23 0 C23 7.59 23 15.18 23 23 C15.41 23 7.82 23 0 23 C0 15.41 0 7.82 0 0 Z " fill="#FAFAFA" transform="translate(67,173)"/>
<path d="M0 0 C7.59 0 15.18 0 23 0 C23 7.59 23 15.18 23 23 C15.41 23 7.82 23 0 23 C0 15.41 0 7.82 0 0 Z " fill="#060606" transform="translate(44,173)"/>
<path d="M0 0 C7.59 0 15.18 0 23 0 C23 7.59 23 15.18 23 23 C15.41 23 7.82 23 0 23 C0 15.41 0 7.82 0 0 Z " fill="#050505" transform="translate(67,150)"/>
<path d="M0 0 C7.59 0 15.18 0 23 0 C23 7.59 23 15.18 23 23 C15.41 23 7.82 23 0 23 C0 15.41 0 7.82 0 0 Z " fill="#FCFCFC" transform="translate(113,127)"/>
<path d="M0 0 C7.59 0 15.18 0 23 0 C23 7.59 23 15.18 23 23 C15.41 23 7.82 23 0 23 C0 15.41 0 7.82 0 0 Z " fill="#040404" transform="translate(90,127)"/>
<path d="M0 0 C7.59 0 15.18 0 23 0 C23 7.59 23 15.18 23 23 C15.41 23 7.82 23 0 23 C0 15.41 0 7.82 0 0 Z " fill="#F7F7F7" transform="translate(235,104)"/>
<path d="M0 0 C7.59 0 15.18 0 23 0 C23 7.59 23 15.18 23 23 C15.41 23 7.82 23 0 23 C0 15.41 0 7.82 0 0 Z " fill="#040404" transform="translate(113,104)"/>
<path d="M0 0 C7.59 0 15.18 0 23 0 C23 7.59 23 15.18 23 23 C15.41 23 7.82 23 0 23 C0 15.41 0 7.82 0 0 Z " fill="#050505" transform="translate(136,81)"/>
<path d="M0 0 C7.59 0 15.18 0 23 0 C23 7.59 23 15.18 23 23 C15.41 23 7.82 23 0 23 C0 15.41 0 7.82 0 0 Z " fill="#060606" transform="translate(212,58)"/>
<path d="M0 0 C7.59 0 15.18 0 23 0 C23 7.59 23 15.18 23 23 C15.41 23 7.82 23 0 23 C0 15.41 0 7.82 0 0 Z " fill="#060606" transform="translate(159,58)"/>
<path d="M0 0 C7.59 0 15.18 0 23 0 C23 7.26 23 14.52 23 22 C15.41 22 7.82 22 0 22 C0 14.74 0 7.48 0 0 Z " fill="#FBFBFB" transform="translate(327,196)"/>
<path d="M0 0 C7.59 0 15.18 0 23 0 C23 7.26 23 14.52 23 22 C15.41 22 7.82 22 0 22 C0 14.74 0 7.48 0 0 Z " fill="#010101" transform="translate(21,196)"/>
</svg>
