<?xml version="1.0" encoding="UTF-8"?>
<!-- Generator: visioncortex VTracer 0.6.4 -->
<svg version="1.1" xmlns="http://www.w3.org/2000/svg" width="408" height="423">
<path d="M0 0 C134.64 0 269.28 0 408 0 C408 139.59 408 279.18 408 423 C273.36 423 138.72 423 0 423 C0 283.41 0 143.82 0 0 Z " fill="#FEFEFE" transform="translate(0,0)"/>
<path d="M0 0 C9.9 0 19.8 0 30 0 C30 7.59 30 15.18 30 23 C37.59 23 45.18 23 53 23 C53 30.59 53 38.18 53 46 C60.59 46 68.18 46 76 46 C76 53.59 76 61.18 76 69 C83.59 69 91.18 69 99 69 C99 46.23 99 23.46 99 0 C106.59 0 114.18 0 122 0 C122 37.95 122 75.9 122 115 C129.59 115 137.18 115 145 115 C145 122.59 145 130.18 145 138 C152.59 138 160.18 138 168 138 C168 145.26 168 152.52 168 160 C160.41 160 152.82 160 145 160 C145 208.18 145 256.36 145 306 C124.87 306 104.74 306 84 306 C84 260.46 84 214.92 84 168 C38.46 168 -7.08 168 -54 168 C-54 213.54 -54 259.08 -54 306 C-74.13 306 -94.26 306 -115 306 C-115 257.82 -115 209.64 -115 160 C-122.59 160 -130.18 160 -138 160 C-138 152.74 -138 145.48 -138 138 C-130.41 138 -122.82 138 -115 138 C-115 130.41 -115 122.82 -115 115 C-107.41 115 -99.82 115 -92 115 C-92 107.41 -92 99.82 -92 92 C-84.41 92 -76.82 92 -69 92 C-69 84.41 -69 76.82 -69 69 C-61.41 69 -53.82 69 -46 69 C-46 61.41 -46 53.82 -46 46 C-38.41 46 -30.82 46 -23 46 C-23 38.41 -23 30.82 -23 23 C-15.41 23 -7.82 23 0 23 C0 15.41 0 7.82 0 0 Z " fill="#FEFEFE" transform="translate(171,79)"/>
<path d="M0 0 C7.59 0 15.18 0 23 0 C23 7.26 23 14.52 23 22 C30.59 22 38.18 22 46 22 C46 70.18 46 118.36 46 168 C66.13 168 86.26 168 107 168 C107 122.46 107 76.92 107 30 C152.54 30 198.08 30 245 30 C245 75.54 245 121.08 245 168 C265.13 168 285.26 168 306 168 C306 119.82 306 71.64 306 22 C313.59 22 321.18 22 329 22 C329 14.74 329 7.48 329 0 C336.59 0 344.18 0 352 0 C352 7.59 352 15.18 352 23 C344.41 23 336.82 23 329 23 C329 78.44 329 133.88 329 191 C293.69 191 258.38 191 222 191 C222 145.46 222 99.92 222 53 C191.64 53 161.28 53 130 53 C130 98.54 130 144.08 130 191 C94.69 191 59.38 191 23 191 C23 135.56 23 80.12 23 23 C15.41 23 7.82 23 0 23 C0 15.41 0 7.82 0 0 Z " fill="#010101" transform="translate(10,217)"/>
<path d="M0 0 C22.77 0 45.54 0 69 0 C69 45.54 69 91.08 69 138 C61.41 138 53.82 138 46 138 C46 100.05 46 62.1 46 23 C38.41 23 30.82 23 23 23 C23 45.77 23 68.54 23 92 C15.41 92 7.82 92 0 92 C0 84.41 0 76.82 0 69 C-7.59 69 -15.18 69 -23 69 C-23 61.41 -23 53.82 -23 46 C-15.41 46 -7.82 46 0 46 C0 30.82 0 15.64 0 0 Z " fill="#020202" transform="translate(247,56)"/>
<path d="M0 0 C7.59 0 15.18 0 23 0 C23 7.59 23 15.18 23 23 C15.41 23 7.82 23 0 23 C0 78.44 0 133.88 0 191 C-0.33 191 -0.66 191 -1 191 C-1 135.56 -1 80.12 -1 23 C-7.93 23 -14.86 23 -22 23 C-22 70.85 -22 118.7 -22 168 C-22.33 168 -22.66 168 -23 168 C-23 119.82 -23 71.64 -23 22 C-15.41 22 -7.82 22 0 22 C0 14.74 0 7.48 0 0 Z " fill="#151515" transform="translate(339,217)"/>
<path d="M0 0 C7.59 0 15.18 0 23 0 C23 7.26 23 14.52 23 22 C30.59 22 38.18 22 46 22 C46 70.18 46 118.36 46 168 C45.67 168 45.34 168 45 168 C45 120.15 45 72.3 45 23 C38.07 23 31.14 23 24 23 C24 78.44 24 133.88 24 191 C23.67 191 23.34 191 23 191 C23 135.56 23 80.12 23 23 C15.41 23 7.82 23 0 23 C0 15.41 0 7.82 0 0 Z " fill="#151515" transform="translate(10,217)"/>
<path d="M0 0 C9.9 0 19.8 0 30 0 C30 7.59 30 15.18 30 23 C20.1 23 10.2 23 0 23 C0 15.41 0 7.82 0 0 Z " fill="#010101" transform="translate(171,56)"/>
<path d="M0 0 C7.59 0 15.18 0 23 0 C23 7.59 23 15.18 23 23 C15.41 23 7.82 23 0 23 C0 15.41 0 7.82 0 0 Z " fill="#060606" transform="translate(316,194)"/>
<path d="M0 0 C7.59 0 15.18 0 23 0 C23 7.59 23 15.18 23 23 C15.41 23 7.82 23 0 23 C0 15.41 0 7.82 0 0 Z " fill="#060606" transform="translate(33,194)"/>
<path d="M0 0 C7.59 0 15.18 0 23 0 C23 7.59 23 15.18 23 23 C15.41 23 7.82 23 0 23 C0 15.41 0 7.82 0 0 Z " fill="#050505" transform="translate(56,171)"/>
<path d="M0 0 C7.59 0 15.18 0 23 0 C23 7.59 23 15.18 23 23 C15.41 23 7.82 23 0 23 C0 15.41 0 7.82 0 0 Z " fill="#040404" transform="translate(79,148)"/>
<path d="M0 0 C7.59 0 15.18 0 23 0 C23 7.59 23 15.18 23 23 C15.41 23 7.82 23 0 23 C0 15.41 0 7.82 0 0 Z " fill="#040404" transform="translate(102,125)"/>
<path d="M0 0 C7.59 0 15.18 0 23 0 C23 7.59 23 15.18 23 23 C15.41 23 7.82 23 0 23 C0 15.41 0 7.82 0 0 Z " fill="#050505" transform="translate(125,102)"/>
<path d="M0 0 C7.59 0 15.18 0 23 0 C23 7.59 23 15.18 23 23 C15.41 23 7.82 23 0 23 C0 15.41 0 7.82 0 0 Z " fill="#060606" transform="translate(201,79)"/>
<path d="M0 0 C7.59 0 15.18 0 23 0 C23 7.59 23 15.18 23 23 C15.41 23 7.82 23 0 23 C0 15.41 0 7.82 0 0 Z " fill="#060606" transform="translate(148,79)"/>
</svg>
