<?xml version="1.0" encoding="UTF-8"?>
<!-- Generator: visioncortex VTracer 0.6.4 -->
<svg version="1.1" xmlns="http://www.w3.org/2000/svg" width="476" height="402">
<path d="M0 0 C157.08 0 314.16 0 476 0 C476 132.66 476 265.32 476 402 C318.92 402 161.84 402 0 402 C0 269.34 0 136.68 0 0 Z " fill="#FEFEFE" transform="translate(0,0)"/>
<path d="M0 0 C40.26 0 80.52 0 122 0 C122 7.59 122 15.18 122 23 C137.18 23 152.36 23 168 23 C168 30.59 168 38.18 168 46 C175.59 46 183.18 46 191 46 C191 53.59 191 61.18 191 69 C198.59 69 206.18 69 214 69 C214 79.23 214 89.46 214 100 C221.59 100 229.18 100 237 100 C237 142.9 237 185.8 237 230 C229.41 230 221.82 230 214 230 C214 239.9 214 249.8 214 260 C206.41 260 198.82 260 191 260 C191 267.59 191 275.18 191 283 C183.41 283 175.82 283 168 283 C168 290.59 168 298.18 168 306 C152.82 306 137.64 306 122 306 C122 313.59 122 321.18 122 329 C104.51 329 87.02 329 69 329 C69 336.59 69 344.18 69 352 C23.46 352 -22.08 352 -69 352 C-69 344.41 -69 336.82 -69 329 C-61.41 329 -53.82 329 -46 329 C-46 321.41 -46 313.82 -46 306 C-38.41 306 -30.82 306 -23 306 C-23 298.41 -23 290.82 -23 283 C-38.18 283 -53.36 283 -69 283 C-69 275.41 -69 267.82 -69 260 C-76.59 260 -84.18 260 -92 260 C-92 250.1 -92 240.2 -92 230 C-99.59 230 -107.18 230 -115 230 C-115 187.1 -115 144.2 -115 100 C-107.41 100 -99.82 100 -92 100 C-92 89.77 -92 79.54 -92 69 C-84.41 69 -76.82 69 -69 69 C-69 61.41 -69 53.82 -69 46 C-61.41 46 -53.82 46 -46 46 C-46 38.41 -46 30.82 -46 23 C-30.82 23 -15.64 23 0 23 C0 15.41 0 7.82 0 0 Z " fill="#000000" transform="translate(158,17)"/>
<path d="M0 0 C9.9 0 19.8 0 30 0 C30 37.62 30 75.24 30 114 C20.1 114 10.2 114 0 114 C0 76.38 0 38.76 0 0 Z " fill="#FEFEFE" transform="translate(204,140)"/>
<path d="M0 0 C9.9 0 19.8 0 30 0 C30 9.9 30 19.8 30 30 C20.1 30 10.2 30 0 30 C0 20.1 0 10.2 0 0 Z " fill="#FEFEFE" transform="translate(204,86)"/>
</svg>
