<?xml version="1.0" encoding="UTF-8"?>
<!-- Generator: visioncortex VTracer 0.6.4 -->
<svg version="1.1" xmlns="http://www.w3.org/2000/svg" width="436" height="409">
<path d="M0 0 C143.88 0 287.76 0 436 0 C436 134.97 436 269.94 436 409 C292.12 409 148.24 409 0 409 C0 274.03 0 139.06 0 0 Z " fill="#FEFEFE" transform="translate(0,0)"/>
<path d="M0 0 C40.26 0 80.52 0 122 0 C122 7.59 122 15.18 122 23 C137.18 23 152.36 23 168 23 C168 30.59 168 38.18 168 46 C175.59 46 183.18 46 191 46 C191 56.23 191 66.46 191 77 C198.26 77 205.52 77 213 77 C213 119.57 213 162.14 213 206 C205.74 206 198.48 206 191 206 C191 216.23 191 226.46 191 237 C183.41 237 175.82 237 168 237 C168 244.59 168 252.18 168 260 C152.82 260 137.64 260 122 260 C122 267.59 122 275.18 122 283 C104.51 283 87.02 283 69 283 C69 290.59 69 298.18 69 306 C31.05 306 -6.9 306 -46 306 C-46 298.41 -46 290.82 -46 283 C-38.41 283 -30.82 283 -23 283 C-23 275.41 -23 267.82 -23 260 C-15.41 260 -7.82 260 0 260 C0 252.41 0 244.82 0 237 C-15.18 237 -30.36 237 -46 237 C-46 229.41 -46 221.82 -46 214 C-53.59 214 -61.18 214 -69 214 C-69 203.77 -69 193.54 -69 183 C-76.26 183 -83.52 183 -91 183 C-91 148.02 -91 113.04 -91 77 C-83.74 77 -76.48 77 -69 77 C-69 66.77 -69 56.54 -69 46 C-61.41 46 -53.82 46 -46 46 C-46 38.41 -46 30.82 -46 23 C-30.82 23 -15.64 23 0 23 C0 15.41 0 7.82 0 0 Z " fill="#FEFEFE" transform="translate(149,49)"/>
<path d="M0 0 C7.59 0 15.18 0 23 0 C23 7.59 23 15.18 23 23 C60.95 23 98.9 23 138 23 C138 30.59 138 38.18 138 46 C92.46 46 46.92 46 0 46 C0 30.82 0 15.64 0 0 Z " fill="#020202" transform="translate(80,332)"/>
<path d="M0 0 C9.9 0 19.8 0 30 0 C30 37.62 30 75.24 30 114 C20.1 114 10.2 114 0 114 C0 76.38 0 38.76 0 0 Z " fill="#000000" transform="translate(195,149)"/>
<path d="M0 0 C7.59 0 15.18 0 23 0 C23 42.57 23 85.14 23 129 C15.41 129 7.82 129 0 129 C0 86.43 0 43.86 0 0 Z " fill="#010101" transform="translate(363,126)"/>
<path d="M0 0 C40.26 0 80.52 0 122 0 C122 7.59 122 15.18 122 23 C81.74 23 41.48 23 0 23 C0 15.41 0 7.82 0 0 Z " fill="#010101" transform="translate(149,26)"/>
<path d="M0 0 C7.59 0 15.18 0 23 0 C23 34.98 23 69.96 23 106 C15.41 106 7.82 106 0 106 C0 71.02 0 36.04 0 0 Z " fill="#010101" transform="translate(34,126)"/>
<path d="M0 0 C15.18 0 30.36 0 46 0 C46 7.59 46 15.18 46 23 C38.41 23 30.82 23 23 23 C23 30.59 23 38.18 23 46 C15.41 46 7.82 46 0 46 C0 30.82 0 15.64 0 0 Z " fill="#040404" transform="translate(103,286)"/>
<path d="M0 0 C17.49 0 34.98 0 53 0 C53 7.59 53 15.18 53 23 C35.51 23 18.02 23 0 23 C0 15.41 0 7.82 0 0 Z " fill="#030303" transform="translate(218,332)"/>
<path d="M0 0 C15.18 0 30.36 0 46 0 C46 7.59 46 15.18 46 23 C30.82 23 15.64 23 0 23 C0 15.41 0 7.82 0 0 Z " fill="#020202" transform="translate(271,309)"/>
<path d="M0 0 C15.18 0 30.36 0 46 0 C46 7.59 46 15.18 46 23 C30.82 23 15.64 23 0 23 C0 15.41 0 7.82 0 0 Z " fill="#040404" transform="translate(271,49)"/>
<path d="M0 0 C15.18 0 30.36 0 46 0 C46 7.59 46 15.18 46 23 C30.82 23 15.64 23 0 23 C0 15.41 0 7.82 0 0 Z " fill="#040404" transform="translate(103,49)"/>
<path d="M0 0 C9.9 0 19.8 0 30 0 C30 9.9 30 19.8 30 30 C20.1 30 10.2 30 0 30 C0 20.1 0 10.2 0 0 Z " fill="#000000" transform="translate(195,95)"/>
<path d="M0 0 C7.59 0 15.18 0 23 0 C23 9.9 23 19.8 23 30 C15.41 30 7.82 30 0 30 C0 20.1 0 10.2 0 0 Z " fill="#030303" transform="translate(340,256)"/>
<path d="M0 0 C7.59 0 15.18 0 23 0 C23 9.9 23 19.8 23 30 C15.41 30 7.82 30 0 30 C0 20.1 0 10.2 0 0 Z " fill="#030303" transform="translate(57,233)"/>
<path d="M0 0 C7.59 0 15.18 0 23 0 C23 9.9 23 19.8 23 30 C15.41 30 7.82 30 0 30 C0 20.1 0 10.2 0 0 Z " fill="#040404" transform="translate(340,95)"/>
<path d="M0 0 C7.59 0 15.18 0 23 0 C23 9.9 23 19.8 23 30 C15.41 30 7.82 30 0 30 C0 20.1 0 10.2 0 0 Z " fill="#040404" transform="translate(57,95)"/>
<path d="M0 0 C7.59 0 15.18 0 23 0 C23 7.59 23 15.18 23 23 C15.41 23 7.82 23 0 23 C0 15.41 0 7.82 0 0 Z " fill="#050505" transform="translate(317,286)"/>
<path d="M0 0 C7.59 0 15.18 0 23 0 C23 7.59 23 15.18 23 23 C15.41 23 7.82 23 0 23 C0 15.41 0 7.82 0 0 Z " fill="#020202" transform="translate(80,263)"/>
<path d="M0 0 C7.59 0 15.18 0 23 0 C23 7.59 23 15.18 23 23 C15.41 23 7.82 23 0 23 C0 15.41 0 7.82 0 0 Z " fill="#030303" transform="translate(317,72)"/>
<path d="M0 0 C7.59 0 15.18 0 23 0 C23 7.59 23 15.18 23 23 C15.41 23 7.82 23 0 23 C0 15.41 0 7.82 0 0 Z " fill="#030303" transform="translate(80,72)"/>
</svg>
