<?xml version="1.0" encoding="UTF-8"?>
<!-- Generator: visioncortex VTracer 0.6.4 -->
<svg version="1.1" xmlns="http://www.w3.org/2000/svg" width="423" height="392">
<path d="M0 0 C139.59 0 279.18 0 423 0 C423 129.36 423 258.72 423 392 C283.41 392 143.82 392 0 392 C0 262.64 0 133.28 0 0 Z " fill="#FEFEFE" transform="translate(0,0)"/>
<path d="M0 0 C15.51 0 31.02 0 47 0 C47 15.51 47 31.02 47 47 C39.41 47 31.82 47 24 47 C24 54.59 24 62.18 24 70 C16.41 70 8.82 70 1 70 C1 93.1 1 116.2 1 140 C24.1 140 47.2 140 71 140 C71 132.41 71 124.82 71 117 C78.59 117 86.18 117 94 117 C94 109.41 94 101.82 94 94 C109.51 94 125.02 94 141 94 C141 109.51 141 125.02 141 141 C133.41 141 125.82 141 118 141 C118 148.59 118 156.18 118 164 C110.41 164 102.82 164 95 164 C95 171.92 95 179.84 95 188 C87.08 188 79.16 188 71 188 C71 195.59 71 203.18 71 211 C39.98 211 8.96 211 -23 211 C-23 203.41 -23 195.82 -23 188 C-30.92 188 -38.84 188 -47 188 C-47 180.08 -47 172.16 -47 164 C-54.59 164 -62.18 164 -70 164 C-70 132.98 -70 101.96 -70 70 C-62.41 70 -54.82 70 -47 70 C-47 62.08 -47 54.16 -47 46 C-39.08 46 -31.16 46 -23 46 C-23 38.41 -23 30.82 -23 23 C-15.41 23 -7.82 23 0 23 C0 15.41 0 7.82 0 0 Z " fill="#F6F6F6" transform="translate(95,161)"/>
<path d="M0 0 C31.02 0 62.04 0 94 0 C94 7.59 94 15.18 94 23 C101.92 23 109.84 23 118 23 C118 30.92 118 38.84 118 47 C125.59 47 133.18 47 141 47 C141 78.02 141 109.04 141 141 C133.41 141 125.82 141 118 141 C118 148.92 118 156.84 118 165 C110.08 165 102.16 165 94 165 C94 172.59 94 180.18 94 188 C86.41 188 78.82 188 71 188 C71 195.59 71 203.18 71 211 C55.49 211 39.98 211 24 211 C24 195.49 24 179.98 24 164 C31.59 164 39.18 164 47 164 C47 156.41 47 148.82 47 141 C54.59 141 62.18 141 70 141 C70 117.9 70 94.8 70 71 C46.9 71 23.8 71 0 71 C0 78.59 0 86.18 0 94 C-7.59 94 -15.18 94 -23 94 C-23 101.59 -23 109.18 -23 117 C-38.51 117 -54.02 117 -70 117 C-70 101.49 -70 85.98 -70 70 C-62.41 70 -54.82 70 -47 70 C-47 62.41 -47 54.82 -47 47 C-39.41 47 -31.82 47 -24 47 C-24 39.08 -24 31.16 -24 23 C-16.08 23 -8.16 23 0 23 C0 15.41 0 7.82 0 0 Z " fill="#F6F6F6" transform="translate(236,20)"/>
<path d="M0 0 C31.02 0 62.04 0 94 0 C94 7.59 94 15.18 94 23 C62.98 23 31.96 23 0 23 C0 15.41 0 7.82 0 0 Z " fill="#000000" transform="translate(72,349)"/>
<path d="M0 0 C7.59 0 15.18 0 23 0 C23 31.02 23 62.04 23 94 C15.41 94 7.82 94 0 94 C0 62.98 0 31.96 0 0 Z " fill="#000000" transform="translate(25,231)"/>
<path d="M0 0 C7.59 0 15.18 0 23 0 C23 31.02 23 62.04 23 94 C15.41 94 7.82 94 0 94 C0 62.98 0 31.96 0 0 Z " fill="#000000" transform="translate(354,67)"/>
<path d="M0 0 C31.02 0 62.04 0 94 0 C94 7.59 94 15.18 94 23 C62.98 23 31.96 23 0 23 C0 15.41 0 7.82 0 0 Z " fill="#000000" transform="translate(236,20)"/>
<path d="M0 0 C23.1 0 46.2 0 70 0 C70 7.59 70 15.18 70 23 C46.9 23 23.8 23 0 23 C0 15.41 0 7.82 0 0 Z " fill="#020202" transform="translate(96,302)"/>
<path d="M0 0 C15.51 0 31.02 0 47 0 C47 15.18 47 30.36 47 46 C39.41 46 31.82 46 24 46 C24 38.41 24 30.82 24 23 C16.08 23 8.16 23 0 23 C0 15.41 0 7.82 0 0 Z " fill="#010101" transform="translate(189,255)"/>
<path d="M0 0 C7.59 0 15.18 0 23 0 C23 23.1 23 46.2 23 70 C15.41 70 7.82 70 0 70 C0 46.9 0 23.8 0 0 Z " fill="#020202" transform="translate(72,231)"/>
<path d="M0 0 C7.59 0 15.18 0 23 0 C23 7.92 23 15.84 23 24 C30.59 24 38.18 24 46 24 C46 31.59 46 39.18 46 47 C30.82 47 15.64 47 0 47 C0 31.49 0 15.98 0 0 Z " fill="#010101" transform="translate(260,184)"/>
<path d="M0 0 C15.18 0 30.36 0 46 0 C46 15.51 46 31.02 46 47 C38.41 47 30.82 47 23 47 C23 39.08 23 31.16 23 23 C15.41 23 7.82 23 0 23 C0 15.41 0 7.82 0 0 Z " fill="#010101" transform="translate(96,161)"/>
<path d="M0 0 C7.59 0 15.18 0 23 0 C23 23.1 23 46.2 23 70 C15.41 70 7.82 70 0 70 C0 46.9 0 23.8 0 0 Z " fill="#020202" transform="translate(307,91)"/>
<path d="M0 0 C7.59 0 15.18 0 23 0 C23 7.59 23 15.18 23 23 C30.92 23 38.84 23 47 23 C47 30.59 47 38.18 47 46 C31.49 46 15.98 46 0 46 C0 30.82 0 15.64 0 0 Z " fill="#010101" transform="translate(166,91)"/>
<path d="M0 0 C23.1 0 46.2 0 70 0 C70 7.59 70 15.18 70 23 C46.9 23 23.8 23 0 23 C0 15.41 0 7.82 0 0 Z " fill="#020202" transform="translate(236,67)"/>
<path d="M0 0 C7.92 0 15.84 0 24 0 C24 7.92 24 15.84 24 24 C16.41 24 8.82 24 1 24 C1 31.59 1 39.18 1 47 C-6.92 47 -14.84 47 -23 47 C-23 39.08 -23 31.16 -23 23 C-15.41 23 -7.82 23 0 23 C0 15.41 0 7.82 0 0 Z " fill="#040404" transform="translate(142,231)"/>
<path d="M0 0 C7.92 0 15.84 0 24 0 C24 7.92 24 15.84 24 24 C16.41 24 8.82 24 1 24 C1 31.59 1 39.18 1 47 C-6.92 47 -14.84 47 -23 47 C-23 39.08 -23 31.16 -23 23 C-15.41 23 -7.82 23 0 23 C0 15.41 0 7.82 0 0 Z " fill="#040404" transform="translate(259,114)"/>
<path d="M0 0 C7.92 0 15.84 0 24 0 C24 7.92 24 15.84 24 24 C16.08 24 8.16 24 0 24 C0 16.08 0 8.16 0 0 Z " fill="#090909" transform="translate(189,184)"/>
<path d="M0 0 C7.92 0 15.84 0 24 0 C24 7.59 24 15.18 24 23 C16.08 23 8.16 23 0 23 C0 15.41 0 7.82 0 0 Z " fill="#060606" transform="translate(189,302)"/>
<path d="M0 0 C7.59 0 15.18 0 23 0 C23 7.92 23 15.84 23 24 C15.41 24 7.82 24 0 24 C0 16.08 0 8.16 0 0 Z " fill="#060606" transform="translate(307,184)"/>
<path d="M0 0 C7.59 0 15.18 0 23 0 C23 7.92 23 15.84 23 24 C15.41 24 7.82 24 0 24 C0 16.08 0 8.16 0 0 Z " fill="#F7F7F7" transform="translate(96,184)"/>
<path d="M0 0 C7.59 0 15.18 0 23 0 C23 7.92 23 15.84 23 24 C15.41 24 7.82 24 0 24 C0 16.08 0 8.16 0 0 Z " fill="#060606" transform="translate(72,184)"/>
<path d="M0 0 C7.92 0 15.84 0 24 0 C24 7.59 24 15.18 24 23 C16.08 23 8.16 23 0 23 C0 15.41 0 7.82 0 0 Z " fill="#F7F7F7" transform="translate(189,91)"/>
<path d="M0 0 C7.92 0 15.84 0 24 0 C24 7.59 24 15.18 24 23 C16.08 23 8.16 23 0 23 C0 15.41 0 7.82 0 0 Z " fill="#060606" transform="translate(189,67)"/>
<path d="M0 0 C7.59 0 15.18 0 23 0 C23 7.59 23 15.18 23 23 C15.41 23 7.82 23 0 23 C0 15.41 0 7.82 0 0 Z " fill="#010101" transform="translate(166,325)"/>
<path d="M0 0 C7.59 0 15.18 0 23 0 C23 7.59 23 15.18 23 23 C15.41 23 7.82 23 0 23 C0 15.41 0 7.82 0 0 Z " fill="#020202" transform="translate(49,325)"/>
<path d="M0 0 C7.59 0 15.18 0 23 0 C23 7.59 23 15.18 23 23 C15.41 23 7.82 23 0 23 C0 15.41 0 7.82 0 0 Z " fill="#FDFDFD" transform="translate(166,302)"/>
<path d="M0 0 C7.59 0 15.18 0 23 0 C23 7.59 23 15.18 23 23 C15.41 23 7.82 23 0 23 C0 15.41 0 7.82 0 0 Z " fill="#030303" transform="translate(166,278)"/>
<path d="M0 0 C7.59 0 15.18 0 23 0 C23 7.59 23 15.18 23 23 C15.41 23 7.82 23 0 23 C0 15.41 0 7.82 0 0 Z " fill="#010101" transform="translate(119,255)"/>
<path d="M0 0 C7.59 0 15.18 0 23 0 C23 7.59 23 15.18 23 23 C15.41 23 7.82 23 0 23 C0 15.41 0 7.82 0 0 Z " fill="#010101" transform="translate(166,208)"/>
<path d="M0 0 C7.59 0 15.18 0 23 0 C23 7.59 23 15.18 23 23 C15.41 23 7.82 23 0 23 C0 15.41 0 7.82 0 0 Z " fill="#030303" transform="translate(96,208)"/>
<path d="M0 0 C7.59 0 15.18 0 23 0 C23 7.59 23 15.18 23 23 C15.41 23 7.82 23 0 23 C0 15.41 0 7.82 0 0 Z " fill="#FDFDFD" transform="translate(72,208)"/>
<path d="M0 0 C7.59 0 15.18 0 23 0 C23 7.59 23 15.18 23 23 C15.41 23 7.82 23 0 23 C0 15.41 0 7.82 0 0 Z " fill="#010101" transform="translate(49,208)"/>
<path d="M0 0 C7.59 0 15.18 0 23 0 C23 7.59 23 15.18 23 23 C15.41 23 7.82 23 0 23 C0 15.41 0 7.82 0 0 Z " fill="#010101" transform="translate(330,161)"/>
<path d="M0 0 C7.59 0 15.18 0 23 0 C23 7.59 23 15.18 23 23 C15.41 23 7.82 23 0 23 C0 15.41 0 7.82 0 0 Z " fill="#FDFDFD" transform="translate(307,161)"/>
<path d="M0 0 C7.59 0 15.18 0 23 0 C23 7.59 23 15.18 23 23 C15.41 23 7.82 23 0 23 C0 15.41 0 7.82 0 0 Z " fill="#030303" transform="translate(283,161)"/>
<path d="M0 0 C7.59 0 15.18 0 23 0 C23 7.59 23 15.18 23 23 C15.41 23 7.82 23 0 23 C0 15.41 0 7.82 0 0 Z " fill="#010101" transform="translate(213,161)"/>
<path d="M0 0 C7.59 0 15.18 0 23 0 C23 7.59 23 15.18 23 23 C15.41 23 7.82 23 0 23 C0 15.41 0 7.82 0 0 Z " fill="#010101" transform="translate(260,114)"/>
<path d="M0 0 C7.59 0 15.18 0 23 0 C23 7.59 23 15.18 23 23 C15.41 23 7.82 23 0 23 C0 15.41 0 7.82 0 0 Z " fill="#030303" transform="translate(213,91)"/>
<path d="M0 0 C7.59 0 15.18 0 23 0 C23 7.59 23 15.18 23 23 C15.41 23 7.82 23 0 23 C0 15.41 0 7.82 0 0 Z " fill="#FDFDFD" transform="translate(213,67)"/>
<path d="M0 0 C7.59 0 15.18 0 23 0 C23 7.59 23 15.18 23 23 C15.41 23 7.82 23 0 23 C0 15.41 0 7.82 0 0 Z " fill="#020202" transform="translate(330,44)"/>
<path d="M0 0 C7.59 0 15.18 0 23 0 C23 7.59 23 15.18 23 23 C15.41 23 7.82 23 0 23 C0 15.41 0 7.82 0 0 Z " fill="#010101" transform="translate(213,44)"/>
<path d="M0 0 C7.26 0 14.52 0 22 0 C22 7.26 22 14.52 22 22 C14.74 22 7.48 22 0 22 C0 14.74 0 7.48 0 0 Z " fill="#FEFEFE" transform="translate(190,279)"/>
<path d="M0 0 C7.26 0 14.52 0 22 0 C22 7.26 22 14.52 22 22 C14.74 22 7.48 22 0 22 C0 14.74 0 7.48 0 0 Z " fill="#FEFEFE" transform="translate(284,185)"/>
<path d="M0 0 C0.33 0 0.66 0 1 0 C1 46.2 1 92.4 1 140 C31.69 140 62.38 140 94 140 C94 132.41 94 124.82 94 117 C101.92 117 109.84 117 118 117 C118 124.59 118 132.18 118 140 C125.59 140 133.18 140 141 140 C141 140.33 141 140.66 141 141 C94.8 141 48.6 141 1 141 C1 148.59 1 156.18 1 164 C0.67 164 0.34 164 0 164 C0 156.41 0 148.82 0 141 C-7.59 141 -15.18 141 -23 141 C-23 140.67 -23 140.34 -23 140 C-15.41 140 -7.82 140 0 140 C0 93.8 0 47.6 0 0 Z M95 118 C95 125.26 95 132.52 95 140 C102.26 140 109.52 140 117 140 C117 132.74 117 125.48 117 118 C109.74 118 102.48 118 95 118 Z " fill="#8E8E8E" transform="translate(95,161)"/>
<path d="M0 0 C0.33 0 0.66 0 1 0 C1 7.59 1 15.18 1 23 C8.59 23 16.18 23 24 23 C24 23.33 24 23.66 24 24 C16.41 24 8.82 24 1 24 C1 70.2 1 116.4 1 164 C0.67 164 0.34 164 0 164 C0 156.41 0 148.82 0 141 C-7.59 141 -15.18 141 -23 141 C-23 133.08 -23 125.16 -23 117 C-15.41 117 -7.82 117 0 117 C0 86.31 0 55.62 0 24 C-46.2 24 -92.4 24 -140 24 C-140 23.67 -140 23.34 -140 23 C-93.8 23 -47.6 23 0 23 C0 15.41 0 7.82 0 0 Z M-22 118 C-22 125.26 -22 132.52 -22 140 C-14.74 140 -7.48 140 0 140 C0 132.74 0 125.48 0 118 C-7.26 118 -14.52 118 -22 118 Z " fill="#8E8E8E" transform="translate(306,67)"/>
<path d="M0 0 C0.33 0 0.66 0 1 0 C1 7.59 1 15.18 1 23 C8.59 23 16.18 23 24 23 C24 23.33 24 23.66 24 24 C16.41 24 8.82 24 1 24 C1 31.59 1 39.18 1 47 C0.67 47 0.34 47 0 47 C0 39.41 0 31.82 0 24 C-7.59 24 -15.18 24 -23 24 C-23 23.67 -23 23.34 -23 23 C-15.41 23 -7.82 23 0 23 C0 15.41 0 7.82 0 0 Z " fill="#7F7F7F" transform="translate(142,231)"/>
<path d="M0 0 C0.33 0 0.66 0 1 0 C1 7.59 1 15.18 1 23 C8.59 23 16.18 23 24 23 C24 23.33 24 23.66 24 24 C16.41 24 8.82 24 1 24 C1 31.59 1 39.18 1 47 C0.67 47 0.34 47 0 47 C0 39.41 0 31.82 0 24 C-7.59 24 -15.18 24 -23 24 C-23 23.67 -23 23.34 -23 23 C-15.41 23 -7.82 23 0 23 C0 15.41 0 7.82 0 0 Z " fill="#7F7F7F" transform="translate(259,114)"/>
</svg>
