<?xml version="1.0" encoding="UTF-8"?>
<!-- Generator: visioncortex VTracer 0.6.4 -->
<svg version="1.1" xmlns="http://www.w3.org/2000/svg" width="454" height="402">
<path d="M0 0 C149.82 0 299.64 0 454 0 C454 132.66 454 265.32 454 402 C304.18 402 154.36 402 0 402 C0 269.34 0 136.68 0 0 Z " fill="#FEFEFE" transform="translate(0,0)"/>
<path d="M0 0 C15.51 0 31.02 0 47 0 C47 15.51 47 31.02 47 47 C39.41 47 31.82 47 24 47 C24 54.59 24 62.18 24 70 C16.08 70 8.16 70 0 70 C0 93.43 0 116.86 0 141 C23.43 141 46.86 141 71 141 C71 133.08 71 125.16 71 117 C78.59 117 86.18 117 94 117 C94 109.41 94 101.82 94 94 C109.51 94 125.02 94 141 94 C141 109.51 141 125.02 141 141 C133.41 141 125.82 141 118 141 C118 148.59 118 156.18 118 164 C110.08 164 102.16 164 94 164 C94 171.59 94 179.18 94 187 C86.41 187 78.82 187 71 187 C71 194.92 71 202.84 71 211 C39.98 211 8.96 211 -23 211 C-23 203.41 -23 195.82 -23 188 C-30.92 188 -38.84 188 -47 188 C-47 180.08 -47 172.16 -47 164 C-54.59 164 -62.18 164 -70 164 C-70 132.98 -70 101.96 -70 70 C-62.08 70 -54.16 70 -46 70 C-46 62.41 -46 54.82 -46 47 C-38.41 47 -30.82 47 -23 47 C-23 39.08 -23 31.16 -23 23 C-15.41 23 -7.82 23 0 23 C0 15.41 0 7.82 0 0 Z " fill="#010101" transform="translate(109,168)"/>
<path d="M0 0 C31.02 0 62.04 0 94 0 C94 7.59 94 15.18 94 23 C101.92 23 109.84 23 118 23 C118 30.92 118 38.84 118 47 C125.59 47 133.18 47 141 47 C141 78.02 141 109.04 141 141 C133.08 141 125.16 141 117 141 C117 148.59 117 156.18 117 164 C109.41 164 101.82 164 94 164 C94 171.92 94 179.84 94 188 C86.41 188 78.82 188 71 188 C71 195.59 71 203.18 71 211 C55.49 211 39.98 211 24 211 C24 195.49 24 179.98 24 164 C31.59 164 39.18 164 47 164 C47 156.41 47 148.82 47 141 C54.92 141 62.84 141 71 141 C71 117.57 71 94.14 71 70 C47.57 70 24.14 70 0 70 C0 77.92 0 85.84 0 94 C-7.59 94 -15.18 94 -23 94 C-23 101.59 -23 109.18 -23 117 C-38.51 117 -54.02 117 -70 117 C-70 101.49 -70 85.98 -70 70 C-62.41 70 -54.82 70 -47 70 C-47 62.41 -47 54.82 -47 47 C-39.08 47 -31.16 47 -23 47 C-23 39.41 -23 31.82 -23 24 C-15.41 24 -7.82 24 0 24 C0 16.08 0 8.16 0 0 Z " fill="#010101" transform="translate(250,27)"/>
<path d="M0 0 C7.92 0 15.84 0 24 0 C24 7.92 24 15.84 24 24 C16.41 24 8.82 24 1 24 C1 31.59 1 39.18 1 47 C-6.92 47 -14.84 47 -23 47 C-23 39.08 -23 31.16 -23 23 C-15.41 23 -7.82 23 0 23 C0 15.41 0 7.82 0 0 Z " fill="#040404" transform="translate(156,238)"/>
<path d="M0 0 C7.92 0 15.84 0 24 0 C24 7.92 24 15.84 24 24 C16.41 24 8.82 24 1 24 C1 31.59 1 39.18 1 47 C-6.92 47 -14.84 47 -23 47 C-23 39.08 -23 31.16 -23 23 C-15.41 23 -7.82 23 0 23 C0 15.41 0 7.82 0 0 Z " fill="#040404" transform="translate(273,121)"/>
<path d="M0 0 C7.92 0 15.84 0 24 0 C24 7.92 24 15.84 24 24 C16.08 24 8.16 24 0 24 C0 16.08 0 8.16 0 0 Z " fill="#090909" transform="translate(203,191)"/>
<path d="M0 0 C7.59 0 15.18 0 23 0 C23 7.59 23 15.18 23 23 C15.41 23 7.82 23 0 23 C0 15.41 0 7.82 0 0 Z " fill="#010101" transform="translate(133,262)"/>
<path d="M0 0 C7.59 0 15.18 0 23 0 C23 7.59 23 15.18 23 23 C15.41 23 7.82 23 0 23 C0 15.41 0 7.82 0 0 Z " fill="#010101" transform="translate(180,215)"/>
<path d="M0 0 C7.59 0 15.18 0 23 0 C23 7.59 23 15.18 23 23 C15.41 23 7.82 23 0 23 C0 15.41 0 7.82 0 0 Z " fill="#010101" transform="translate(227,168)"/>
<path d="M0 0 C7.59 0 15.18 0 23 0 C23 7.59 23 15.18 23 23 C15.41 23 7.82 23 0 23 C0 15.41 0 7.82 0 0 Z " fill="#010101" transform="translate(274,121)"/>
<path d="M0 0 C0.33 0 0.66 0 1 0 C1 7.59 1 15.18 1 23 C8.59 23 16.18 23 24 23 C24 23.33 24 23.66 24 24 C16.41 24 8.82 24 1 24 C1 31.59 1 39.18 1 47 C0.67 47 0.34 47 0 47 C0 39.41 0 31.82 0 24 C-7.59 24 -15.18 24 -23 24 C-23 23.67 -23 23.34 -23 23 C-15.41 23 -7.82 23 0 23 C0 15.41 0 7.82 0 0 Z " fill="#7F7F7F" transform="translate(156,238)"/>
<path d="M0 0 C0.33 0 0.66 0 1 0 C1 7.59 1 15.18 1 23 C8.59 23 16.18 23 24 23 C24 23.33 24 23.66 24 24 C16.41 24 8.82 24 1 24 C1 31.59 1 39.18 1 47 C0.67 47 0.34 47 0 47 C0 39.41 0 31.82 0 24 C-7.59 24 -15.18 24 -23 24 C-23 23.67 -23 23.34 -23 23 C-15.41 23 -7.82 23 0 23 C0 15.41 0 7.82 0 0 Z " fill="#7F7F7F" transform="translate(273,121)"/>
</svg>
