<?xml version="1.0" encoding="UTF-8"?>
<!-- Generator: visioncortex VTracer 0.6.4 -->
<svg version="1.1" xmlns="http://www.w3.org/2000/svg" width="465" height="434">
<path d="M0 0 C153.45 0 306.9 0 465 0 C465 143.22 465 286.44 465 434 C311.55 434 158.1 434 0 434 C0 290.78 0 147.56 0 0 Z " fill="#FEFEFE" transform="translate(0,0)"/>
<path d="M0 0 C7.59 0 15.18 0 23 0 C23 30.36 23 60.72 23 92 C68.54 92 114.08 92 161 92 C161 61.64 161 31.28 161 0 C168.59 0 176.18 0 184 0 C184 30.36 184 60.72 184 92 C193.9 92 203.8 92 214 92 C214 162.62 214 233.24 214 306 C133.48 306 52.96 306 -30 306 C-30 235.38 -30 164.76 -30 92 C-20.1 92 -10.2 92 0 92 C0 61.64 0 31.28 0 0 Z " fill="#000000" transform="translate(101,80)"/>
<path d="M0 0 C30.36 0 60.72 0 92 0 C92 7.59 92 15.18 92 23 C99.59 23 107.18 23 115 23 C115 60.95 115 98.9 115 138 C69.46 138 23.92 138 -23 138 C-23 100.05 -23 62.1 -23 23 C-15.41 23 -7.82 23 0 23 C0 15.41 0 7.82 0 0 Z " fill="#FDFDFD" transform="translate(147,34)"/>
<path d="M0 0 C15.18 0 30.36 0 46 0 C46 15.18 46 30.36 46 46 C41.05 46 36.1 46 31 46 C31 58.54 31 71.08 31 84 C25.72 84 20.44 84 15 84 C15 71.46 15 58.92 15 46 C10.05 46 5.1 46 0 46 C0 30.82 0 15.64 0 0 Z " fill="#F9F9F9" transform="translate(170,241)"/>
<path d="M0 0 C30.36 0 60.72 0 92 0 C92 7.59 92 15.18 92 23 C61.64 23 31.28 23 0 23 C0 15.41 0 7.82 0 0 Z " fill="#020202" transform="translate(147,34)"/>
<path d="M0 0 C7.59 0 15.18 0 23 0 C23 7.59 23 15.18 23 23 C15.41 23 7.82 23 0 23 C0 15.41 0 7.82 0 0 Z " fill="#040404" transform="translate(239,57)"/>
<path d="M0 0 C7.59 0 15.18 0 23 0 C23 7.59 23 15.18 23 23 C15.41 23 7.82 23 0 23 C0 15.41 0 7.82 0 0 Z " fill="#040404" transform="translate(124,57)"/>
</svg>
