<?xml version="1.0" encoding="UTF-8"?>
<!-- Generator: visioncortex VTracer 0.6.4 -->
<svg version="1.1" xmlns="http://www.w3.org/2000/svg" width="448" height="371">
<path d="M0 0 C147.84 0 295.68 0 448 0 C448 122.43 448 244.86 448 371 C300.16 371 152.32 371 0 371 C0 248.57 0 126.14 0 0 Z " fill="#FEFEFE" transform="translate(0,0)"/>
<path d="M0 0 C48.18 0 96.36 0 146 0 C146 7.59 146 15.18 146 23 C153.59 23 161.18 23 169 23 C169 30.59 169 38.18 169 46 C176.59 46 184.18 46 192 46 C192 53.59 192 61.18 192 69 C199.59 69 207.18 69 215 69 C215 117.18 215 165.36 215 215 C207.41 215 199.82 215 192 215 C192 222.26 192 229.52 192 237 C184.41 237 176.82 237 169 237 C169 244.59 169 252.18 169 260 C161.41 260 153.82 260 146 260 C146 267.59 146 275.18 146 283 C90.56 283 35.12 283 -22 283 C-22 290.59 -22 298.18 -22 306 C-29.59 306 -37.18 306 -45 306 C-45 313.59 -45 321.18 -45 329 C-52.59 329 -60.18 329 -68 329 C-68 336.59 -68 344.18 -68 352 C-83.18 352 -98.36 352 -114 352 C-114 344.41 -114 336.82 -114 329 C-121.59 329 -129.18 329 -137 329 C-137 313.82 -137 298.64 -137 283 C-129.41 283 -121.82 283 -114 283 C-114 275.41 -114 267.82 -114 260 C-106.41 260 -98.82 260 -91 260 C-91 252.41 -91 244.82 -91 237 C-83.41 237 -75.82 237 -68 237 C-68 181.56 -68 126.12 -68 69 C-60.41 69 -52.82 69 -45 69 C-45 61.41 -45 53.82 -45 46 C-37.41 46 -29.82 46 -22 46 C-22 38.41 -22 30.82 -22 23 C-14.74 23 -7.48 23 0 23 C0 15.41 0 7.82 0 0 Z " fill="#FCFCFC" transform="translate(174,14)"/>
<path d="M0 0 C32.67 0 65.34 0 99 0 C99 7.59 99 15.18 99 23 C106.59 23 114.18 23 122 23 C122 55.67 122 88.34 122 122 C114.41 122 106.82 122 99 122 C99 129.59 99 137.18 99 145 C66.33 145 33.66 145 0 145 C0 137.41 0 129.82 0 122 C-7.59 122 -15.18 122 -23 122 C-23 89.33 -23 56.66 -23 23 C-15.41 23 -7.82 23 0 23 C0 15.41 0 7.82 0 0 Z " fill="#FEFEFE" transform="translate(198,83)"/>
<path d="M0 0 C55.44 0 110.88 0 168 0 C168 7.59 168 15.18 168 23 C112.56 23 57.12 23 0 23 C0 15.41 0 7.82 0 0 Z " fill="#030303" transform="translate(152,274)"/>
<path d="M0 0 C7.59 0 15.18 0 23 0 C23 55.44 23 110.88 23 168 C15.41 168 7.82 168 0 168 C0 112.56 0 57.12 0 0 Z " fill="#030303" transform="translate(106,83)"/>
<path d="M0 0 C7.59 0 15.18 0 23 0 C23 47.85 23 95.7 23 145 C15.41 145 7.82 145 0 145 C0 97.15 0 49.3 0 0 Z " fill="#010101" transform="translate(366,83)"/>
<path d="M0 0 C47.85 0 95.7 0 145 0 C145 7.59 145 15.18 145 23 C97.15 23 49.3 23 0 23 C0 15.41 0 7.82 0 0 Z " fill="#010101" transform="translate(175,14)"/>
<path d="M0 0 C32.67 0 65.34 0 99 0 C99 7.59 99 15.18 99 23 C66.33 23 33.66 23 0 23 C0 15.41 0 7.82 0 0 Z " fill="#030303" transform="translate(198,228)"/>
<path d="M0 0 C7.59 0 15.18 0 23 0 C23 32.67 23 65.34 23 99 C15.41 99 7.82 99 0 99 C0 66.33 0 33.66 0 0 Z " fill="#010101" transform="translate(320,106)"/>
<path d="M0 0 C7.59 0 15.18 0 23 0 C23 32.67 23 65.34 23 99 C15.41 99 7.82 99 0 99 C0 66.33 0 33.66 0 0 Z " fill="#030303" transform="translate(152,106)"/>
<path d="M0 0 C32.67 0 65.34 0 99 0 C99 7.59 99 15.18 99 23 C66.33 23 33.66 23 0 23 C0 15.41 0 7.82 0 0 Z " fill="#010101" transform="translate(198,60)"/>
<path d="M0 0 C15.18 0 30.36 0 46 0 C46 7.59 46 15.18 46 23 C30.82 23 15.64 23 0 23 C0 15.41 0 7.82 0 0 Z " fill="#030303" transform="translate(60,343)"/>
<path d="M0 0 C7.59 0 15.18 0 23 0 C23 15.18 23 30.36 23 46 C15.41 46 7.82 46 0 46 C0 30.82 0 15.64 0 0 Z " fill="#030303" transform="translate(37,297)"/>
<path d="M0 0 C7.59 0 15.18 0 23 0 C23 7.59 23 15.18 23 23 C15.41 23 7.82 23 0 23 C0 15.41 0 7.82 0 0 Z " fill="#060606" transform="translate(106,320)"/>
<path d="M0 0 C7.59 0 15.18 0 23 0 C23 7.59 23 15.18 23 23 C15.41 23 7.82 23 0 23 C0 15.41 0 7.82 0 0 Z " fill="#020202" transform="translate(129,297)"/>
<path d="M0 0 C7.59 0 15.18 0 23 0 C23 7.59 23 15.18 23 23 C15.41 23 7.82 23 0 23 C0 15.41 0 7.82 0 0 Z " fill="#060606" transform="translate(60,274)"/>
<path d="M0 0 C7.59 0 15.18 0 23 0 C23 7.59 23 15.18 23 23 C15.41 23 7.82 23 0 23 C0 15.41 0 7.82 0 0 Z " fill="#020202" transform="translate(320,251)"/>
<path d="M0 0 C7.59 0 15.18 0 23 0 C23 7.59 23 15.18 23 23 C15.41 23 7.82 23 0 23 C0 15.41 0 7.82 0 0 Z " fill="#020202" transform="translate(83,251)"/>
<path d="M0 0 C7.59 0 15.18 0 23 0 C23 7.59 23 15.18 23 23 C15.41 23 7.82 23 0 23 C0 15.41 0 7.82 0 0 Z " fill="#060606" transform="translate(297,205)"/>
<path d="M0 0 C7.59 0 15.18 0 23 0 C23 7.59 23 15.18 23 23 C15.41 23 7.82 23 0 23 C0 15.41 0 7.82 0 0 Z " fill="#050505" transform="translate(175,205)"/>
<path d="M0 0 C7.59 0 15.18 0 23 0 C23 7.59 23 15.18 23 23 C15.41 23 7.82 23 0 23 C0 15.41 0 7.82 0 0 Z " fill="#070707" transform="translate(297,83)"/>
<path d="M0 0 C7.59 0 15.18 0 23 0 C23 7.59 23 15.18 23 23 C15.41 23 7.82 23 0 23 C0 15.41 0 7.82 0 0 Z " fill="#060606" transform="translate(175,83)"/>
<path d="M0 0 C7.59 0 15.18 0 23 0 C23 7.59 23 15.18 23 23 C15.41 23 7.82 23 0 23 C0 15.41 0 7.82 0 0 Z " fill="#040404" transform="translate(343,60)"/>
<path d="M0 0 C7.59 0 15.18 0 23 0 C23 7.59 23 15.18 23 23 C15.41 23 7.82 23 0 23 C0 15.41 0 7.82 0 0 Z " fill="#020202" transform="translate(129,60)"/>
<path d="M0 0 C7.59 0 15.18 0 23 0 C23 7.59 23 15.18 23 23 C15.41 23 7.82 23 0 23 C0 15.41 0 7.82 0 0 Z " fill="#040404" transform="translate(320,37)"/>
<path d="M0 0 C7.59 0 15.18 0 23 0 C23 7.26 23 14.52 23 22 C15.41 22 7.82 22 0 22 C0 14.74 0 7.48 0 0 Z " fill="#030303" transform="translate(343,229)"/>
<path d="M0 0 C7.26 0 14.52 0 22 0 C22 7.59 22 15.18 22 23 C14.74 23 7.48 23 0 23 C0 15.41 0 7.82 0 0 Z " fill="#030303" transform="translate(152,37)"/>
</svg>
