<?xml version="1.0" encoding="UTF-8"?>
<!-- Generator: visioncortex VTracer 0.6.4 -->
<svg version="1.1" xmlns="http://www.w3.org/2000/svg" width="445" height="393">
<path d="M0 0 C146.85 0 293.7 0 445 0 C445 129.69 445 259.38 445 393 C298.15 393 151.3 393 0 393 C0 263.31 0 133.62 0 0 Z " fill="#FEFEFE" transform="translate(0,0)"/>
<path d="M0 0 C47.85 0 95.7 0 145 0 C145 7.59 145 15.18 145 23 C152.59 23 160.18 23 168 23 C168 30.59 168 38.18 168 46 C175.59 46 183.18 46 191 46 C191 53.59 191 61.18 191 69 C198.59 69 206.18 69 214 69 C214 116.85 214 164.7 214 214 C206.41 214 198.82 214 191 214 C191 221.59 191 229.18 191 237 C183.41 237 175.82 237 168 237 C168 244.59 168 252.18 168 260 C160.41 260 152.82 260 145 260 C145 267.59 145 275.18 145 283 C89.56 283 34.12 283 -23 283 C-23 290.59 -23 298.18 -23 306 C-30.59 306 -38.18 306 -46 306 C-46 313.59 -46 321.18 -46 329 C-53.59 329 -61.18 329 -69 329 C-69 336.59 -69 344.18 -69 352 C-84.18 352 -99.36 352 -115 352 C-115 344.41 -115 336.82 -115 329 C-122.59 329 -130.18 329 -138 329 C-138 313.82 -138 298.64 -138 283 C-130.41 283 -122.82 283 -115 283 C-115 275.41 -115 267.82 -115 260 C-107.41 260 -99.82 260 -92 260 C-92 252.41 -92 244.82 -92 237 C-84.41 237 -76.82 237 -69 237 C-69 181.56 -69 126.12 -69 69 C-61.41 69 -53.82 69 -46 69 C-46 61.41 -46 53.82 -46 46 C-38.41 46 -30.82 46 -23 46 C-23 38.41 -23 30.82 -23 23 C-15.41 23 -7.82 23 0 23 C0 15.41 0 7.82 0 0 Z " fill="#010101" transform="translate(181,25)"/>
<path d="M0 0 C32.67 0 65.34 0 99 0 C99 7.59 99 15.18 99 23 C106.59 23 114.18 23 122 23 C122 30.59 122 38.18 122 46 C129.59 46 137.18 46 145 46 C145 78.67 145 111.34 145 145 C137.41 145 129.82 145 122 145 C122 152.59 122 160.18 122 168 C114.41 168 106.82 168 99 168 C99 175.59 99 183.18 99 191 C66.33 191 33.66 191 0 191 C0 183.41 0 175.82 0 168 C-7.59 168 -15.18 168 -23 168 C-23 160.41 -23 152.82 -23 145 C-30.59 145 -38.18 145 -46 145 C-46 112.33 -46 79.66 -46 46 C-38.41 46 -30.82 46 -23 46 C-23 38.41 -23 30.82 -23 23 C-15.41 23 -7.82 23 0 23 C0 15.41 0 7.82 0 0 Z " fill="#FEFEFE" transform="translate(204,71)"/>
</svg>
