<?xml version="1.0" encoding="UTF-8"?>
<!-- Generator: visioncortex VTracer 0.6.4 -->
<svg version="1.1" xmlns="http://www.w3.org/2000/svg" width="512" height="512">
<path d="M0 0 C50.16 0 100.32 0 152 0 C152 9.9 152 19.8 152 30 C161.9 30 171.8 30 182 30 C182 49.8 182 69.6 182 90 C211.7 90 241.4 90 272 90 C272 99.9 272 109.8 272 120 C281.9 120 291.8 120 302 120 C302 129.9 302 139.8 302 150 C311.9 150 321.8 150 332 150 C332 159.9 332 169.8 332 180 C341.9 180 351.8 180 362 180 C362 199.8 362 219.6 362 240 C371.9 240 381.8 240 392 240 C392 319.86 392 399.72 392 482 C382.1 482 372.2 482 362 482 C362 491.9 362 501.8 362 512 C202.94 512 43.88 512 -120 512 C-120 491.87 -120 471.74 -120 451 C-110.1 451 -100.2 451 -90 451 C-90 441.1 -90 431.2 -90 421 C-80.1 421 -70.2 421 -60 421 C-60 411.43 -60 401.86 -60 392 C-69.9 392 -79.8 392 -90 392 C-90 371.87 -90 351.74 -90 331 C19.56 331 129.12 331 242 331 C242 351.13 242 371.26 242 392 C232.1 392 222.2 392 212 392 C212 401.57 212 411.14 212 421 C231.47 421 250.94 421 271 421 C271 361.6 271 302.2 271 241 C261.1 241 251.2 241 241 241 C241 221.2 241 201.4 241 181 C221.53 181 202.06 181 182 181 C182 190.9 182 200.8 182 211 C172.1 211 162.2 211 152 211 C152.012 215.32 152.023 219.639 152.035 224.09 C152.042 227.525 152.047 230.96 152.052 234.396 C152.057 238.027 152.064 241.658 152.075 245.29 C152.086 248.785 152.092 252.279 152.095 255.774 C152.098 257.762 152.105 259.751 152.113 261.739 C152.113 263.541 152.113 263.541 152.114 265.379 C152.116 266.442 152.118 267.506 152.12 268.602 C152 271 152 271 151 272 C148.781 272.088 146.56 272.107 144.34 272.098 C143.124 272.095 141.909 272.093 140.656 272.09 C139.099 272.081 137.542 272.072 135.938 272.062 C131.008 272.042 126.079 272.021 121 272 C121 281.9 121 291.8 121 302 C90.97 302 60.94 302 30 302 C30 292.1 30 282.2 30 272 C20.1 272 10.2 272 0 272 C0 251.87 0 231.74 0 211 C-9.9 211 -19.8 211 -30 211 C-30 151.27 -30 91.54 -30 30 C-20.1 30 -10.2 30 0 30 C0 20.1 0 10.2 0 0 Z M1 31 C1 90.07 1 149.14 1 210 C50.5 210 100 210 151 210 C151 150.93 151 91.86 151 31 C101.5 31 52 31 1 31 Z M182 121 C182 130.57 182 140.14 182 150 C201.8 150 221.6 150 242 150 C242 159.9 242 169.8 242 180 C251.9 180 261.8 180 272 180 C272 199.8 272 219.6 272 240 C281.9 240 291.8 240 302 240 C302 300.06 302 360.12 302 422 C292.1 422 282.2 422 272 422 C272 431.9 272 441.8 272 452 C251.87 452 231.74 452 211 452 C211 442.1 211 432.2 211 422 C121.9 422 32.8 422 -59 422 C-59 431.9 -59 441.8 -59 452 C-68.9 452 -78.8 452 -89 452 C-89 461.57 -89 471.14 -89 481 C59.5 481 208 481 361 481 C361 401.8 361 322.6 361 241 C351.1 241 341.2 241 331 241 C331 221.2 331 201.4 331 181 C321.1 181 311.2 181 301 181 C301 171.1 301 161.2 301 151 C291.1 151 281.2 151 271 151 C271 141.1 271 131.2 271 121 C241.63 121 212.26 121 182 121 Z M-59 362 C-59 371.57 -59 381.14 -59 391 C30.1 391 119.2 391 211 391 C211 381.43 211 371.86 211 362 C121.9 362 32.8 362 -59 362 Z " fill="#000000" transform="translate(120,0)"/>
</svg>
