<?xml version="1.0" encoding="UTF-8"?>
<!-- Generator: visioncortex VTracer 0.6.4 -->
<svg version="1.1" xmlns="http://www.w3.org/2000/svg" width="479" height="420">
<path d="M0 0 C158.07 0 316.14 0 479 0 C479 138.6 479 277.2 479 420 C320.93 420 162.86 420 0 420 C0 281.4 0 142.8 0 0 Z " fill="#FEFEFE" transform="translate(0,0)"/>
<path d="M0 0 C45.54 0 91.08 0 138 0 C138 7.59 138 15.18 138 23 C150.54 23 163.08 23 176 23 C176 30.59 176 38.18 176 46 C183.59 46 191.18 46 199 46 C199 61.18 199 76.36 199 92 C153.46 92 107.92 92 61 92 C61 99.59 61 107.18 61 115 C53.41 115 45.82 115 38 115 C38 122.26 38 129.52 38 137 C30.41 137 22.82 137 15 137 C15 162.74 15 188.48 15 215 C22.59 215 30.18 215 38 215 C38 222.26 38 229.52 38 237 C45.59 237 53.18 237 61 237 C61 244.59 61 252.18 61 260 C106.54 260 152.08 260 199 260 C199 275.18 199 290.36 199 306 C191.41 306 183.82 306 176 306 C176 313.59 176 321.18 176 329 C163.46 329 150.92 329 138 329 C138 336.59 138 344.18 138 352 C92.46 352 46.92 352 0 352 C0 344.41 0 336.82 0 329 C-12.54 329 -25.08 329 -38 329 C-38 321.41 -38 313.82 -38 306 C-45.59 306 -53.18 306 -61 306 C-61 298.41 -61 290.82 -61 283 C-68.59 283 -76.18 283 -84 283 C-84 270.46 -84 257.92 -84 245 C-91.59 245 -99.18 245 -107 245 C-107 199.46 -107 153.92 -107 107 C-99.41 107 -91.82 107 -84 107 C-84 94.46 -84 81.92 -84 69 C-76.41 69 -68.82 69 -61 69 C-61 61.41 -61 53.82 -61 46 C-53.41 46 -45.82 46 -38 46 C-38 38.41 -38 30.82 -38 23 C-25.46 23 -12.92 23 0 23 C0 15.41 0 7.82 0 0 Z " fill="#000000" transform="translate(156,30)"/>
</svg>
