<?xml version="1.0" encoding="UTF-8"?>
<!-- Generator: visioncortex VTracer 0.6.4 -->
<svg version="1.1" xmlns="http://www.w3.org/2000/svg" width="459" height="432">
<path d="M0 0 C151.47 0 302.94 0 459 0 C459 142.56 459 285.12 459 432 C307.53 432 156.06 432 0 432 C0 289.44 0 146.88 0 0 Z " fill="#FEFEFE" transform="translate(0,0)"/>
<path d="M0 0 C45.54 0 91.08 0 138 0 C138 7.59 138 15.18 138 23 C150.54 23 163.08 23 176 23 C176 30.59 176 38.18 176 46 C138.05 46 100.1 46 61 46 C61 53.59 61 61.18 61 69 C53.41 69 45.82 69 38 69 C38 76.59 38 84.18 38 92 C30.41 92 22.82 92 15 92 C15 99.26 15 106.52 15 114 C7.41 114 -0.18 114 -8 114 C-8 139.74 -8 165.48 -8 192 C-0.41 192 7.18 192 15 192 C15 199.26 15 206.52 15 214 C22.59 214 30.18 214 38 214 C38 221.59 38 229.18 38 237 C45.59 237 53.18 237 61 237 C61 244.59 61 252.18 61 260 C98.95 260 136.9 260 176 260 C176 267.59 176 275.18 176 283 C163.46 283 150.92 283 138 283 C138 290.59 138 298.18 138 306 C92.46 306 46.92 306 0 306 C0 298.41 0 290.82 0 283 C-12.54 283 -25.08 283 -38 283 C-38 275.41 -38 267.82 -38 260 C-45.59 260 -53.18 260 -61 260 C-61 247.46 -61 234.92 -61 222 C-68.59 222 -76.18 222 -84 222 C-84 176.46 -84 130.92 -84 84 C-76.41 84 -68.82 84 -61 84 C-61 71.46 -61 58.92 -61 46 C-53.41 46 -45.82 46 -38 46 C-38 38.41 -38 30.82 -38 23 C-25.46 23 -12.92 23 0 23 C0 15.41 0 7.82 0 0 Z " fill="#FEFEFE" transform="translate(167,60)"/>
<path d="M0 0 C7.59 0 15.18 0 23 0 C23 7.59 23 15.18 23 23 C15.74 23 8.48 23 1 23 C1 30.59 1 38.18 1 46 C-6.59 46 -14.18 46 -22 46 C-22 71.08 -22 96.16 -22 122 C-14.41 122 -6.82 122 1 122 C1 129.59 1 137.18 1 145 C8.26 145 15.52 145 23 145 C23 152.59 23 160.18 23 168 C15.41 168 7.82 168 0 168 C0 160.41 0 152.82 0 145 C-7.59 145 -15.18 145 -23 145 C-23 137.74 -23 130.48 -23 123 C-30.59 123 -38.18 123 -46 123 C-46 97.26 -46 71.52 -46 45 C-38.41 45 -30.82 45 -23 45 C-23 37.74 -23 30.48 -23 23 C-15.41 23 -7.82 23 0 23 C0 15.41 0 7.82 0 0 Z " fill="#010101" transform="translate(205,129)"/>
<path d="M0 0 C45.54 0 91.08 0 138 0 C138 15.18 138 30.36 138 46 C130.41 46 122.82 46 115 46 C115 38.41 115 30.82 115 23 C77.05 23 39.1 23 0 23 C0 15.41 0 7.82 0 0 Z " fill="#040404" transform="translate(228,297)"/>
<path d="M0 0 C7.59 0 15.18 0 23 0 C23 15.18 23 30.36 23 46 C-22.54 46 -68.08 46 -115 46 C-115 38.41 -115 30.82 -115 23 C-77.05 23 -39.1 23 0 23 C0 15.41 0 7.82 0 0 Z " fill="#040404" transform="translate(343,83)"/>
<path d="M0 0 C45.54 0 91.08 0 138 0 C138 7.59 138 15.18 138 23 C92.46 23 46.92 23 0 23 C0 15.41 0 7.82 0 0 Z " fill="#020202" transform="translate(167,366)"/>
<path d="M0 0 C7.59 0 15.18 0 23 0 C23 45.54 23 91.08 23 138 C15.41 138 7.82 138 0 138 C0 92.46 0 46.92 0 0 Z " fill="#030303" transform="translate(60,144)"/>
<path d="M0 0 C45.54 0 91.08 0 138 0 C138 7.59 138 15.18 138 23 C92.46 23 46.92 23 0 23 C0 15.41 0 7.82 0 0 Z " fill="#020202" transform="translate(167,37)"/>
<path d="M0 0 C7.26 0 14.52 0 22 0 C22 25.08 22 50.16 22 76 C14.74 76 7.48 76 0 76 C0 50.92 0 25.84 0 0 Z " fill="#000000" transform="translate(160,175)"/>
<path d="M0 0 C12.54 0 25.08 0 38 0 C38 7.59 38 15.18 38 23 C25.46 23 12.92 23 0 23 C0 15.41 0 7.82 0 0 Z " fill="#030303" transform="translate(305,343)"/>
<path d="M0 0 C12.54 0 25.08 0 38 0 C38 7.59 38 15.18 38 23 C25.46 23 12.92 23 0 23 C0 15.41 0 7.82 0 0 Z " fill="#030303" transform="translate(129,343)"/>
<path d="M0 0 C7.59 0 15.18 0 23 0 C23 12.54 23 25.08 23 38 C15.41 38 7.82 38 0 38 C0 25.46 0 12.92 0 0 Z " fill="#020202" transform="translate(83,282)"/>
<path d="M0 0 C7.59 0 15.18 0 23 0 C23 12.54 23 25.08 23 38 C15.41 38 7.82 38 0 38 C0 25.46 0 12.92 0 0 Z " fill="#020202" transform="translate(83,106)"/>
<path d="M0 0 C12.54 0 25.08 0 38 0 C38 7.59 38 15.18 38 23 C25.46 23 12.92 23 0 23 C0 15.41 0 7.82 0 0 Z " fill="#030303" transform="translate(305,60)"/>
<path d="M0 0 C12.54 0 25.08 0 38 0 C38 7.59 38 15.18 38 23 C25.46 23 12.92 23 0 23 C0 15.41 0 7.82 0 0 Z " fill="#030303" transform="translate(129,60)"/>
<path d="M0 0 C7.59 0 15.18 0 23 0 C23 7.59 23 15.18 23 23 C15.41 23 7.82 23 0 23 C0 15.41 0 7.82 0 0 Z " fill="#050505" transform="translate(106,320)"/>
<path d="M0 0 C7.59 0 15.18 0 23 0 C23 7.59 23 15.18 23 23 C15.41 23 7.82 23 0 23 C0 15.41 0 7.82 0 0 Z " fill="#050505" transform="translate(106,83)"/>
<path d="M0 0 C7.26 0 14.52 0 22 0 C22 7.59 22 15.18 22 23 C14.74 23 7.48 23 0 23 C0 15.41 0 7.82 0 0 Z " fill="#010101" transform="translate(206,274)"/>
<path d="M0 0 C7.26 0 14.52 0 22 0 C22 7.26 22 14.52 22 22 C14.74 22 7.48 22 0 22 C0 14.74 0 7.48 0 0 Z " fill="#000000" transform="translate(183,252)"/>
<path d="M0 0 C7.26 0 14.52 0 22 0 C22 7.26 22 14.52 22 22 C14.74 22 7.48 22 0 22 C0 14.74 0 7.48 0 0 Z " fill="#000000" transform="translate(183,152)"/>
<path d="M0 0 C0.33 0 0.66 0 1 0 C1 15.18 1 30.36 1 46 C-6.59 46 -14.18 46 -22 46 C-22 71.08 -22 96.16 -22 122 C-14.41 122 -6.82 122 1 122 C1 137.18 1 152.36 1 168 C0.67 168 0.34 168 0 168 C0 153.15 0 138.3 0 123 C-7.26 123 -14.52 123 -22 123 C-22 130.26 -22 137.52 -22 145 C-22.33 145 -22.66 145 -23 145 C-23 137.74 -23 130.48 -23 123 C-30.59 123 -38.18 123 -46 123 C-46 97.26 -46 71.52 -46 45 C-38.41 45 -30.82 45 -23 45 C-23 37.74 -23 30.48 -23 23 C-22.67 23 -22.34 23 -22 23 C-22 30.26 -22 37.52 -22 45 C-14.74 45 -7.48 45 0 45 C0 30.15 0 15.3 0 0 Z M-45 46 C-45 71.08 -45 96.16 -45 122 C-37.74 122 -30.48 122 -23 122 C-23 96.92 -23 71.84 -23 46 C-30.26 46 -37.52 46 -45 46 Z " fill="#7B7B7B" transform="translate(205,129)"/>
</svg>
