<?xml version="1.0" encoding="UTF-8"?>
<!-- Generator: visioncortex VTracer 0.6.4 -->
<svg version="1.1" xmlns="http://www.w3.org/2000/svg" width="458" height="217">
<path d="M0 0 C151.14 0 302.28 0 458 0 C458 71.61 458 143.22 458 217 C306.86 217 155.72 217 0 217 C0 145.39 0 73.78 0 0 Z " fill="#FDFDFD" transform="translate(0,0)"/>
<path d="M0 0 C7.59 0 15.18 0 23 0 C23 30.36 23 60.72 23 92 C30.59 92 38.18 92 46 92 C46 71.54 46 51.08 46 30 C53.59 30 61.18 30 69 30 C69 50.13 69 70.26 69 91 C76.59 91 84.18 91 92 91 C92 60.97 92 30.94 92 0 C99.59 0 107.18 0 115 0 C115 37.62 115 75.24 115 114 C77.05 114 39.1 114 0 114 C0 76.38 0 38.76 0 0 Z " fill="#010101" transform="translate(262,56)"/>
<path d="M0 0 C25.41 0 50.82 0 77 0 C77 7.59 77 15.18 77 23 C59.18 23 41.36 23 23 23 C23 30.59 23 38.18 23 46 C40.49 46 57.98 46 76 46 C76 53.26 76 60.52 76 68 C58.51 68 41.02 68 23 68 C23 75.59 23 83.18 23 91 C40.82 91 58.64 91 77 91 C77 98.59 77 106.18 77 114 C51.59 114 26.18 114 0 114 C0 76.38 0 38.76 0 0 Z " fill="#030303" transform="translate(163,56)"/>
<path d="M0 0 C7.59 0 15.18 0 23 0 C23 7.59 23 15.18 23 23 C30.59 23 38.18 23 46 23 C46 30.26 46 37.52 46 45 C53.59 45 61.18 45 69 45 C69 52.59 69 60.18 69 68 C61.41 68 53.82 68 46 68 C46 60.74 46 53.48 46 46 C38.41 46 30.82 46 23 46 C23 68.44 23 90.88 23 114 C15.41 114 7.82 114 0 114 C0 76.38 0 38.76 0 0 Z " fill="#000000" transform="translate(25,56)"/>
<path d="M0 0 C7.59 0 15.18 0 23 0 C23 37.62 23 75.24 23 114 C15.41 114 7.82 114 0 114 C0 106.41 0 98.82 0 91 C-7.59 91 -15.18 91 -23 91 C-23 83.74 -23 76.48 -23 69 C-15.41 69 -7.82 69 0 69 C0 46.23 0 23.46 0 0 Z " fill="#010101" transform="translate(117,56)"/>
<path d="M0 0 C15.51 0 31.02 0 47 0 C47 7.59 47 15.18 47 23 C39.41 23 31.82 23 24 23 C24 15.74 24 8.48 24 1 C16.41 1 8.82 1 1 1 C1 23.44 1 45.88 1 69 C0.67 69 0.34 69 0 69 C0 46.23 0 23.46 0 0 Z " fill="#0E0E0E" transform="translate(47,101)"/>
</svg>
