<?xml version="1.0" encoding="UTF-8"?>
<!-- Generator: visioncortex VTracer 0.6.4 -->
<svg version="1.1" xmlns="http://www.w3.org/2000/svg" width="340" height="423">
<path d="M0 0 C112.2 0 224.4 0 340 0 C340 139.59 340 279.18 340 423 C227.8 423 115.6 423 0 423 C0 283.41 0 143.82 0 0 Z " fill="#F8F8F8" transform="translate(0,0)"/>
<path d="M0 0 C112.2 0 224.4 0 340 0 C340 139.59 340 279.18 340 423 C227.8 423 115.6 423 0 423 C0 283.41 0 143.82 0 0 Z M56 40 C56 47.59 56 55.18 56 63 C48.74 63 41.48 63 34 63 C34 163.98 34 264.96 34 369 C41.26 369 48.52 369 56 369 C56 376.59 56 384.18 56 392 C122 392 188 392 256 392 C256 384.41 256 376.82 256 369 C263.26 369 270.52 369 278 369 C278 268.02 278 167.04 278 63 C270.74 63 263.48 63 256 63 C256 55.41 256 47.82 256 40 C190 40 124 40 56 40 Z " fill="#FDFDFD" transform="translate(0,0)"/>
<path d="M0 0 C35.64 0 71.28 0 108 0 C108 55.44 108 110.88 108 168 C72.36 168 36.72 168 0 168 C0 112.56 0 57.12 0 0 Z " fill="#FDFDFD" transform="translate(102,109)"/>
<path d="M0 0 C50.16 0 100.32 0 152 0 C152 70.62 152 141.24 152 214 C101.84 214 51.68 214 0 214 C0 143.38 0 72.76 0 0 Z M22 23 C22 78.44 22 133.88 22 191 C57.64 191 93.28 191 130 191 C130 135.56 130 80.12 130 23 C94.36 23 58.72 23 22 23 Z " fill="#000000" transform="translate(80,86)"/>
<path d="M0 0 C7.26 0 14.52 0 22 0 C22 100.98 22 201.96 22 306 C14.74 306 7.48 306 0 306 C0 205.02 0 104.04 0 0 Z " fill="#000000" transform="translate(256,63)"/>
<path d="M0 0 C7.26 0 14.52 0 22 0 C22 100.98 22 201.96 22 306 C14.74 306 7.48 306 0 306 C0 205.02 0 104.04 0 0 Z " fill="#000000" transform="translate(34,63)"/>
<path d="M0 0 C65.34 0 130.68 0 198 0 C198 7.59 198 15.18 198 23 C132.66 23 67.32 23 0 23 C0 15.41 0 7.82 0 0 Z " fill="#010101" transform="translate(57,369)"/>
<path d="M0 0 C65.34 0 130.68 0 198 0 C198 7.59 198 15.18 198 23 C132.66 23 67.32 23 0 23 C0 15.41 0 7.82 0 0 Z " fill="#010101" transform="translate(57,40)"/>
<path d="M0 0 C9.9 0 19.8 0 30 0 C30 7.59 30 15.18 30 23 C20.1 23 10.2 23 0 23 C0 15.41 0 7.82 0 0 Z " fill="#010101" transform="translate(141,323)"/>
</svg>
