<?xml version="1.0" encoding="UTF-8"?>
<!-- Generator: visioncortex VTracer 0.6.4 -->
<svg version="1.1" xmlns="http://www.w3.org/2000/svg" width="382" height="413">
<path d="M0 0 C126.06 0 252.12 0 382 0 C382 136.29 382 272.58 382 413 C255.94 413 129.88 413 0 413 C0 276.71 0 140.42 0 0 Z " fill="#010101" transform="translate(0,0)"/>
<path d="M0 0 C126.06 0 252.12 0 382 0 C382 136.29 382 272.58 382 413 C255.94 413 129.88 413 0 413 C0 276.71 0 140.42 0 0 Z M78 28 C78 35.59 78 43.18 78 51 C70.74 51 63.48 51 56 51 C56 151.98 56 252.96 56 357 C63.26 357 70.52 357 78 357 C78 364.59 78 372.18 78 380 C144 380 210 380 278 380 C278 372.41 278 364.82 278 357 C285.26 357 292.52 357 300 357 C300 256.02 300 155.04 300 51 C292.74 51 285.48 51 278 51 C278 43.41 278 35.82 278 28 C212 28 146 28 78 28 Z " fill="#FEFEFE" transform="translate(0,0)"/>
<path d="M0 0 C50.16 0 100.32 0 152 0 C152 70.62 152 141.24 152 214 C101.84 214 51.68 214 0 214 C0 143.38 0 72.76 0 0 Z " fill="#FEFEFE" transform="translate(102,74)"/>
<path d="M0 0 C9.9 0 19.8 0 30 0 C30 7.59 30 15.18 30 23 C20.1 23 10.2 23 0 23 C0 15.41 0 7.82 0 0 Z " fill="#FDFDFD" transform="translate(163,311)"/>
</svg>
