<?xml version="1.0" encoding="UTF-8"?>
<!-- Generator: visioncortex VTracer 0.6.4 -->
<svg version="1.1" xmlns="http://www.w3.org/2000/svg" width="374" height="423">
<path d="M0 0 C123.42 0 246.84 0 374 0 C374 139.59 374 279.18 374 423 C250.58 423 127.16 423 0 423 C0 283.41 0 143.82 0 0 Z " fill="#FEFEFE" transform="translate(0,0)"/>
<path d="M0 0 C40.26 0 80.52 0 122 0 C122 7.59 122 15.18 122 23 C137.18 23 152.36 23 168 23 C168 30.59 168 38.18 168 46 C175.59 46 183.18 46 191 46 C191 61.18 191 76.36 191 92 C198.59 92 206.18 92 214 92 C214 124.67 214 157.34 214 191 C206.41 191 198.82 191 191 191 C191 206.18 191 221.36 191 237 C183.41 237 175.82 237 168 237 C168 244.59 168 252.18 168 260 C160.41 260 152.82 260 145 260 C145 267.59 145 275.18 145 283 C137.41 283 129.82 283 122 283 C122 290.59 122 298.18 122 306 C114.41 306 106.82 306 99 306 C99 313.59 99 321.18 99 329 C91.41 329 83.82 329 76 329 C76 336.59 76 344.18 76 352 C66.1 352 56.2 352 46 352 C46 344.41 46 336.82 46 329 C38.41 329 30.82 329 23 329 C23 321.41 23 313.82 23 306 C15.41 306 7.82 306 0 306 C0 298.41 0 290.82 0 283 C-7.59 283 -15.18 283 -23 283 C-23 275.41 -23 267.82 -23 260 C-30.59 260 -38.18 260 -46 260 C-46 252.41 -46 244.82 -46 237 C-53.59 237 -61.18 237 -69 237 C-69 221.82 -69 206.64 -69 191 C-76.59 191 -84.18 191 -92 191 C-92 158.33 -92 125.66 -92 92 C-84.41 92 -76.82 92 -69 92 C-69 76.82 -69 61.64 -69 46 C-61.41 46 -53.82 46 -46 46 C-46 38.41 -46 30.82 -46 23 C-30.82 23 -15.64 23 0 23 C0 15.41 0 7.82 0 0 Z " fill="#FDFDFD" transform="translate(118,25)"/>
<path d="M0 0 C25.08 0 50.16 0 76 0 C76 7.59 76 15.18 76 23 C83.59 23 91.18 23 99 23 C99 48.08 99 73.16 99 99 C91.41 99 83.82 99 76 99 C76 106.59 76 114.18 76 122 C50.92 122 25.84 122 0 122 C0 114.41 0 106.82 0 99 C-7.59 99 -15.18 99 -23 99 C-23 73.92 -23 48.84 -23 23 C-15.41 23 -7.82 23 0 23 C0 15.41 0 7.82 0 0 Z " fill="#FEFEFE" transform="translate(141,94)"/>
<path d="M0 0 C40.26 0 80.52 0 122 0 C122 7.59 122 15.18 122 23 C81.74 23 41.48 23 0 23 C0 15.41 0 7.82 0 0 Z " fill="#010101" transform="translate(118,25)"/>
<path d="M0 0 C7.59 0 15.18 0 23 0 C23 32.67 23 65.34 23 99 C15.41 99 7.82 99 0 99 C0 66.33 0 33.66 0 0 Z " fill="#030303" transform="translate(309,117)"/>
<path d="M0 0 C7.59 0 15.18 0 23 0 C23 32.67 23 65.34 23 99 C15.41 99 7.82 99 0 99 C0 66.33 0 33.66 0 0 Z " fill="#030303" transform="translate(26,117)"/>
<path d="M0 0 C25.08 0 50.16 0 76 0 C76 7.59 76 15.18 76 23 C50.92 23 25.84 23 0 23 C0 15.41 0 7.82 0 0 Z " fill="#030303" transform="translate(141,216)"/>
<path d="M0 0 C7.59 0 15.18 0 23 0 C23 25.08 23 50.16 23 76 C15.41 76 7.82 76 0 76 C0 50.92 0 25.84 0 0 Z " fill="#010101" transform="translate(240,117)"/>
<path d="M0 0 C7.59 0 15.18 0 23 0 C23 25.08 23 50.16 23 76 C15.41 76 7.82 76 0 76 C0 50.92 0 25.84 0 0 Z " fill="#010101" transform="translate(95,117)"/>
<path d="M0 0 C25.08 0 50.16 0 76 0 C76 7.59 76 15.18 76 23 C50.92 23 25.84 23 0 23 C0 15.41 0 7.82 0 0 Z " fill="#010101" transform="translate(141,71)"/>
<path d="M0 0 C7.59 0 15.18 0 23 0 C23 15.18 23 30.36 23 46 C15.41 46 7.82 46 0 46 C0 30.82 0 15.64 0 0 Z " fill="#030303" transform="translate(286,216)"/>
<path d="M0 0 C7.59 0 15.18 0 23 0 C23 15.18 23 30.36 23 46 C15.41 46 7.82 46 0 46 C0 30.82 0 15.64 0 0 Z " fill="#030303" transform="translate(49,216)"/>
<path d="M0 0 C7.59 0 15.18 0 23 0 C23 15.18 23 30.36 23 46 C15.41 46 7.82 46 0 46 C0 30.82 0 15.64 0 0 Z " fill="#030303" transform="translate(286,71)"/>
<path d="M0 0 C7.59 0 15.18 0 23 0 C23 15.18 23 30.36 23 46 C15.41 46 7.82 46 0 46 C0 30.82 0 15.64 0 0 Z " fill="#030303" transform="translate(49,71)"/>
<path d="M0 0 C15.18 0 30.36 0 46 0 C46 7.59 46 15.18 46 23 C30.82 23 15.64 23 0 23 C0 15.41 0 7.82 0 0 Z " fill="#040404" transform="translate(240,48)"/>
<path d="M0 0 C15.18 0 30.36 0 46 0 C46 7.59 46 15.18 46 23 C30.82 23 15.64 23 0 23 C0 15.41 0 7.82 0 0 Z " fill="#040404" transform="translate(72,48)"/>
<path d="M0 0 C9.9 0 19.8 0 30 0 C30 7.59 30 15.18 30 23 C20.1 23 10.2 23 0 23 C0 15.41 0 7.82 0 0 Z " fill="#010101" transform="translate(164,354)"/>
<path d="M0 0 C7.59 0 15.18 0 23 0 C23 7.59 23 15.18 23 23 C15.41 23 7.82 23 0 23 C0 15.41 0 7.82 0 0 Z " fill="#060606" transform="translate(194,331)"/>
<path d="M0 0 C7.59 0 15.18 0 23 0 C23 7.59 23 15.18 23 23 C15.41 23 7.82 23 0 23 C0 15.41 0 7.82 0 0 Z " fill="#060606" transform="translate(141,331)"/>
<path d="M0 0 C7.59 0 15.18 0 23 0 C23 7.59 23 15.18 23 23 C15.41 23 7.82 23 0 23 C0 15.41 0 7.82 0 0 Z " fill="#050505" transform="translate(217,308)"/>
<path d="M0 0 C7.59 0 15.18 0 23 0 C23 7.59 23 15.18 23 23 C15.41 23 7.82 23 0 23 C0 15.41 0 7.82 0 0 Z " fill="#050505" transform="translate(118,308)"/>
<path d="M0 0 C7.59 0 15.18 0 23 0 C23 7.59 23 15.18 23 23 C15.41 23 7.82 23 0 23 C0 15.41 0 7.82 0 0 Z " fill="#040404" transform="translate(240,285)"/>
<path d="M0 0 C7.59 0 15.18 0 23 0 C23 7.59 23 15.18 23 23 C15.41 23 7.82 23 0 23 C0 15.41 0 7.82 0 0 Z " fill="#040404" transform="translate(95,285)"/>
<path d="M0 0 C7.59 0 15.18 0 23 0 C23 7.59 23 15.18 23 23 C15.41 23 7.82 23 0 23 C0 15.41 0 7.82 0 0 Z " fill="#040404" transform="translate(263,262)"/>
<path d="M0 0 C7.59 0 15.18 0 23 0 C23 7.59 23 15.18 23 23 C15.41 23 7.82 23 0 23 C0 15.41 0 7.82 0 0 Z " fill="#040404" transform="translate(72,262)"/>
<path d="M0 0 C7.59 0 15.18 0 23 0 C23 7.59 23 15.18 23 23 C15.41 23 7.82 23 0 23 C0 15.41 0 7.82 0 0 Z " fill="#070707" transform="translate(217,94)"/>
<path d="M0 0 C7.59 0 15.18 0 23 0 C23 7.59 23 15.18 23 23 C15.41 23 7.82 23 0 23 C0 15.41 0 7.82 0 0 Z " fill="#070707" transform="translate(118,94)"/>
<path d="M0 0 C7.26 0 14.52 0 22 0 C22 7.26 22 14.52 22 22 C14.74 22 7.48 22 0 22 C0 14.74 0 7.48 0 0 Z " fill="#000000" transform="translate(218,194)"/>
<path d="M0 0 C7.26 0 14.52 0 22 0 C22 7.26 22 14.52 22 22 C14.74 22 7.48 22 0 22 C0 14.74 0 7.48 0 0 Z " fill="#000000" transform="translate(118,194)"/>
</svg>
