<?xml version="1.0" encoding="UTF-8"?>
<!-- Generator: visioncortex VTracer 0.6.4 -->
<svg version="1.1" xmlns="http://www.w3.org/2000/svg" width="447" height="444">
<path d="M0 0 C147.51 0 295.02 0 447 0 C447 146.52 447 293.04 447 444 C299.49 444 151.98 444 0 444 C0 297.48 0 150.96 0 0 Z " fill="#FEFEFE" transform="translate(0,0)"/>
<path d="M0 0 C88.77 0 177.54 0 269 0 C269 6.93 269 13.86 269 21 C275.93 21 282.86 21 290 21 C290 109.77 290 198.54 290 290 C283.07 290 276.14 290 269 290 C269 296.93 269 303.86 269 311 C228.08 311 187.16 311 145 311 C145 269.75 145 228.5 145 186 C138.07 186 131.14 186 124 186 C124 233.85 124 281.7 124 331 C117.4 331 110.8 331 104 331 C104 283.15 104 235.3 104 186 C56.15 186 8.3 186 -41 186 C-41 179.4 -41 172.8 -41 166 C6.85 166 54.7 166 104 166 C104 159.07 104 152.14 104 145 C62.75 145 21.5 145 -21 145 C-21 104.08 -21 63.16 -21 21 C-14.07 21 -7.14 21 0 21 C0 14.07 0 7.14 0 0 Z " fill="#010101" transform="translate(108,43)"/>
<path d="M0 0 C54.78 0 109.56 0 166 0 C166 54.78 166 109.56 166 166 C118.15 166 70.3 166 21 166 C21 159.07 21 152.14 21 145 C14.07 145 7.14 145 0 145 C0 97.15 0 49.3 0 0 Z " fill="#FDFDFD" transform="translate(46,229)"/>
<path d="M0 0 C61.71 0 123.42 0 187 0 C187 6.93 187 13.86 187 21 C193.93 21 200.86 21 208 21 C208 89.31 208 157.62 208 228 C201.07 228 194.14 228 187 228 C187 214.47 187 200.94 187 187 C180.07 187 173.14 187 166 187 C166 200.53 166 214.06 166 228 C159.07 228 152.14 228 145 228 C145 173.55 145 119.1 145 63 C111.01 63 77.02 63 42 63 C42 69.6 42 76.2 42 83 C35.07 83 28.14 83 21 83 C21 76.4 21 69.8 21 63 C14.07 63 7.14 63 0 63 C0 69.6 0 76.2 0 83 C-6.6 83 -13.2 83 -20 83 C-20 62.54 -20 42.08 -20 21 C-13.4 21 -6.8 21 0 21 C0 14.07 0 7.14 0 0 Z " fill="#FAFAFA" transform="translate(149,84)"/>
<path d="M0 0 C47.85 0 95.7 0 145 0 C145 6.93 145 13.86 145 21 C97.15 21 49.3 21 0 21 C0 14.07 0 7.14 0 0 Z " fill="#040404" transform="translate(67,374)"/>
<path d="M0 0 C6.93 0 13.86 0 21 0 C21 47.85 21 95.7 21 145 C14.07 145 7.14 145 0 145 C0 97.15 0 49.3 0 0 Z " fill="#040404" transform="translate(46,229)"/>
<path d="M0 0 C6.93 0 13.86 0 21 0 C21 6.93 21 13.86 21 21 C14.07 21 7.14 21 0 21 C0 14.07 0 7.14 0 0 Z " fill="#090909" transform="translate(170,333)"/>
<path d="M0 0 C6.93 0 13.86 0 21 0 C21 6.93 21 13.86 21 21 C14.07 21 7.14 21 0 21 C0 14.07 0 7.14 0 0 Z " fill="#080808" transform="translate(87,333)"/>
<path d="M0 0 C6.93 0 13.86 0 21 0 C21 6.93 21 13.86 21 21 C14.07 21 7.14 21 0 21 C0 14.07 0 7.14 0 0 Z " fill="#0B0B0B" transform="translate(129,291)"/>
<path d="M0 0 C6.93 0 13.86 0 21 0 C21 6.93 21 13.86 21 21 C14.07 21 7.14 21 0 21 C0 14.07 0 7.14 0 0 Z " fill="#0A0A0A" transform="translate(170,250)"/>
<path d="M0 0 C6.93 0 13.86 0 21 0 C21 6.93 21 13.86 21 21 C14.07 21 7.14 21 0 21 C0 14.07 0 7.14 0 0 Z " fill="#090909" transform="translate(87,250)"/>
<path d="M0 0 C6.93 0 13.86 0 21 0 C21 6.93 21 13.86 21 21 C14.07 21 7.14 21 0 21 C0 14.07 0 7.14 0 0 Z " fill="#090909" transform="translate(315,229)"/>
<path d="M0 0 C6.93 0 13.86 0 21 0 C21 6.93 21 13.86 21 21 C14.07 21 7.14 21 0 21 C0 14.07 0 7.14 0 0 Z " fill="#090909" transform="translate(315,188)"/>
<path d="M0 0 C6.93 0 13.86 0 21 0 C21 6.93 21 13.86 21 21 C14.07 21 7.14 21 0 21 C0 14.07 0 7.14 0 0 Z " fill="#0B0B0B" transform="translate(315,105)"/>
<path d="M0 0 C6.93 0 13.86 0 21 0 C21 6.93 21 13.86 21 21 C14.07 21 7.14 21 0 21 C0 14.07 0 7.14 0 0 Z " fill="#090909" transform="translate(232,105)"/>
<path d="M0 0 C6.93 0 13.86 0 21 0 C21 6.93 21 13.86 21 21 C14.07 21 7.14 21 0 21 C0 14.07 0 7.14 0 0 Z " fill="#090909" transform="translate(191,105)"/>
<path d="M0 0 C6.93 0 13.86 0 21 0 C21 6.6 21 13.2 21 20 C14.07 20 7.14 20 0 20 C0 13.4 0 6.8 0 0 Z " fill="#060606" transform="translate(315,147)"/>
<path d="M0 0 C6.6 0 13.2 0 20 0 C20 6.93 20 13.86 20 21 C13.4 21 6.8 21 0 21 C0 14.07 0 7.14 0 0 Z " fill="#060606" transform="translate(274,105)"/>
<path d="M0 0 C6.6 0 13.2 0 20 0 C20 6.93 20 13.86 20 21 C13.4 21 6.8 21 0 21 C0 14.07 0 7.14 0 0 Z " fill="#060606" transform="translate(150,105)"/>
<path d="M0 0 C6.6 0 13.2 0 20 0 C20 6.6 20 13.2 20 20 C13.4 20 6.8 20 0 20 C0 13.4 0 6.8 0 0 Z " fill="#FEFEFE" transform="translate(212,209)"/>
</svg>
