<?xml version="1.0" encoding="UTF-8"?>
<!-- Generator: visioncortex VTracer 0.6.4 -->
<svg version="1.1" xmlns="http://www.w3.org/2000/svg" width="427" height="410">
<path d="M0 0 C140.91 0 281.82 0 427 0 C427 135.3 427 270.6 427 410 C286.09 410 145.18 410 0 410 C0 274.7 0 139.4 0 0 Z " fill="#FEFEFE" transform="translate(0,0)"/>
<path d="M0 0 C60.72 0 121.44 0 184 0 C184 60.72 184 121.44 184 184 C168.49 184 152.98 184 137 184 C137 176.41 137 168.82 137 161 C129.74 161 122.48 161 115 161 C115 153.41 115 145.82 115 138 C107.41 138 99.82 138 92 138 C92 145.59 92 153.18 92 161 C84.41 161 76.82 161 69 161 C69 186.08 69 211.16 69 237 C76.59 237 84.18 237 92 237 C92 244.59 92 252.18 92 260 C99.59 260 107.18 260 115 260 C115 267.59 115 275.18 115 283 C155.26 283 195.52 283 237 283 C237 275.41 237 267.82 237 260 C244.59 260 252.18 260 260 260 C260 252.41 260 244.82 260 237 C267.59 237 275.18 237 283 237 C283 196.74 283 156.48 283 115 C275.41 115 267.82 115 260 115 C260 92.23 260 69.46 260 46 C275.18 46 290.36 46 306 46 C306 53.59 306 61.18 306 69 C313.59 69 321.18 69 329 69 C329 84.18 329 99.36 329 115 C336.59 115 344.18 115 352 115 C352 155.26 352 195.52 352 237 C344.41 237 336.82 237 329 237 C329 252.18 329 267.36 329 283 C321.41 283 313.82 283 306 283 C306 290.59 306 298.18 306 306 C298.41 306 290.82 306 283 306 C283 313.59 283 321.18 283 329 C267.82 329 252.64 329 237 329 C237 336.59 237 344.18 237 352 C196.74 352 156.48 352 115 352 C115 344.41 115 336.82 115 329 C99.82 329 84.64 329 69 329 C69 321.41 69 313.82 69 306 C61.41 306 53.82 306 46 306 C46 298.41 46 290.82 46 283 C38.41 283 30.82 283 23 283 C23 267.82 23 252.64 23 237 C15.41 237 7.82 237 0 237 C0 204.33 0 171.66 0 138 C7.59 138 15.18 138 23 138 C23 122.82 23 107.64 23 92 C30.59 92 38.18 92 46 92 C46 84.41 46 76.82 46 69 C38.41 69 30.82 69 23 69 C23 61.41 23 53.82 23 46 C15.41 46 7.82 46 0 46 C0 30.82 0 15.64 0 0 Z " fill="#010101" transform="translate(29,24)"/>
</svg>
