<?xml version="1.0" encoding="UTF-8"?>
<!-- Generator: visioncortex VTracer 0.6.4 -->
<svg version="1.1" xmlns="http://www.w3.org/2000/svg" width="421" height="406">
<path d="M0 0 C138.93 0 277.86 0 421 0 C421 133.98 421 267.96 421 406 C282.07 406 143.14 406 0 406 C0 272.02 0 138.04 0 0 Z " fill="#FEFEFE" transform="translate(0,0)"/>
<path d="M0 0 C60.72 0 121.44 0 184 0 C184 60.72 184 121.44 184 184 C168.49 184 152.98 184 137 184 C137 176.41 137 168.82 137 161 C129.74 161 122.48 161 115 161 C115 153.41 115 145.82 115 138 C107.41 138 99.82 138 92 138 C92 145.59 92 153.18 92 161 C84.41 161 76.82 161 69 161 C69 186.08 69 211.16 69 237 C76.59 237 84.18 237 92 237 C92 244.59 92 252.18 92 260 C99.59 260 107.18 260 115 260 C115 267.59 115 275.18 115 283 C155.26 283 195.52 283 237 283 C237 275.41 237 267.82 237 260 C244.59 260 252.18 260 260 260 C260 252.41 260 244.82 260 237 C267.59 237 275.18 237 283 237 C283 196.74 283 156.48 283 115 C275.41 115 267.82 115 260 115 C260 92.23 260 69.46 260 46 C275.18 46 290.36 46 306 46 C306 53.59 306 61.18 306 69 C313.59 69 321.18 69 329 69 C329 84.18 329 99.36 329 115 C336.59 115 344.18 115 352 115 C352 155.26 352 195.52 352 237 C344.41 237 336.82 237 329 237 C329 252.18 329 267.36 329 283 C321.41 283 313.82 283 306 283 C306 290.59 306 298.18 306 306 C298.41 306 290.82 306 283 306 C283 313.59 283 321.18 283 329 C267.82 329 252.64 329 237 329 C237 336.59 237 344.18 237 352 C196.74 352 156.48 352 115 352 C115 344.41 115 336.82 115 329 C99.82 329 84.64 329 69 329 C69 321.41 69 313.82 69 306 C61.41 306 53.82 306 46 306 C46 298.41 46 290.82 46 283 C38.41 283 30.82 283 23 283 C23 267.82 23 252.64 23 237 C15.41 237 7.82 237 0 237 C0 204.33 0 171.66 0 138 C7.59 138 15.18 138 23 138 C23 122.82 23 107.64 23 92 C30.59 92 38.18 92 46 92 C46 84.41 46 76.82 46 69 C38.41 69 30.82 69 23 69 C23 61.41 23 53.82 23 46 C15.41 46 7.82 46 0 46 C0 30.82 0 15.64 0 0 Z " fill="#FCFCFC" transform="translate(30,28)"/>
<path d="M0 0 C60.72 0 121.44 0 184 0 C184 60.72 184 121.44 184 184 C168.49 184 152.98 184 137 184 C137 176.41 137 168.82 137 161 C129.74 161 122.48 161 115 161 C115 153.41 115 145.82 115 138 C107.41 138 99.82 138 92 138 C92 145.59 92 153.18 92 161 C76.82 161 61.64 161 46 161 C46 186.08 46 211.16 46 237 C30.82 237 15.64 237 0 237 C0 204.33 0 171.66 0 138 C7.59 138 15.18 138 23 138 C23 122.82 23 107.64 23 92 C30.59 92 38.18 92 46 92 C46 84.41 46 76.82 46 69 C38.41 69 30.82 69 23 69 C23 61.41 23 53.82 23 46 C15.41 46 7.82 46 0 46 C0 30.82 0 15.64 0 0 Z " fill="#FCFCFC" transform="translate(30,28)"/>
<path d="M0 0 C7.59 0 15.18 0 23 0 C23 25.08 23 50.16 23 76 C30.59 76 38.18 76 46 76 C46 83.59 46 91.18 46 99 C53.59 99 61.18 99 69 99 C69 106.59 69 114.18 69 122 C109.26 122 149.52 122 191 122 C191 129.59 191 137.18 191 145 C150.74 145 110.48 145 69 145 C69 152.59 69 160.18 69 168 C53.82 168 38.64 168 23 168 C23 160.41 23 152.82 23 145 C15.41 145 7.82 145 0 145 C0 137.41 0 129.82 0 122 C-7.59 122 -15.18 122 -23 122 C-23 106.82 -23 91.64 -23 76 C-15.41 76 -7.82 76 0 76 C0 50.92 0 25.84 0 0 Z " fill="#FCFCFC" transform="translate(76,189)"/>
<path d="M0 0 C60.72 0 121.44 0 184 0 C184 60.72 184 121.44 184 184 C168.49 184 152.98 184 137 184 C137 176.41 137 168.82 137 161 C129.74 161 122.48 161 115 161 C115 153.41 115 145.82 115 138 C122.59 138 130.18 138 138 138 C138 145.59 138 153.18 138 161 C145.59 161 153.18 161 161 161 C161 115.46 161 69.92 161 23 C115.46 23 69.92 23 23 23 C23 30.59 23 38.18 23 46 C15.41 46 7.82 46 0 46 C0 30.82 0 15.64 0 0 Z " fill="#030303" transform="translate(30,28)"/>
<path d="M0 0 C15.18 0 30.36 0 46 0 C46 7.59 46 15.18 46 23 C53.59 23 61.18 23 69 23 C69 38.18 69 53.36 69 69 C61.41 69 53.82 69 46 69 C46 109.26 46 149.52 46 191 C38.41 191 30.82 191 23 191 C23 150.74 23 110.48 23 69 C15.41 69 7.82 69 0 69 C0 46.23 0 23.46 0 0 Z " fill="#040404" transform="translate(290,74)"/>
<path d="M0 0 C40.26 0 80.52 0 122 0 C122 7.59 122 15.18 122 23 C81.74 23 41.48 23 0 23 C0 15.41 0 7.82 0 0 Z " fill="#010101" transform="translate(145,357)"/>
<path d="M0 0 C40.26 0 80.52 0 122 0 C122 7.59 122 15.18 122 23 C81.74 23 41.48 23 0 23 C0 15.41 0 7.82 0 0 Z " fill="#FBFBFB" transform="translate(145,334)"/>
<path d="M0 0 C40.26 0 80.52 0 122 0 C122 7.59 122 15.18 122 23 C81.74 23 41.48 23 0 23 C0 15.41 0 7.82 0 0 Z " fill="#010101" transform="translate(145,311)"/>
<path d="M0 0 C7.59 0 15.18 0 23 0 C23 40.26 23 80.52 23 122 C15.41 122 7.82 122 0 122 C0 81.74 0 41.48 0 0 Z " fill="#010101" transform="translate(359,143)"/>
<path d="M0 0 C7.59 0 15.18 0 23 0 C23 40.26 23 80.52 23 122 C15.41 122 7.82 122 0 122 C0 81.74 0 41.48 0 0 Z " fill="#FBFBFB" transform="translate(336,143)"/>
<path d="M0 0 C7.59 0 15.18 0 23 0 C23 40.26 23 80.52 23 122 C15.41 122 7.82 122 0 122 C0 81.74 0 41.48 0 0 Z " fill="#010101" transform="translate(313,143)"/>
<path d="M0 0 C7.59 0 15.18 0 23 0 C23 32.67 23 65.34 23 99 C15.41 99 7.82 99 0 99 C0 66.33 0 33.66 0 0 Z " fill="#010101" transform="translate(30,166)"/>
<path d="M0 0 C15.18 0 30.36 0 46 0 C46 7.59 46 15.18 46 23 C38.41 23 30.82 23 23 23 C23 38.18 23 53.36 23 69 C15.41 69 7.82 69 0 69 C0 46.23 0 23.46 0 0 Z " fill="#030303" transform="translate(290,74)"/>
<path d="M0 0 C7.59 0 15.18 0 23 0 C23 25.08 23 50.16 23 76 C15.41 76 7.82 76 0 76 C0 50.92 0 25.84 0 0 Z " fill="#010101" transform="translate(76,189)"/>
<path d="M0 0 C7.59 0 15.18 0 23 0 C23 15.18 23 30.36 23 46 C7.82 46 -7.36 46 -23 46 C-23 38.41 -23 30.82 -23 23 C-15.41 23 -7.82 23 0 23 C0 15.41 0 7.82 0 0 Z " fill="#030303" transform="translate(290,265)"/>
<path d="M0 0 C7.59 0 15.18 0 23 0 C23 7.59 23 15.18 23 23 C30.59 23 38.18 23 46 23 C46 30.59 46 38.18 46 46 C30.82 46 15.64 46 0 46 C0 30.82 0 15.64 0 0 Z " fill="#030303" transform="translate(99,265)"/>
<path d="M0 0 C15.18 0 30.36 0 46 0 C46 7.59 46 15.18 46 23 C38.41 23 30.82 23 23 23 C23 30.59 23 38.18 23 46 C15.41 46 7.82 46 0 46 C0 30.82 0 15.64 0 0 Z " fill="#040404" transform="translate(99,143)"/>
<path d="M0 0 C15.18 0 30.36 0 46 0 C46 7.59 46 15.18 46 23 C30.82 23 15.64 23 0 23 C0 15.41 0 7.82 0 0 Z " fill="#040404" transform="translate(267,334)"/>
<path d="M0 0 C15.18 0 30.36 0 46 0 C46 7.59 46 15.18 46 23 C30.82 23 15.64 23 0 23 C0 15.41 0 7.82 0 0 Z " fill="#040404" transform="translate(99,334)"/>
<path d="M0 0 C15.18 0 30.36 0 46 0 C46 7.59 46 15.18 46 23 C30.82 23 15.64 23 0 23 C0 15.41 0 7.82 0 0 Z " fill="#FCFCFC" transform="translate(267,311)"/>
<path d="M0 0 C15.18 0 30.36 0 46 0 C46 7.59 46 15.18 46 23 C30.82 23 15.64 23 0 23 C0 15.41 0 7.82 0 0 Z " fill="#FCFCFC" transform="translate(99,311)"/>
<path d="M0 0 C7.59 0 15.18 0 23 0 C23 15.18 23 30.36 23 46 C15.41 46 7.82 46 0 46 C0 30.82 0 15.64 0 0 Z " fill="#040404" transform="translate(336,265)"/>
<path d="M0 0 C7.59 0 15.18 0 23 0 C23 15.18 23 30.36 23 46 C15.41 46 7.82 46 0 46 C0 30.82 0 15.64 0 0 Z " fill="#040404" transform="translate(53,265)"/>
<path d="M0 0 C7.59 0 15.18 0 23 0 C23 15.18 23 30.36 23 46 C15.41 46 7.82 46 0 46 C0 30.82 0 15.64 0 0 Z " fill="#050505" transform="translate(53,120)"/>
<path d="M0 0 C7.59 0 15.18 0 23 0 C23 15.18 23 30.36 23 46 C15.41 46 7.82 46 0 46 C0 30.82 0 15.64 0 0 Z " fill="#FCFCFC" transform="translate(313,97)"/>
<path d="M0 0 C7.59 0 15.18 0 23 0 C23 7.59 23 15.18 23 23 C15.41 23 7.82 23 0 23 C0 15.41 0 7.82 0 0 Z " fill="#030303" transform="translate(313,311)"/>
<path d="M0 0 C7.59 0 15.18 0 23 0 C23 7.59 23 15.18 23 23 C15.41 23 7.82 23 0 23 C0 15.41 0 7.82 0 0 Z " fill="#030303" transform="translate(76,311)"/>
<path d="M0 0 C7.59 0 15.18 0 23 0 C23 7.59 23 15.18 23 23 C15.41 23 7.82 23 0 23 C0 15.41 0 7.82 0 0 Z " fill="#050505" transform="translate(76,97)"/>
<path d="M0 0 C7.59 0 15.18 0 23 0 C23 7.59 23 15.18 23 23 C15.41 23 7.82 23 0 23 C0 15.41 0 7.82 0 0 Z " fill="#040404" transform="translate(53,74)"/>
</svg>
