<?xml version="1.0" encoding="UTF-8"?>
<!-- Generator: visioncortex VTracer 0.6.4 -->
<svg version="1.1" xmlns="http://www.w3.org/2000/svg" width="487" height="433">
<path d="M0 0 C160.71 0 321.42 0 487 0 C487 142.89 487 285.78 487 433 C326.29 433 165.58 433 0 433 C0 290.11 0 147.22 0 0 Z " fill="#FEFEFE" transform="translate(0,0)"/>
<path d="M0 0 C13.53 0 27.06 0 41 0 C41 34.32 41 68.64 41 104 C47.93 104 54.86 104 62 104 C62 110.6 62 117.2 62 124 C123.38 124 184.76 124 248 124 C248 117.4 248 110.8 248 104 C207.08 104 166.16 104 124 104 C124 69.68 124 35.36 124 0 C164.92 0 205.84 0 248 0 C248 33.99 248 67.98 248 103 C254.93 103 261.86 103 269 103 C269 69.01 269 35.02 269 0 C282.53 0 296.06 0 310 0 C310 6.93 310 13.86 310 21 C316.93 21 323.86 21 331 21 C331 123.3 331 225.6 331 331 C324.07 331 317.14 331 310 331 C310 337.93 310 344.86 310 352 C296.47 352 282.94 352 269 352 C269 297.22 269 242.44 269 186 C262.07 186 255.14 186 248 186 C248 192.93 248 199.86 248 207 C186.62 207 125.24 207 62 207 C62 200.07 62 193.14 62 186 C55.07 186 48.14 186 41 186 C41 240.78 41 295.56 41 352 C27.47 352 13.94 352 0 352 C0 345.07 0 338.14 0 331 C-6.93 331 -13.86 331 -21 331 C-21 228.7 -21 126.4 -21 21 C-14.07 21 -7.14 21 0 21 C0 14.07 0 7.14 0 0 Z " fill="#000000" transform="translate(75,29)"/>
<path d="M0 0 C61.38 0 122.76 0 186 0 C186 40.92 186 81.84 186 124 C124.62 124 63.24 124 0 124 C0 83.08 0 42.16 0 0 Z " fill="#010101" transform="translate(137,257)"/>
<path d="M0 0 C40.92 0 81.84 0 124 0 C124 33.99 124 67.98 124 103 C83.08 103 42.16 103 0 103 C0 69.01 0 35.02 0 0 Z " fill="#000000" transform="translate(199,29)"/>
<path d="M0 0 C61.38 0 122.76 0 186 0 C186 13.53 186 27.06 186 41 C124.62 41 63.24 41 0 41 C0 27.47 0 13.94 0 0 Z " fill="#030303" transform="translate(137,195)"/>
<path d="M0 0 C61.38 0 122.76 0 186 0 C186 6.6 186 13.2 186 20 C124.62 20 63.24 20 0 20 C0 13.4 0 6.8 0 0 Z " fill="#FEFEFE" transform="translate(137,195)"/>
<path d="M0 0 C13.86 0 27.72 0 42 0 C42 20.46 42 40.92 42 62 C28.14 62 14.28 62 0 62 C0 41.54 0 21.08 0 0 Z " fill="#F9F9F9" transform="translate(261,50)"/>
<path d="M0 0 C34.32 0 68.64 0 104 0 C104 6.93 104 13.86 104 21 C69.68 21 35.36 21 0 21 C0 14.07 0 7.14 0 0 Z " fill="#F7F7F7" transform="translate(199,277)"/>
<path d="M0 0 C27.39 0 54.78 0 83 0 C83 6.93 83 13.86 83 21 C55.61 21 28.22 21 0 21 C0 14.07 0 7.14 0 0 Z " fill="#F8F8F8" transform="translate(157,319)"/>
<path d="M0 0 C13.86 0 27.72 0 42 0 C42 6.93 42 13.86 42 21 C28.14 21 14.28 21 0 21 C0 14.07 0 7.14 0 0 Z " fill="#F6F6F6" transform="translate(261,319)"/>
<path d="M0 0 C6.6 0 13.2 0 20 0 C20 6.6 20 13.2 20 20 C13.4 20 6.8 20 0 20 C0 13.4 0 6.8 0 0 Z " fill="#FDFDFD" transform="translate(158,278)"/>
</svg>
