<?xml version="1.0" encoding="UTF-8"?>
<!-- Generator: visioncortex VTracer 0.6.4 -->
<svg version="1.1" xmlns="http://www.w3.org/2000/svg" width="471" height="434">
<path d="M0 0 C155.43 0 310.86 0 471 0 C471 143.22 471 286.44 471 434 C315.57 434 160.14 434 0 434 C0 290.78 0 147.56 0 0 Z " fill="#000000" transform="translate(0,0)"/>
<path d="M0 0 C155.43 0 310.86 0 471 0 C471 143.22 471 286.44 471 434 C315.57 434 160.14 434 0 434 C0 290.78 0 147.56 0 0 Z M19 33 C19 149.16 19 265.32 19 385 C135.16 385 251.32 385 371 385 C371 284.02 371 183.04 371 79 C363.41 79 355.82 79 348 79 C348 71.41 348 63.82 348 56 C340.41 56 332.82 56 325 56 C325 48.41 325 40.82 325 33 C224.02 33 123.04 33 19 33 Z " fill="#FEFEFE" transform="translate(0,0)"/>
<path d="M0 0 C55.44 0 110.88 0 168 0 C168 55.44 168 110.88 168 168 C112.56 168 57.12 168 0 168 C0 112.56 0 57.12 0 0 Z " fill="#FEFEFE" transform="translate(111,194)"/>
<path d="M0 0 C55.44 0 110.88 0 168 0 C168 15.18 168 30.36 168 46 C112.56 46 57.12 46 0 46 C0 30.82 0 15.64 0 0 Z " fill="#FDFDFD" transform="translate(111,56)"/>
</svg>
