<?xml version="1.0" encoding="UTF-8"?>
<!-- Generator: visioncortex VTracer 0.6.4 -->
<svg version="1.1" xmlns="http://www.w3.org/2000/svg" width="441" height="416">
<path d="M0 0 C145.53 0 291.06 0 441 0 C441 137.28 441 274.56 441 416 C295.47 416 149.94 416 0 416 C0 278.72 0 141.44 0 0 Z " fill="#FEFEFE" transform="translate(0,0)"/>
<path d="M0 0 C100.98 0 201.96 0 306 0 C306 7.59 306 15.18 306 23 C298.41 23 290.82 23 283 23 C283 45.77 283 68.54 283 92 C212.38 92 141.76 92 69 92 C69 69.23 69 46.46 69 23 C53.82 23 38.64 23 23 23 C23 123.98 23 224.96 23 329 C38.18 329 53.36 329 69 329 C69 265.97 69 202.94 69 138 C139.62 138 210.24 138 283 138 C283 201.03 283 264.06 283 329 C298.18 329 313.36 329 329 329 C329 235.61 329 142.22 329 46 C336.59 46 344.18 46 352 46 C352 146.98 352 247.96 352 352 C235.84 352 119.68 352 0 352 C0 235.84 0 119.68 0 0 Z " fill="#020202" transform="translate(21,27)"/>
<path d="M0 0 C55.44 0 110.88 0 168 0 C168 55.44 168 110.88 168 168 C112.56 168 57.12 168 0 168 C0 112.56 0 57.12 0 0 Z " fill="#FEFEFE" transform="translate(113,188)"/>
<path d="M0 0 C55.44 0 110.88 0 168 0 C168 15.18 168 30.36 168 46 C112.56 46 57.12 46 0 46 C0 30.82 0 15.64 0 0 Z " fill="#FDFDFD" transform="translate(113,50)"/>
<path d="M0 0 C7.59 0 15.18 0 23 0 C23 7.59 23 15.18 23 23 C15.41 23 7.82 23 0 23 C0 15.41 0 7.82 0 0 Z " fill="#060606" transform="translate(327,50)"/>
</svg>
