<?xml version="1.0" encoding="UTF-8"?>
<!-- Generator: visioncortex VTracer 0.6.4 -->
<svg version="1.1" xmlns="http://www.w3.org/2000/svg" width="492" height="391">
<path d="M0 0 C162.36 0 324.72 0 492 0 C492 129.03 492 258.06 492 391 C329.64 391 167.28 391 0 391 C0 261.97 0 132.94 0 0 Z " fill="#FEFEFE" transform="translate(0,0)"/>
<path d="M0 0 C102.3 0 204.6 0 310 0 C310 6.6 310 13.2 310 20 C316.93 20 323.86 20 331 20 C331 40.46 331 60.92 331 82 C324.07 82 317.14 82 310 82 C310 88.93 310 95.86 310 103 C316.93 103 323.86 103 331 103 C331 123.46 331 143.92 331 165 C324.07 165 317.14 165 310 165 C310 171.93 310 178.86 310 186 C207.7 186 105.4 186 0 186 C0 179.07 0 172.14 0 165 C-6.93 165 -13.86 165 -21 165 C-21 144.54 -21 124.08 -21 103 C-14.4 103 -7.8 103 -1 103 C-1 96.4 -1 89.8 -1 83 C-7.6 83 -14.2 83 -21 83 C-21 62.21 -21 41.42 -21 20 C-14.07 20 -7.14 20 0 20 C0 13.4 0 6.8 0 0 Z " fill="#000000" transform="translate(71,190)"/>
<path d="M0 0 C13.86 0 27.72 0 42 0 C42 20.46 42 40.92 42 62 C48.6 62 55.2 62 62 62 C62 68.93 62 75.86 62 83 C82.46 83 102.92 83 124 83 C124 96.53 124 110.06 124 124 C117.4 124 110.8 124 104 124 C104 130.93 104 137.86 104 145 C69.68 145 35.36 145 0 145 C0 138.07 0 131.14 0 124 C-6.6 124 -13.2 124 -20 124 C-20 90.01 -20 56.02 -20 21 C-13.4 21 -6.8 21 0 21 C0 14.07 0 7.14 0 0 Z " fill="#010101" transform="translate(174,24)"/>
<path d="M0 0 C40.92 0 81.84 0 124 0 C124 20.46 124 40.92 124 62 C83.08 62 42.16 62 0 62 C0 41.54 0 21.08 0 0 Z " fill="#FCFCFC" transform="translate(71,293)"/>
<path d="M0 0 C40.92 0 81.84 0 124 0 C124 20.46 124 40.92 124 62 C83.08 62 42.16 62 0 62 C0 41.54 0 21.08 0 0 Z " fill="#FCFCFC" transform="translate(71,210)"/>
<path d="M0 0 C54.45 0 108.9 0 165 0 C165 6.6 165 13.2 165 20 C110.55 20 56.1 20 0 20 C0 13.4 0 6.8 0 0 Z " fill="#FEFEFE" transform="translate(195,273)"/>
<path d="M0 0 C6.93 0 13.86 0 21 0 C21 6.93 21 13.86 21 21 C27.93 21 34.86 21 42 21 C42 27.6 42 34.2 42 41 C48.93 41 55.86 41 63 41 C63 47.93 63 54.86 63 62 C42.21 62 21.42 62 0 62 C0 41.54 0 21.08 0 0 Z " fill="#040404" transform="translate(236,24)"/>
<path d="M0 0 C40.92 0 81.84 0 124 0 C124 6.6 124 13.2 124 20 C83.08 20 42.16 20 0 20 C0 13.4 0 6.8 0 0 Z " fill="#000000" transform="translate(71,273)"/>
<path d="M0 0 C6.6 0 13.2 0 20 0 C20 20.13 20 40.26 20 61 C13.4 61 6.8 61 0 61 C0 40.87 0 20.74 0 0 Z " fill="#000000" transform="translate(50,294)"/>
<path d="M0 0 C6.6 0 13.2 0 20 0 C20 20.13 20 40.26 20 61 C13.4 61 6.8 61 0 61 C0 40.87 0 20.74 0 0 Z " fill="#000000" transform="translate(50,211)"/>
<path d="M0 0 C6.93 0 13.86 0 21 0 C21 20.46 21 40.92 21 62 C116.7 62 212.4 62 311 62 C311 68.93 311 75.86 311 83 C310.67 83 310.34 83 310 83 C310 76.4 310 69.8 310 63 C214.63 63 119.26 63 21 63 C21 90.06 21 117.12 21 145 C20.67 145 20.34 145 20 145 C20 124.87 20 104.74 20 84 C13.4 84 6.8 84 0 84 C0 83.67 0 83.34 0 83 C6.6 83 13.2 83 20 83 C20 76.4 20 69.8 20 63 C13.4 63 6.8 63 0 63 C0 62.67 0 62.34 0 62 C6.6 62 13.2 62 20 62 C20 41.87 20 21.74 20 1 C13.4 1 6.8 1 0 1 C0 0.67 0 0.34 0 0 Z " fill="#737373" transform="translate(50,210)"/>
<path d="M0 0 C6.93 0 13.86 0 21 0 C21 6.93 21 13.86 21 21 C14.07 21 7.14 21 0 21 C0 14.07 0 7.14 0 0 Z " fill="#F6F6F6" transform="translate(340,314)"/>
<path d="M0 0 C6.93 0 13.86 0 21 0 C21 6.93 21 13.86 21 21 C14.07 21 7.14 21 0 21 C0 14.07 0 7.14 0 0 Z " fill="#0A0A0A" transform="translate(133,314)"/>
<path d="M0 0 C6.93 0 13.86 0 21 0 C21 6.93 21 13.86 21 21 C14.07 21 7.14 21 0 21 C0 14.07 0 7.14 0 0 Z " fill="#080808" transform="translate(91,314)"/>
<path d="M0 0 C6.93 0 13.86 0 21 0 C21 6.93 21 13.86 21 21 C14.07 21 7.14 21 0 21 C0 14.07 0 7.14 0 0 Z " fill="#F5F5F5" transform="translate(340,231)"/>
<path d="M0 0 C6.93 0 13.86 0 21 0 C21 6.93 21 13.86 21 21 C14.07 21 7.14 21 0 21 C0 14.07 0 7.14 0 0 Z " fill="#0A0A0A" transform="translate(133,231)"/>
<path d="M0 0 C6.93 0 13.86 0 21 0 C21 6.93 21 13.86 21 21 C14.07 21 7.14 21 0 21 C0 14.07 0 7.14 0 0 Z " fill="#090909" transform="translate(91,231)"/>
</svg>
