<?xml version="1.0" encoding="UTF-8"?>
<!-- Generator: visioncortex VTracer 0.6.4 -->
<svg version="1.1" xmlns="http://www.w3.org/2000/svg" width="540" height="417">
<path d="M0 0 C178.2 0 356.4 0 540 0 C540 137.61 540 275.22 540 417 C361.8 417 183.6 417 0 417 C0 279.39 0 141.78 0 0 Z " fill="#FEFEFE" transform="translate(0,0)"/>
<path d="M0 0 C102.3 0 204.6 0 310 0 C310 6.6 310 13.2 310 20 C316.93 20 323.86 20 331 20 C331 40.46 331 60.92 331 82 C324.07 82 317.14 82 310 82 C310 88.93 310 95.86 310 103 C316.93 103 323.86 103 331 103 C331 123.46 331 143.92 331 165 C324.07 165 317.14 165 310 165 C310 171.93 310 178.86 310 186 C207.7 186 105.4 186 0 186 C0 179.07 0 172.14 0 165 C-6.93 165 -13.86 165 -21 165 C-21 144.54 -21 124.08 -21 103 C-14.4 103 -7.8 103 -1 103 C-1 96.4 -1 89.8 -1 83 C-7.6 83 -14.2 83 -21 83 C-21 62.21 -21 41.42 -21 20 C-14.07 20 -7.14 20 0 20 C0 13.4 0 6.8 0 0 Z " fill="#000000" transform="translate(115,201)"/>
<path d="M0 0 C6.93 0 13.86 0 21 0 C21 13.53 21 27.06 21 41 C41.46 41 61.92 41 83 41 C83 27.47 83 13.94 83 0 C89.93 0 96.86 0 104 0 C104 13.53 104 27.06 104 41 C110.6 41 117.2 41 124 41 C124 61.46 124 81.92 124 103 C117.4 103 110.8 103 104 103 C104 109.93 104 116.86 104 124 C69.68 124 35.36 124 0 124 C0 117.07 0 110.14 0 103 C-6.6 103 -13.2 103 -20 103 C-20 82.54 -20 62.08 -20 41 C-13.4 41 -6.8 41 0 41 C0 27.47 0 13.94 0 0 Z " fill="#010101" transform="translate(218,56)"/>
<path d="M0 0 C40.92 0 81.84 0 124 0 C124 20.46 124 40.92 124 62 C83.08 62 42.16 62 0 62 C0 41.54 0 21.08 0 0 Z " fill="#FCFCFC" transform="translate(115,304)"/>
<path d="M0 0 C40.92 0 81.84 0 124 0 C124 20.46 124 40.92 124 62 C83.08 62 42.16 62 0 62 C0 41.54 0 21.08 0 0 Z " fill="#FCFCFC" transform="translate(115,221)"/>
<path d="M0 0 C54.45 0 108.9 0 165 0 C165 6.6 165 13.2 165 20 C110.55 20 56.1 20 0 20 C0 13.4 0 6.8 0 0 Z " fill="#FEFEFE" transform="translate(239,284)"/>
<path d="M0 0 C40.92 0 81.84 0 124 0 C124 6.6 124 13.2 124 20 C83.08 20 42.16 20 0 20 C0 13.4 0 6.8 0 0 Z " fill="#000000" transform="translate(115,284)"/>
<path d="M0 0 C20.46 0 40.92 0 62 0 C62 6.93 62 13.86 62 21 C41.54 21 21.08 21 0 21 C0 14.07 0 7.14 0 0 Z " fill="#030303" transform="translate(239,35)"/>
<path d="M0 0 C6.6 0 13.2 0 20 0 C20 20.13 20 40.26 20 61 C13.4 61 6.8 61 0 61 C0 40.87 0 20.74 0 0 Z " fill="#000000" transform="translate(94,305)"/>
<path d="M0 0 C6.6 0 13.2 0 20 0 C20 20.13 20 40.26 20 61 C13.4 61 6.8 61 0 61 C0 40.87 0 20.74 0 0 Z " fill="#000000" transform="translate(94,222)"/>
<path d="M0 0 C6.93 0 13.86 0 21 0 C21 20.46 21 40.92 21 62 C116.7 62 212.4 62 311 62 C311 68.93 311 75.86 311 83 C310.67 83 310.34 83 310 83 C310 76.4 310 69.8 310 63 C214.63 63 119.26 63 21 63 C21 90.06 21 117.12 21 145 C20.67 145 20.34 145 20 145 C20 124.87 20 104.74 20 84 C13.4 84 6.8 84 0 84 C0 83.67 0 83.34 0 83 C6.6 83 13.2 83 20 83 C20 76.4 20 69.8 20 63 C13.4 63 6.8 63 0 63 C0 62.67 0 62.34 0 62 C6.6 62 13.2 62 20 62 C20 41.87 20 21.74 20 1 C13.4 1 6.8 1 0 1 C0 0.67 0 0.34 0 0 Z " fill="#737373" transform="translate(94,221)"/>
<path d="M0 0 C6.93 0 13.86 0 21 0 C21 6.93 21 13.86 21 21 C14.07 21 7.14 21 0 21 C0 14.07 0 7.14 0 0 Z " fill="#F6F6F6" transform="translate(384,325)"/>
<path d="M0 0 C6.93 0 13.86 0 21 0 C21 6.93 21 13.86 21 21 C14.07 21 7.14 21 0 21 C0 14.07 0 7.14 0 0 Z " fill="#0A0A0A" transform="translate(177,325)"/>
<path d="M0 0 C6.93 0 13.86 0 21 0 C21 6.93 21 13.86 21 21 C14.07 21 7.14 21 0 21 C0 14.07 0 7.14 0 0 Z " fill="#080808" transform="translate(135,325)"/>
<path d="M0 0 C6.93 0 13.86 0 21 0 C21 6.93 21 13.86 21 21 C14.07 21 7.14 21 0 21 C0 14.07 0 7.14 0 0 Z " fill="#F5F5F5" transform="translate(384,242)"/>
<path d="M0 0 C6.93 0 13.86 0 21 0 C21 6.93 21 13.86 21 21 C14.07 21 7.14 21 0 21 C0 14.07 0 7.14 0 0 Z " fill="#0A0A0A" transform="translate(177,242)"/>
<path d="M0 0 C6.93 0 13.86 0 21 0 C21 6.93 21 13.86 21 21 C14.07 21 7.14 21 0 21 C0 14.07 0 7.14 0 0 Z " fill="#090909" transform="translate(135,242)"/>
</svg>
