<?xml version="1.0" encoding="UTF-8"?>
<!-- Generator: visioncortex VTracer 0.6.4 -->
<svg version="1.1" xmlns="http://www.w3.org/2000/svg" width="452" height="418">
<path d="M0 0 C149.16 0 298.32 0 452 0 C452 137.94 452 275.88 452 418 C302.84 418 153.68 418 0 418 C0 280.06 0 142.12 0 0 Z " fill="#FEFEFE" transform="translate(0,0)"/>
<path d="M0 0 C13.86 0 27.72 0 42 0 C42 13.86 42 27.72 42 42 C48.6 42 55.2 42 62 42 C62 28.14 62 14.28 62 0 C75.86 0 89.72 0 104 0 C104 20.46 104 40.92 104 62 C110.6 62 117.2 62 124 62 C124 41.54 124 21.08 124 0 C137.86 0 151.72 0 166 0 C166 13.86 166 27.72 166 42 C172.6 42 179.2 42 186 42 C186 28.14 186 14.28 186 0 C199.86 0 213.72 0 228 0 C228 13.86 228 27.72 228 42 C221.07 42 214.14 42 207 42 C207 48.6 207 55.2 207 62 C200.07 62 193.14 62 186 62 C186 68.93 186 75.86 186 83 C179.4 83 172.8 83 166 83 C166 89.93 166 96.86 166 104 C152.14 104 138.28 104 124 104 C124 110.6 124 117.2 124 124 C171.85 124 219.7 124 269 124 C269 130.93 269 137.86 269 145 C275.93 145 282.86 145 290 145 C290 165.46 290 185.92 290 207 C283.07 207 276.14 207 269 207 C269 213.93 269 220.86 269 228 C166.7 228 64.4 228 -41 228 C-41 221.07 -41 214.14 -41 207 C-0.08 207 40.84 207 83 207 C83 186.54 83 166.08 83 145 C42.08 145 1.16 145 -41 145 C-41 138.07 -41 131.14 -41 124 C6.85 124 54.7 124 104 124 C104 117.4 104 110.8 104 104 C90.14 104 76.28 104 62 104 C62 97.07 62 90.14 62 83 C55.4 83 48.8 83 42 83 C42 76.07 42 69.14 42 62 C35.07 62 28.14 62 21 62 C21 55.4 21 48.8 21 42 C14.07 42 7.14 42 0 42 C0 28.14 0 14.28 0 0 Z " fill="#020202" transform="translate(90,161)"/>
<path d="M0 0 C34.32 0 68.64 0 104 0 C104 6.93 104 13.86 104 21 C110.93 21 117.86 21 125 21 C125 27.6 125 34.2 125 41 C131.6 41 138.2 41 145 41 C145 47.93 145 54.86 145 62 C151.93 62 158.86 62 166 62 C166 75.86 166 89.72 166 104 C152.14 104 138.28 104 124 104 C124 90.14 124 76.28 124 62 C117.4 62 110.8 62 104 62 C104 75.86 104 89.72 104 104 C90.14 104 76.28 104 62 104 C62 83.54 62 63.08 62 42 C55.4 42 48.8 42 42 42 C42 62.46 42 82.92 42 104 C28.14 104 14.28 104 0 104 C0 90.14 0 76.28 0 62 C-6.6 62 -13.2 62 -20 62 C-20 75.86 -20 89.72 -20 104 C-33.86 104 -47.72 104 -62 104 C-62 90.14 -62 76.28 -62 62 C-55.07 62 -48.14 62 -41 62 C-41 55.07 -41 48.14 -41 41 C-34.4 41 -27.8 41 -21 41 C-21 34.4 -21 27.8 -21 21 C-14.07 21 -7.14 21 0 21 C0 14.07 0 7.14 0 0 Z " fill="#040404" transform="translate(152,37)"/>
<path d="M0 0 C47.85 0 95.7 0 145 0 C145 20.46 145 40.92 145 62 C97.15 62 49.3 62 0 62 C0 41.54 0 21.08 0 0 Z " fill="#FCFCFC" transform="translate(28,306)"/>
<path d="M0 0 C6.93 0 13.86 0 21 0 C21 6.6 21 13.2 21 20 C27.6 20 34.2 20 41 20 C41 13.4 41 6.8 41 0 C47.93 0 54.86 0 62 0 C62 6.6 62 13.2 62 20 C68.93 20 75.86 20 83 20 C83 40.79 83 61.58 83 83 C69.14 83 55.28 83 41 83 C41 62.54 41 42.08 41 21 C34.4 21 27.8 21 21 21 C21 41.46 21 61.92 21 83 C7.14 83 -6.72 83 -21 83 C-21 62.21 -21 41.42 -21 20 C-14.07 20 -7.14 20 0 20 C0 13.4 0 6.8 0 0 Z " fill="#5E5E5E" transform="translate(173,58)"/>
<path d="M0 0 C13.86 0 27.72 0 42 0 C42 20.46 42 40.92 42 62 C35.07 62 28.14 62 21 62 C21 68.93 21 75.86 21 83 C14.07 83 7.14 83 0 83 C0 55.61 0 28.22 0 0 Z " fill="#050505" transform="translate(214,161)"/>
<path d="M0 0 C13.86 0 27.72 0 42 0 C42 27.39 42 54.78 42 83 C35.07 83 28.14 83 21 83 C21 76.07 21 69.14 21 62 C14.07 62 7.14 62 0 62 C0 41.54 0 21.08 0 0 Z " fill="#050505" transform="translate(152,161)"/>
<path d="M0 0 C6.6 0 13.2 0 20 0 C20 6.93 20 13.86 20 21 C26.6 21 33.2 21 40 21 C40 34.2 40 47.4 40 61 C26.8 61 13.6 61 0 61 C0 40.87 0 20.74 0 0 Z " fill="#000000" transform="translate(215,79)"/>
<path d="M0 0 C6.6 0 13.2 0 20 0 C20 20.13 20 40.26 20 61 C6.8 61 -6.4 61 -20 61 C-20 47.8 -20 34.6 -20 21 C-13.4 21 -6.8 21 0 21 C0 14.07 0 7.14 0 0 Z " fill="#000000" transform="translate(173,79)"/>
<path d="M0 0 C6.93 0 13.86 0 21 0 C21 20.46 21 40.92 21 62 C14.07 62 7.14 62 0 62 C0 41.54 0 21.08 0 0 Z " fill="#040404" transform="translate(28,306)"/>
<path d="M0 0 C6.93 0 13.86 0 21 0 C21 6.93 21 13.86 21 21 C14.07 21 7.14 21 0 21 C0 14.07 0 7.14 0 0 Z " fill="#F6F6F6" transform="translate(318,327)"/>
<path d="M0 0 C6.93 0 13.86 0 21 0 C21 6.93 21 13.86 21 21 C14.07 21 7.14 21 0 21 C0 14.07 0 7.14 0 0 Z " fill="#0A0A0A" transform="translate(111,327)"/>
<path d="M0 0 C6.93 0 13.86 0 21 0 C21 6.93 21 13.86 21 21 C14.07 21 7.14 21 0 21 C0 14.07 0 7.14 0 0 Z " fill="#080808" transform="translate(69,327)"/>
<path d="M0 0 C6.93 0 13.86 0 21 0 C21 6.93 21 13.86 21 21 C14.07 21 7.14 21 0 21 C0 14.07 0 7.14 0 0 Z " fill="#F7F7F7" transform="translate(214,223)"/>
<path d="M0 0 C6.93 0 13.86 0 21 0 C21 6.93 21 13.86 21 21 C14.07 21 7.14 21 0 21 C0 14.07 0 7.14 0 0 Z " fill="#F7F7F7" transform="translate(173,223)"/>
<path d="M0 0 C6.93 0 13.86 0 21 0 C21 6.93 21 13.86 21 21 C14.07 21 7.14 21 0 21 C0 14.07 0 7.14 0 0 Z " fill="#F5F5F5" transform="translate(235,78)"/>
<path d="M0 0 C6.93 0 13.86 0 21 0 C21 6.6 21 13.2 21 20 C14.07 20 7.14 20 0 20 C0 13.4 0 6.8 0 0 Z " fill="#F9F9F9" transform="translate(235,203)"/>
<path d="M0 0 C6.93 0 13.86 0 21 0 C21 6.6 21 13.2 21 20 C14.07 20 7.14 20 0 20 C0 13.4 0 6.8 0 0 Z " fill="#F9F9F9" transform="translate(152,203)"/>
<path d="M0 0 C6.93 0 13.86 0 21 0 C21 6.6 21 13.2 21 20 C14.07 20 7.14 20 0 20 C0 13.4 0 6.8 0 0 Z " fill="#FAFAFA" transform="translate(214,58)"/>
<path d="M0 0 C6.93 0 13.86 0 21 0 C21 6.6 21 13.2 21 20 C14.07 20 7.14 20 0 20 C0 13.4 0 6.8 0 0 Z " fill="#FAFAFA" transform="translate(173,58)"/>
<path d="M0 0 C6.6 0 13.2 0 20 0 C20 6.6 20 13.2 20 20 C13.4 20 6.8 20 0 20 C0 13.4 0 6.8 0 0 Z " fill="#FDFDFD" transform="translate(153,79)"/>
</svg>
