<?xml version="1.0" encoding="UTF-8"?>
<!-- Generator: visioncortex VTracer 0.6.4 -->
<svg version="1.1" xmlns="http://www.w3.org/2000/svg" width="425" height="422">
<path d="M0 0 C140.25 0 280.5 0 425 0 C425 139.26 425 278.52 425 422 C284.75 422 144.5 422 0 422 C0 282.74 0 143.48 0 0 Z " fill="#FEFEFE" transform="translate(0,0)"/>
<path d="M0 0 C9.9 0 19.8 0 30 0 C30 12.54 30 25.08 30 38 C37.59 38 45.18 38 53 38 C53 48.23 53 58.46 53 69 C60.59 69 68.18 69 76 69 C76 76.59 76 84.18 76 92 C83.59 92 91.18 92 99 92 C99 99.59 99 107.18 99 115 C121.77 115 144.54 115 168 115 C168 127.54 168 140.08 168 153 C160.41 153 152.82 153 145 153 C145 160.59 145 168.18 145 176 C137.41 176 129.82 176 122 176 C122 218.9 122 261.8 122 306 C109.46 306 96.92 306 84 306 C84 298.41 84 290.82 84 283 C71.46 283 58.92 283 46 283 C46 275.41 46 267.82 46 260 C25.54 260 5.08 260 -16 260 C-16 267.59 -16 275.18 -16 283 C-28.54 283 -41.08 283 -54 283 C-54 290.59 -54 298.18 -54 306 C-66.54 306 -79.08 306 -92 306 C-92 263.1 -92 220.2 -92 176 C-99.59 176 -107.18 176 -115 176 C-115 168.41 -115 160.82 -115 153 C-122.59 153 -130.18 153 -138 153 C-138 140.46 -138 127.92 -138 115 C-115.23 115 -92.46 115 -69 115 C-69 107.41 -69 99.82 -69 92 C-61.41 92 -53.82 92 -46 92 C-46 84.41 -46 76.82 -46 69 C-38.41 69 -30.82 69 -23 69 C-23 58.77 -23 48.54 -23 38 C-15.41 38 -7.82 38 0 38 C0 25.46 0 12.92 0 0 Z " fill="#FEFEFE" transform="translate(197,54)"/>
<path d="M0 0 C7.59 0 15.18 0 23 0 C23 50.49 23 100.98 23 153 C2.87 153 -17.26 153 -38 153 C-38 145.41 -38 137.82 -38 130 C-25.46 130 -12.92 130 0 130 C0 87.1 0 44.2 0 0 Z " fill="#010101" transform="translate(319,230)"/>
<path d="M0 0 C7.59 0 15.18 0 23 0 C23 42.9 23 85.8 23 130 C35.54 130 48.08 130 61 130 C61 137.59 61 145.18 61 153 C40.87 153 20.74 153 0 153 C0 102.51 0 52.02 0 0 Z " fill="#010101" transform="translate(82,230)"/>
<path d="M0 0 C30.36 0 60.72 0 92 0 C92 20.13 92 40.26 92 61 C84.41 61 76.82 61 69 61 C69 48.46 69 35.92 69 23 C46.23 23 23.46 23 0 23 C0 15.41 0 7.82 0 0 Z " fill="#030303" transform="translate(296,146)"/>
<path d="M0 0 C30.36 0 60.72 0 92 0 C92 7.59 92 15.18 92 23 C69.23 23 46.46 23 23 23 C23 35.54 23 48.08 23 61 C15.41 61 7.82 61 0 61 C0 40.87 0 20.74 0 0 Z " fill="#030303" transform="translate(36,146)"/>
<path d="M0 0 C19.8 0 39.6 0 60 0 C60 7.59 60 15.18 60 23 C40.2 23 20.4 23 0 23 C0 15.41 0 7.82 0 0 Z " fill="#010101" transform="translate(182,314)"/>
<path d="M0 0 C12.54 0 25.08 0 38 0 C38 7.59 38 15.18 38 23 C25.46 23 12.92 23 0 23 C0 15.41 0 7.82 0 0 Z " fill="#040404" transform="translate(243,337)"/>
<path d="M0 0 C12.54 0 25.08 0 38 0 C38 7.59 38 15.18 38 23 C25.46 23 12.92 23 0 23 C0 15.41 0 7.82 0 0 Z " fill="#040404" transform="translate(143,337)"/>
<path d="M0 0 C7.59 0 15.18 0 23 0 C23 12.54 23 25.08 23 38 C15.41 38 7.82 38 0 38 C0 25.46 0 12.92 0 0 Z " fill="#040404" transform="translate(227,54)"/>
<path d="M0 0 C7.59 0 15.18 0 23 0 C23 12.54 23 25.08 23 38 C15.41 38 7.82 38 0 38 C0 25.46 0 12.92 0 0 Z " fill="#040404" transform="translate(174,54)"/>
<path d="M0 0 C7.59 0 15.18 0 23 0 C23 10.23 23 20.46 23 31 C15.41 31 7.82 31 0 31 C0 20.77 0 10.54 0 0 Z " fill="#060606" transform="translate(250,92)"/>
<path d="M0 0 C7.59 0 15.18 0 23 0 C23 10.23 23 20.46 23 31 C15.41 31 7.82 31 0 31 C0 20.77 0 10.54 0 0 Z " fill="#060606" transform="translate(151,92)"/>
<path d="M0 0 C9.9 0 19.8 0 30 0 C30 7.59 30 15.18 30 23 C20.1 23 10.2 23 0 23 C0 15.41 0 7.82 0 0 Z " fill="#010101" transform="translate(197,31)"/>
<path d="M0 0 C7.59 0 15.18 0 23 0 C23 7.59 23 15.18 23 23 C15.41 23 7.82 23 0 23 C0 15.41 0 7.82 0 0 Z " fill="#040404" transform="translate(342,207)"/>
<path d="M0 0 C7.59 0 15.18 0 23 0 C23 7.59 23 15.18 23 23 C15.41 23 7.82 23 0 23 C0 15.41 0 7.82 0 0 Z " fill="#040404" transform="translate(59,207)"/>
<path d="M0 0 C7.59 0 15.18 0 23 0 C23 7.59 23 15.18 23 23 C15.41 23 7.82 23 0 23 C0 15.41 0 7.82 0 0 Z " fill="#020202" transform="translate(273,123)"/>
<path d="M0 0 C7.59 0 15.18 0 23 0 C23 7.59 23 15.18 23 23 C15.41 23 7.82 23 0 23 C0 15.41 0 7.82 0 0 Z " fill="#020202" transform="translate(128,123)"/>
</svg>
