<?xml version="1.0" encoding="UTF-8"?>
<!-- Generator: visioncortex VTracer 0.6.4 -->
<svg version="1.1" xmlns="http://www.w3.org/2000/svg" width="452" height="420">
<path d="M0 0 C149.16 0 298.32 0 452 0 C452 138.6 452 277.2 452 420 C302.84 420 153.68 420 0 420 C0 281.4 0 142.8 0 0 Z " fill="#FEFEFE" transform="translate(0,0)"/>
<path d="M0 0 C9.9 0 19.8 0 30 0 C30 7.59 30 15.18 30 23 C37.59 23 45.18 23 53 23 C53 35.54 53 48.08 53 61 C60.59 61 68.18 61 76 61 C76 71.23 76 81.46 76 92 C83.59 92 91.18 92 99 92 C99 99.59 99 107.18 99 115 C129.36 115 159.72 115 191 115 C191 135.13 191 155.26 191 176 C183.41 176 175.82 176 168 176 C168 183.59 168 191.18 168 199 C160.41 199 152.82 199 145 199 C145 249.49 145 299.98 145 352 C124.87 352 104.74 352 84 352 C84 344.41 84 336.82 84 329 C71.46 329 58.92 329 46 329 C46 321.41 46 313.82 46 306 C25.54 306 5.08 306 -16 306 C-16 313.59 -16 321.18 -16 329 C-28.54 329 -41.08 329 -54 329 C-54 336.59 -54 344.18 -54 352 C-74.13 352 -94.26 352 -115 352 C-115 301.51 -115 251.02 -115 199 C-122.59 199 -130.18 199 -138 199 C-138 191.41 -138 183.82 -138 176 C-145.59 176 -153.18 176 -161 176 C-161 155.87 -161 135.74 -161 115 C-130.64 115 -100.28 115 -69 115 C-69 107.41 -69 99.82 -69 92 C-61.41 92 -53.82 92 -46 92 C-46 81.77 -46 71.54 -46 61 C-38.41 61 -30.82 61 -23 61 C-23 48.46 -23 35.92 -23 23 C-15.41 23 -7.82 23 0 23 C0 15.41 0 7.82 0 0 Z " fill="#000000" transform="translate(206,34)"/>
</svg>
