<?xml version="1.0" encoding="UTF-8"?>
<!-- Generator: visioncortex VTracer 0.6.4 -->
<svg version="1.1" xmlns="http://www.w3.org/2000/svg" width="445" height="430">
<path d="M0 0 C146.85 0 293.7 0 445 0 C445 141.9 445 283.8 445 430 C298.15 430 151.3 430 0 430 C0 288.1 0 146.2 0 0 Z " fill="#FEFEFE" transform="translate(0,0)"/>
<path d="M0 0 C7.59 0 15.18 0 23 0 C23 17.82 23 35.64 23 54 C43.46 54 63.92 54 85 54 C85 36.18 85 18.36 85 0 C92.59 0 100.18 0 108 0 C108 25.08 108 50.16 108 76 C122.85 76 137.7 76 153 76 C153 68.74 153 61.48 153 54 C160.59 54 168.18 54 176 54 C176 61.59 176 69.18 176 77 C168.74 77 161.48 77 154 77 C154 91.85 154 106.7 154 122 C179.08 122 204.16 122 230 122 C230 129.59 230 137.18 230 145 C212.18 145 194.36 145 176 145 C176 165.46 176 185.92 176 207 C193.82 207 211.64 207 230 207 C230 214.59 230 222.18 230 230 C204.92 230 179.84 230 154 230 C154 244.85 154 259.7 154 275 C161.26 275 168.52 275 176 275 C176 282.59 176 290.18 176 298 C168.41 298 160.82 298 153 298 C153 290.74 153 283.48 153 276 C138.15 276 123.3 276 108 276 C108 301.08 108 326.16 108 352 C100.41 352 92.82 352 85 352 C85 334.18 85 316.36 85 298 C64.54 298 44.08 298 23 298 C23 315.82 23 333.64 23 352 C15.41 352 7.82 352 0 352 C0 326.92 0 301.84 0 276 C-14.85 276 -29.7 276 -45 276 C-45 283.26 -45 290.52 -45 298 C-52.59 298 -60.18 298 -68 298 C-68 290.41 -68 282.82 -68 275 C-60.74 275 -53.48 275 -46 275 C-46 260.15 -46 245.3 -46 230 C-71.08 230 -96.16 230 -122 230 C-122 222.41 -122 214.82 -122 207 C-104.18 207 -86.36 207 -68 207 C-68 186.54 -68 166.08 -68 145 C-85.82 145 -103.64 145 -122 145 C-122 137.41 -122 129.82 -122 122 C-96.92 122 -71.84 122 -46 122 C-46 107.15 -46 92.3 -46 77 C-53.26 77 -60.52 77 -68 77 C-68 69.41 -68 61.82 -68 54 C-60.41 54 -52.82 54 -45 54 C-45 61.26 -45 68.52 -45 76 C-30.15 76 -15.3 76 0 76 C0 50.92 0 25.84 0 0 Z " fill="#010101" transform="translate(173,54)"/>
<path d="M0 0 C7.26 0 14.52 0 22 0 C22 7.26 22 14.52 22 22 C14.74 22 7.48 22 0 22 C0 14.74 0 7.48 0 0 Z " fill="#000000" transform="translate(350,353)"/>
<path d="M0 0 C7.26 0 14.52 0 22 0 C22 7.26 22 14.52 22 22 C14.74 22 7.48 22 0 22 C0 14.74 0 7.48 0 0 Z " fill="#000000" transform="translate(82,353)"/>
<path d="M0 0 C7.26 0 14.52 0 22 0 C22 7.26 22 14.52 22 22 C14.74 22 7.48 22 0 22 C0 14.74 0 7.48 0 0 Z " fill="#000000" transform="translate(350,85)"/>
<path d="M0 0 C7.26 0 14.52 0 22 0 C22 7.26 22 14.52 22 22 C14.74 22 7.48 22 0 22 C0 14.74 0 7.48 0 0 Z " fill="#000000" transform="translate(82,85)"/>
<path d="M0 0 C0.33 0 0.66 0 1 0 C1 7.26 1 14.52 1 22 C8.59 22 16.18 22 24 22 C24.021 25.774 24.041 29.549 24.062 33.438 C24.072 34.629 24.081 35.821 24.09 37.049 C24.093 37.98 24.095 38.911 24.098 39.871 C24.103 40.829 24.108 41.788 24.114 42.775 C24 45 24 45 23 46 C21.292 46.087 19.581 46.107 17.871 46.098 C16.94 46.095 16.008 46.093 15.049 46.09 C13.261 46.076 13.261 46.076 11.438 46.062 C7.663 46.042 3.889 46.021 0 46 C0 38.41 0 30.82 0 23 C-7.26 23 -14.52 23 -22 23 C-22 22.67 -22 22.34 -22 22 C-14.74 22 -7.48 22 0 22 C0 14.74 0 7.48 0 0 Z M1 23 C1 30.26 1 37.52 1 45 C8.26 45 15.52 45 23 45 C23 37.74 23 30.48 23 23 C15.74 23 8.48 23 1 23 Z " fill="#878787" transform="translate(349,330)"/>
<path d="M0 0 C0.33 0 0.66 0 1 0 C1 7.26 1 14.52 1 22 C8.26 22 15.52 22 23 22 C23 22.33 23 22.66 23 23 C15.74 23 8.48 23 1 23 C1 30.59 1 38.18 1 46 C-2.774 46.021 -6.549 46.041 -10.438 46.062 C-11.629 46.072 -12.821 46.081 -14.049 46.09 C-15.446 46.094 -15.446 46.094 -16.871 46.098 C-17.829 46.103 -18.788 46.108 -19.775 46.114 C-22 46 -22 46 -23 45 C-23.087 43.292 -23.107 41.581 -23.098 39.871 C-23.095 38.94 -23.093 38.008 -23.09 37.049 C-23.081 35.857 -23.072 34.665 -23.062 33.438 C-23.042 29.663 -23.021 25.889 -23 22 C-15.41 22 -7.82 22 0 22 C0 14.74 0 7.48 0 0 Z M-22 23 C-22 30.26 -22 37.52 -22 45 C-14.74 45 -7.48 45 0 45 C0 37.74 0 30.48 0 23 C-7.26 23 -14.52 23 -22 23 Z " fill="#878787" transform="translate(104,330)"/>
<path d="M0 0 C0.33 0 0.66 0 1 0 C1 14.85 1 29.7 1 45 C8.26 45 15.52 45 23 45 C23 45.33 23 45.66 23 46 C15.74 46 8.48 46 1 46 C1 53.26 1 60.52 1 68 C0.67 68 0.34 68 0 68 C0 60.74 0 53.48 0 46 C-14.85 46 -29.7 46 -45 46 C-45 45.67 -45 45.34 -45 45 C-30.15 45 -15.3 45 0 45 C0 30.15 0 15.3 0 0 Z " fill="#7D7D7D" transform="translate(326,284)"/>
<path d="M0 0 C0.33 0 0.66 0 1 0 C1 14.85 1 29.7 1 45 C15.85 45 30.7 45 46 45 C46 45.33 46 45.66 46 46 C31.15 46 16.3 46 1 46 C1 53.26 1 60.52 1 68 C0.67 68 0.34 68 0 68 C0 60.74 0 53.48 0 46 C-7.26 46 -14.52 46 -22 46 C-22 45.67 -22 45.34 -22 45 C-14.74 45 -7.48 45 0 45 C0 30.15 0 15.3 0 0 Z " fill="#7D7D7D" transform="translate(127,284)"/>
<path d="M0 0 C0.33 0 0.66 0 1 0 C1 7.26 1 14.52 1 22 C8.26 22 15.52 22 23 22 C23 22.33 23 22.66 23 23 C15.74 23 8.48 23 1 23 C1 37.85 1 52.7 1 68 C0.67 68 0.34 68 0 68 C0 53.15 0 38.3 0 23 C-14.85 23 -29.7 23 -45 23 C-45 22.67 -45 22.34 -45 22 C-30.15 22 -15.3 22 0 22 C0 14.74 0 7.48 0 0 Z " fill="#7D7D7D" transform="translate(326,108)"/>
<path d="M0 0 C0.33 0 0.66 0 1 0 C1 7.26 1 14.52 1 22 C15.85 22 30.7 22 46 22 C46 22.33 46 22.66 46 23 C31.15 23 16.3 23 1 23 C1 37.85 1 52.7 1 68 C0.67 68 0.34 68 0 68 C0 53.15 0 38.3 0 23 C-7.26 23 -14.52 23 -22 23 C-22 22.67 -22 22.34 -22 22 C-14.74 22 -7.48 22 0 22 C0 14.74 0 7.48 0 0 Z " fill="#7D7D7D" transform="translate(127,108)"/>
<path d="M0 0 C3.774 -0.021 7.549 -0.041 11.438 -0.062 C12.629 -0.072 13.821 -0.081 15.049 -0.09 C16.446 -0.094 16.446 -0.094 17.871 -0.098 C18.829 -0.103 19.788 -0.108 20.775 -0.114 C23 0 23 0 24 1 C24.087 2.708 24.107 4.419 24.098 6.129 C24.095 7.06 24.093 7.992 24.09 8.951 C24.081 10.143 24.072 11.335 24.062 12.562 C24.042 16.337 24.021 20.111 24 24 C16.41 24 8.82 24 1 24 C1 31.26 1 38.52 1 46 C0.67 46 0.34 46 0 46 C0 38.74 0 31.48 0 24 C-7.26 24 -14.52 24 -22 24 C-22 23.67 -22 23.34 -22 23 C-14.74 23 -7.48 23 0 23 C0 15.41 0 7.82 0 0 Z M1 1 C1 8.26 1 15.52 1 23 C8.26 23 15.52 23 23 23 C23 15.74 23 8.48 23 1 C15.74 1 8.48 1 1 1 Z " fill="#878787" transform="translate(349,84)"/>
<path d="M0 0 C0.958 0.005 1.917 0.01 2.904 0.016 C3.835 0.018 4.767 0.021 5.727 0.023 C7.514 0.037 7.514 0.037 9.338 0.051 C13.112 0.072 16.886 0.092 20.775 0.114 C20.775 7.704 20.775 15.294 20.775 23.114 C28.035 23.114 35.295 23.114 42.775 23.114 C42.775 23.444 42.775 23.774 42.775 24.114 C35.515 24.114 28.255 24.114 20.775 24.114 C20.775 31.374 20.775 38.634 20.775 46.114 C20.445 46.114 20.115 46.114 19.775 46.114 C19.775 38.854 19.775 31.594 19.775 24.114 C12.185 24.114 4.595 24.114 -3.225 24.114 C-3.245 20.339 -3.266 16.565 -3.287 12.676 C-3.296 11.484 -3.306 10.293 -3.315 9.065 C-3.317 8.134 -3.32 7.202 -3.323 6.242 C-3.328 5.284 -3.333 4.326 -3.338 3.338 C-3.185 0.33 -3.008 0.153 0 0 Z M-2.225 1.114 C-2.225 8.374 -2.225 15.634 -2.225 23.114 C5.035 23.114 12.295 23.114 19.775 23.114 C19.775 15.854 19.775 8.594 19.775 1.114 C12.515 1.114 5.255 1.114 -2.225 1.114 Z " fill="#878787" transform="translate(84.224853515625,83.886474609375)"/>
</svg>
