<?xml version="1.0" encoding="UTF-8"?>
<!-- Generator: visioncortex VTracer 0.6.4 -->
<svg version="1.1" xmlns="http://www.w3.org/2000/svg" width="476" height="430">
<path d="M0 0 C157.08 0 314.16 0 476 0 C476 141.9 476 283.8 476 430 C318.92 430 161.84 430 0 430 C0 288.1 0 146.2 0 0 Z " fill="#FEFEFE" transform="translate(0,0)"/>
<path d="M0 0 C34.98 0 69.96 0 106 0 C106 7.59 106 15.18 106 23 C113.59 23 121.18 23 129 23 C129 30.59 129 38.18 129 46 C136.59 46 144.18 46 152 46 C152 80.98 152 115.96 152 152 C144.41 152 136.82 152 129 152 C129 159.59 129 167.18 129 175 C121.41 175 113.82 175 106 175 C106 182.59 106 190.18 106 198 C71.02 198 36.04 198 0 198 C0 190.41 0 182.82 0 175 C-7.59 175 -15.18 175 -23 175 C-23 167.41 -23 159.82 -23 152 C-30.59 152 -38.18 152 -46 152 C-46 117.02 -46 82.04 -46 46 C-38.41 46 -30.82 46 -23 46 C-23 38.41 -23 30.82 -23 23 C-15.41 23 -7.82 23 0 23 C0 15.41 0 7.82 0 0 Z " fill="#FEFEFE" transform="translate(157,118)"/>
<path d="M0 0 C7.59 0 15.18 0 23 0 C23 17.82 23 35.64 23 54 C43.46 54 63.92 54 85 54 C85 36.18 85 18.36 85 0 C92.59 0 100.18 0 108 0 C108 25.08 108 50.16 108 76 C122.85 76 137.7 76 153 76 C153 68.74 153 61.48 153 54 C160.59 54 168.18 54 176 54 C176 61.59 176 69.18 176 77 C168.74 77 161.48 77 154 77 C154 91.85 154 106.7 154 122 C179.08 122 204.16 122 230 122 C230 129.59 230 137.18 230 145 C212.18 145 194.36 145 176 145 C176 165.46 176 185.92 176 207 C193.82 207 211.64 207 230 207 C230 214.59 230 222.18 230 230 C204.92 230 179.84 230 154 230 C154 244.85 154 259.7 154 275 C161.26 275 168.52 275 176 275 C176 282.59 176 290.18 176 298 C168.41 298 160.82 298 153 298 C153 290.74 153 283.48 153 276 C138.15 276 123.3 276 108 276 C108 301.08 108 326.16 108 352 C100.41 352 92.82 352 85 352 C85 334.18 85 316.36 85 298 C64.54 298 44.08 298 23 298 C23 315.82 23 333.64 23 352 C15.41 352 7.82 352 0 352 C0 326.92 0 301.84 0 276 C-14.85 276 -29.7 276 -45 276 C-45 283.26 -45 290.52 -45 298 C-52.59 298 -60.18 298 -68 298 C-68 290.41 -68 282.82 -68 275 C-60.74 275 -53.48 275 -46 275 C-46 260.15 -46 245.3 -46 230 C-71.08 230 -96.16 230 -122 230 C-122 222.41 -122 214.82 -122 207 C-104.18 207 -86.36 207 -68 207 C-68 186.54 -68 166.08 -68 145 C-85.82 145 -103.64 145 -122 145 C-122 137.41 -122 129.82 -122 122 C-96.92 122 -71.84 122 -46 122 C-46 107.15 -46 92.3 -46 77 C-53.26 77 -60.52 77 -68 77 C-68 69.41 -68 61.82 -68 54 C-60.41 54 -52.82 54 -45 54 C-45 61.26 -45 68.52 -45 76 C-30.15 76 -15.3 76 0 76 C0 50.92 0 25.84 0 0 Z M1 77 C1 84.59 1 92.18 1 100 C-6.59 100 -14.18 100 -22 100 C-22 107.59 -22 115.18 -22 123 C-29.59 123 -37.18 123 -45 123 C-45 157.98 -45 192.96 -45 229 C-37.41 229 -29.82 229 -22 229 C-22 236.59 -22 244.18 -22 252 C-14.41 252 -6.82 252 1 252 C1 259.59 1 267.18 1 275 C35.98 275 70.96 275 107 275 C107 267.41 107 259.82 107 252 C114.59 252 122.18 252 130 252 C130 244.41 130 236.82 130 229 C137.59 229 145.18 229 153 229 C153 194.02 153 159.04 153 123 C145.41 123 137.82 123 130 123 C130 115.41 130 107.82 130 100 C122.41 100 114.82 100 107 100 C107 92.41 107 84.82 107 77 C72.02 77 37.04 77 1 77 Z " fill="#797979" transform="translate(156,41)"/>
<path d="M0 0 C34.98 0 69.96 0 106 0 C106 25.08 106 50.16 106 76 C98.74 76 91.48 76 84 76 C84 58.18 84 40.36 84 22 C63.54 22 43.08 22 22 22 C22 39.82 22 57.64 22 76 C14.74 76 7.48 76 0 76 C0 50.92 0 25.84 0 0 Z " fill="#000000" transform="translate(157,317)"/>
<path d="M0 0 C25.08 0 50.16 0 76 0 C76 7.26 76 14.52 76 22 C58.18 22 40.36 22 22 22 C22 42.46 22 62.92 22 84 C39.82 84 57.64 84 76 84 C76 91.26 76 98.52 76 106 C50.92 106 25.84 106 0 106 C0 71.02 0 36.04 0 0 Z " fill="#000000" transform="translate(310,164)"/>
<path d="M0 0 C25.08 0 50.16 0 76 0 C76 34.98 76 69.96 76 106 C50.92 106 25.84 106 0 106 C0 98.74 0 91.48 0 84 C17.82 84 35.64 84 54 84 C54 63.54 54 43.08 54 22 C36.18 22 18.36 22 0 22 C0 14.74 0 7.48 0 0 Z " fill="#000000" transform="translate(34,164)"/>
<path d="M0 0 C7.26 0 14.52 0 22 0 C22 17.82 22 35.64 22 54 C42.46 54 62.92 54 84 54 C84 36.18 84 18.36 84 0 C91.26 0 98.52 0 106 0 C106 25.08 106 50.16 106 76 C71.02 76 36.04 76 0 76 C0 50.92 0 25.84 0 0 Z " fill="#000000" transform="translate(157,41)"/>
<path d="M0 0 C7.26 0 14.52 0 22 0 C22 14.85 22 29.7 22 45 C7.15 45 -7.7 45 -23 45 C-23 37.74 -23 30.48 -23 23 C-15.74 22.67 -8.48 22.34 -1 22 C-0.67 14.74 -0.34 7.48 0 0 Z " fill="#000000" transform="translate(287,271)"/>
<path d="M0 0 C7.26 0 14.52 0 22 0 C22.33 7.26 22.66 14.52 23 22 C30.26 22.33 37.52 22.66 45 23 C45 30.26 45 37.52 45 45 C30.15 45 15.3 45 0 45 C0 30.15 0 15.3 0 0 Z " fill="#000000" transform="translate(111,271)"/>
<path d="M0 0 C14.85 0 29.7 0 45 0 C45 14.85 45 29.7 45 45 C37.74 45 30.48 45 23 45 C22.67 37.74 22.34 30.48 22 23 C14.74 22.67 7.48 22.34 0 22 C0 14.74 0 7.48 0 0 Z " fill="#000000" transform="translate(264,118)"/>
<path d="M0 0 C14.85 0 29.7 0 45 0 C45 7.26 45 14.52 45 22 C37.74 22.33 30.48 22.66 23 23 C22.67 30.26 22.34 37.52 22 45 C14.74 45 7.48 45 0 45 C0 30.15 0 15.3 0 0 Z " fill="#000000" transform="translate(111,118)"/>
<path d="M0 0 C0.33 0 0.66 0 1 0 C1 7.59 1 15.18 1 23 C-6.59 23 -14.18 23 -22 23 C-22 57.98 -22 92.96 -22 129 C-14.41 129 -6.82 129 1 129 C1 136.59 1 144.18 1 152 C8.59 152 16.18 152 24 152 C24 159.59 24 167.18 24 175 C58.98 175 93.96 175 130 175 C130 167.41 130 159.82 130 152 C137.59 152 145.18 152 153 152 C153 152.33 153 152.66 153 153 C145.74 153 138.48 153 131 153 C131 185.67 131 218.34 131 252 C130.67 252 130.34 252 130 252 C130 226.92 130 201.84 130 176 C95.02 176 60.04 176 24 176 C24 201.08 24 226.16 24 252 C23.67 252 23.34 252 23 252 C23 226.92 23 201.84 23 176 C8.15 176 -6.7 176 -22 176 C-22 183.26 -22 190.52 -22 198 C-29.59 198 -37.18 198 -45 198 C-45 190.41 -45 182.82 -45 175 C-37.74 175 -30.48 175 -23 175 C-23 160.15 -23 145.3 -23 130 C-48.08 130 -73.16 130 -99 130 C-99 129.67 -99 129.34 -99 129 C-73.92 129 -48.84 129 -23 129 C-23 94.02 -23 59.04 -23 23 C-48.08 23 -73.16 23 -99 23 C-99 22.67 -99 22.34 -99 22 C-66.33 22 -33.66 22 0 22 C0 14.74 0 7.48 0 0 Z M-22 130 C-22 144.85 -22 159.7 -22 175 C-7.15 175 7.7 175 23 175 C23 167.74 23 160.48 23 153 C12.11 152.505 12.11 152.505 1 152 C0.67 144.74 0.34 137.48 0 130 C-7.26 130 -14.52 130 -22 130 Z " fill="#777777" transform="translate(133,141)"/>
<path d="M0 0 C0.33 0 0.66 0 1 0 C1 7.26 1 14.52 1 22 C33.67 22 66.34 22 100 22 C100 22.33 100 22.66 100 23 C74.92 23 49.84 23 24 23 C24 57.98 24 92.96 24 129 C49.08 129 74.16 129 100 129 C100 129.33 100 129.66 100 130 C74.92 130 49.84 130 24 130 C24 144.85 24 159.7 24 175 C31.26 175 38.52 175 46 175 C46 182.59 46 190.18 46 198 C38.41 198 30.82 198 23 198 C23 190.74 23 183.48 23 176 C8.15 176 -6.7 176 -22 176 C-22 175.67 -22 175.34 -22 175 C-7.15 175 7.7 175 23 175 C23 160.15 23 145.3 23 130 C15.74 130 8.48 130 1 130 C1 137.26 1 144.52 1 152 C0.67 152 0.34 152 0 152 C0 144.41 0 136.82 0 129 C7.59 129 15.18 129 23 129 C23 94.02 23 59.04 23 23 C15.41 23 7.82 23 0 23 C0 15.41 0 7.82 0 0 Z " fill="#777777" transform="translate(286,141)"/>
<path d="M0 0 C7.26 0 14.52 0 22 0 C22 7.26 22 14.52 22 22 C14.74 22 7.48 22 0 22 C0 14.74 0 7.48 0 0 Z " fill="#000000" transform="translate(333,340)"/>
<path d="M0 0 C7.26 0 14.52 0 22 0 C22 7.26 22 14.52 22 22 C14.74 22 7.48 22 0 22 C0 14.74 0 7.48 0 0 Z " fill="#000000" transform="translate(65,340)"/>
<path d="M0 0 C7.26 0 14.52 0 22 0 C22 7.26 22 14.52 22 22 C14.74 22 7.48 22 0 22 C0 14.74 0 7.48 0 0 Z " fill="#000000" transform="translate(310,317)"/>
<path d="M0 0 C7.26 0 14.52 0 22 0 C22 7.26 22 14.52 22 22 C14.74 22 7.48 22 0 22 C0 14.74 0 7.48 0 0 Z " fill="#000000" transform="translate(88,317)"/>
<path d="M0 0 C7.26 0 14.52 0 22 0 C22 7.26 22 14.52 22 22 C14.74 22 7.48 22 0 22 C0 14.74 0 7.48 0 0 Z " fill="#000000" transform="translate(310,95)"/>
<path d="M0 0 C7.26 0 14.52 0 22 0 C22 7.26 22 14.52 22 22 C14.74 22 7.48 22 0 22 C0 14.74 0 7.48 0 0 Z " fill="#000000" transform="translate(88,95)"/>
<path d="M0 0 C7.26 0 14.52 0 22 0 C22 7.26 22 14.52 22 22 C14.74 22 7.48 22 0 22 C0 14.74 0 7.48 0 0 Z " fill="#000000" transform="translate(333,72)"/>
<path d="M0 0 C7.26 0 14.52 0 22 0 C22 7.26 22 14.52 22 22 C14.74 22 7.48 22 0 22 C0 14.74 0 7.48 0 0 Z " fill="#000000" transform="translate(65,72)"/>
<path d="M0 0 C0.33 0 0.66 0 1 0 C1 7.26 1 14.52 1 22 C8.59 22 16.18 22 24 22 C24.021 25.774 24.041 29.549 24.062 33.438 C24.072 34.629 24.081 35.821 24.09 37.049 C24.093 37.98 24.095 38.911 24.098 39.871 C24.103 40.829 24.108 41.788 24.114 42.775 C24 45 24 45 23 46 C21.292 46.087 19.581 46.107 17.871 46.098 C16.94 46.095 16.008 46.093 15.049 46.09 C13.261 46.076 13.261 46.076 11.438 46.062 C7.663 46.042 3.889 46.021 0 46 C0 38.41 0 30.82 0 23 C-7.26 23 -14.52 23 -22 23 C-22 22.67 -22 22.34 -22 22 C-14.74 22 -7.48 22 0 22 C0 14.74 0 7.48 0 0 Z M1 23 C1 30.26 1 37.52 1 45 C8.26 45 15.52 45 23 45 C23 37.74 23 30.48 23 23 C15.74 23 8.48 23 1 23 Z " fill="#878787" transform="translate(332,317)"/>
<path d="M0 0 C0.33 0 0.66 0 1 0 C1 7.26 1 14.52 1 22 C8.26 22 15.52 22 23 22 C23 22.33 23 22.66 23 23 C15.74 23 8.48 23 1 23 C1 30.59 1 38.18 1 46 C-2.774 46.021 -6.549 46.041 -10.438 46.062 C-11.629 46.072 -12.821 46.081 -14.049 46.09 C-15.446 46.094 -15.446 46.094 -16.871 46.098 C-17.829 46.103 -18.788 46.108 -19.775 46.114 C-22 46 -22 46 -23 45 C-23.087 43.292 -23.107 41.581 -23.098 39.871 C-23.095 38.94 -23.093 38.008 -23.09 37.049 C-23.081 35.857 -23.072 34.665 -23.062 33.438 C-23.042 29.663 -23.021 25.889 -23 22 C-15.41 22 -7.82 22 0 22 C0 14.74 0 7.48 0 0 Z M-22 23 C-22 30.26 -22 37.52 -22 45 C-14.74 45 -7.48 45 0 45 C0 37.74 0 30.48 0 23 C-7.26 23 -14.52 23 -22 23 Z " fill="#878787" transform="translate(87,317)"/>
<path d="M0 0 C0.33 0 0.66 0 1 0 C1 14.85 1 29.7 1 45 C8.26 45 15.52 45 23 45 C23 45.33 23 45.66 23 46 C15.74 46 8.48 46 1 46 C1 53.26 1 60.52 1 68 C0.67 68 0.34 68 0 68 C0 60.74 0 53.48 0 46 C-14.85 46 -29.7 46 -45 46 C-45 45.67 -45 45.34 -45 45 C-30.15 45 -15.3 45 0 45 C0 30.15 0 15.3 0 0 Z " fill="#7D7D7D" transform="translate(309,271)"/>
<path d="M0 0 C0.33 0 0.66 0 1 0 C1 14.85 1 29.7 1 45 C15.85 45 30.7 45 46 45 C46 45.33 46 45.66 46 46 C31.15 46 16.3 46 1 46 C1 53.26 1 60.52 1 68 C0.67 68 0.34 68 0 68 C0 60.74 0 53.48 0 46 C-7.26 46 -14.52 46 -22 46 C-22 45.67 -22 45.34 -22 45 C-14.74 45 -7.48 45 0 45 C0 30.15 0 15.3 0 0 Z " fill="#7D7D7D" transform="translate(110,271)"/>
<path d="M0 0 C0.33 0 0.66 0 1 0 C1 7.26 1 14.52 1 22 C15.85 22 30.7 22 46 22 C46 22.33 46 22.66 46 23 C31.15 23 16.3 23 1 23 C1 37.85 1 52.7 1 68 C0.67 68 0.34 68 0 68 C0 53.15 0 38.3 0 23 C-7.26 23 -14.52 23 -22 23 C-22 22.67 -22 22.34 -22 22 C-14.74 22 -7.48 22 0 22 C0 14.74 0 7.48 0 0 Z " fill="#7D7D7D" transform="translate(110,95)"/>
<path d="M0 0 C3.774 -0.021 7.549 -0.041 11.438 -0.062 C12.629 -0.072 13.821 -0.081 15.049 -0.09 C16.446 -0.094 16.446 -0.094 17.871 -0.098 C18.829 -0.103 19.788 -0.108 20.775 -0.114 C23 0 23 0 24 1 C24.087 2.708 24.107 4.419 24.098 6.129 C24.095 7.06 24.093 7.992 24.09 8.951 C24.081 10.143 24.072 11.335 24.062 12.562 C24.042 16.337 24.021 20.111 24 24 C16.41 24 8.82 24 1 24 C1 31.26 1 38.52 1 46 C0.67 46 0.34 46 0 46 C0 38.74 0 31.48 0 24 C-7.26 24 -14.52 24 -22 24 C-22 23.67 -22 23.34 -22 23 C-14.74 23 -7.48 23 0 23 C0 15.41 0 7.82 0 0 Z M1 1 C1 8.26 1 15.52 1 23 C8.26 23 15.52 23 23 23 C23 15.74 23 8.48 23 1 C15.74 1 8.48 1 1 1 Z " fill="#878787" transform="translate(332,71)"/>
<path d="M0 0 C0.958 0.005 1.917 0.01 2.904 0.016 C3.835 0.018 4.767 0.021 5.727 0.023 C7.514 0.037 7.514 0.037 9.338 0.051 C13.112 0.072 16.886 0.092 20.775 0.114 C20.775 7.704 20.775 15.294 20.775 23.114 C28.035 23.114 35.295 23.114 42.775 23.114 C42.775 23.444 42.775 23.774 42.775 24.114 C35.515 24.114 28.255 24.114 20.775 24.114 C20.775 31.374 20.775 38.634 20.775 46.114 C20.445 46.114 20.115 46.114 19.775 46.114 C19.775 38.854 19.775 31.594 19.775 24.114 C12.185 24.114 4.595 24.114 -3.225 24.114 C-3.245 20.339 -3.266 16.565 -3.287 12.676 C-3.296 11.484 -3.306 10.293 -3.315 9.065 C-3.317 8.134 -3.32 7.202 -3.323 6.242 C-3.328 5.284 -3.333 4.326 -3.338 3.338 C-3.185 0.33 -3.008 0.153 0 0 Z M-2.225 1.114 C-2.225 8.374 -2.225 15.634 -2.225 23.114 C5.035 23.114 12.295 23.114 19.775 23.114 C19.775 15.854 19.775 8.594 19.775 1.114 C12.515 1.114 5.255 1.114 -2.225 1.114 Z " fill="#878787" transform="translate(67.224853515625,70.886474609375)"/>
</svg>
