<?xml version="1.0" encoding="UTF-8"?>
<!-- Generator: visioncortex VTracer 0.6.4 -->
<svg version="1.1" xmlns="http://www.w3.org/2000/svg" width="407" height="403">
<path d="M0 0 C134.31 0 268.62 0 407 0 C407 132.99 407 265.98 407 403 C272.69 403 138.38 403 0 403 C0 270.01 0 137.02 0 0 Z " fill="#FDFDFD" transform="translate(0,0)"/>
<path d="M0 0 C134.31 0 268.62 0 407 0 C407 132.99 407 265.98 407 403 C272.69 403 138.38 403 0 403 C0 270.01 0 137.02 0 0 Z M110 27 C110 42.18 110 57.36 110 73 C97.46 73 84.92 73 72 73 C72 80.59 72 88.18 72 96 C64.41 96 56.82 96 49 96 C49 103.59 49 111.18 49 119 C41.41 119 33.82 119 26 119 C26 126.59 26 134.18 26 142 C33.59 142 41.18 142 49 142 C49 212.62 49 283.24 49 356 C56.59 356 64.18 356 72 356 C72 363.59 72 371.18 72 379 C139.98 379 207.96 379 278 379 C278 371.41 278 363.82 278 356 C285.59 356 293.18 356 301 356 C301 285.38 301 214.76 301 142 C308.59 142 316.18 142 324 142 C324 134.41 324 126.82 324 119 C316.41 119 308.82 119 301 119 C301 111.41 301 103.82 301 96 C293.41 96 285.82 96 278 96 C278 88.41 278 80.82 278 73 C265.46 73 252.92 73 240 73 C240 57.82 240 42.64 240 27 C197.1 27 154.2 27 110 27 Z " fill="#FEFEFE" transform="translate(0,0)"/>
<path d="M0 0 C42.9 0 85.8 0 130 0 C130 15.18 130 30.36 130 46 C142.54 46 155.08 46 168 46 C168 53.59 168 61.18 168 69 C175.59 69 183.18 69 191 69 C191 76.59 191 84.18 191 92 C198.59 92 206.18 92 214 92 C214 99.59 214 107.18 214 115 C206.41 115 198.82 115 191 115 C191 185.62 191 256.24 191 329 C183.41 329 175.82 329 168 329 C168 258.38 168 187.76 168 115 C100.02 115 32.04 115 -38 115 C-38 185.62 -38 256.24 -38 329 C-45.59 329 -53.18 329 -61 329 C-61 258.38 -61 187.76 -61 115 C-68.59 115 -76.18 115 -84 115 C-84 107.41 -84 99.82 -84 92 C-76.41 92 -68.82 92 -61 92 C-61 84.41 -61 76.82 -61 69 C-53.41 69 -45.82 69 -38 69 C-38 61.41 -38 53.82 -38 46 C-25.46 46 -12.92 46 0 46 C0 30.82 0 15.64 0 0 Z " fill="#020202" transform="translate(110,27)"/>
<path d="M0 0 C42.9 0 85.8 0 130 0 C130 15.18 130 30.36 130 46 C142.54 46 155.08 46 168 46 C168 61.18 168 76.36 168 92 C100.02 92 32.04 92 -38 92 C-38 76.82 -38 61.64 -38 46 C-25.46 46 -12.92 46 0 46 C0 30.82 0 15.64 0 0 Z " fill="#010101" transform="translate(110,27)"/>
<path d="M0 0 C67.98 0 135.96 0 206 0 C206 7.59 206 15.18 206 23 C138.02 23 70.04 23 0 23 C0 15.41 0 7.82 0 0 Z " fill="#010101" transform="translate(72,356)"/>
<path d="M0 0 C67.98 0 135.96 0 206 0 C206 7.59 206 15.18 206 23 C138.02 23 70.04 23 0 23 C0 15.41 0 7.82 0 0 Z " fill="#FBFBFB" transform="translate(72,96)"/>
<path d="M0 0 C7.59 0 15.18 0 23 0 C23 55.77 23 111.54 23 169 C15.41 169 7.82 169 0 169 C0 113.23 0 57.46 0 0 Z " fill="#050505" transform="translate(209,164)"/>
<path d="M0 0 C7.59 0 15.18 0 23 0 C23 55.77 23 111.54 23 169 C15.41 169 7.82 169 0 169 C0 113.23 0 57.46 0 0 Z " fill="#050505" transform="translate(118,164)"/>
<path d="M0 0 C27.72 0 55.44 0 84 0 C84 7.59 84 15.18 84 23 C56.28 23 28.56 23 0 23 C0 15.41 0 7.82 0 0 Z " fill="#FBFBFB" transform="translate(133,50)"/>
</svg>
