<?xml version="1.0" encoding="UTF-8"?>
<!-- Generator: visioncortex VTracer 0.6.4 -->
<svg version="1.1" xmlns="http://www.w3.org/2000/svg" width="386" height="398">
<path d="M0 0 C127.38 0 254.76 0 386 0 C386 131.34 386 262.68 386 398 C258.62 398 131.24 398 0 398 C0 266.66 0 135.32 0 0 Z " fill="#FEFEFE" transform="translate(0,0)"/>
<path d="M0 0 C83.16 0 166.32 0 252 0 C252 70.62 252 141.24 252 214 C244.41 214 236.82 214 229 214 C229 221.59 229 229.18 229 237 C161.02 237 93.04 237 23 237 C23 229.41 23 221.82 23 214 C15.41 214 7.82 214 0 214 C0 143.38 0 72.76 0 0 Z " fill="#000000" transform="translate(45,134)"/>
<path d="M0 0 C42.9 0 85.8 0 130 0 C130 15.18 130 30.36 130 46 C142.54 46 155.08 46 168 46 C168 53.59 168 61.18 168 69 C175.59 69 183.18 69 191 69 C191 76.59 191 84.18 191 92 C107.84 92 24.68 92 -61 92 C-61 84.41 -61 76.82 -61 69 C-53.41 69 -45.82 69 -38 69 C-38 61.41 -38 53.82 -38 46 C-25.46 46 -12.92 46 0 46 C0 30.82 0 15.64 0 0 Z " fill="#010101" transform="translate(106,19)"/>
<path d="M0 0 C98.34 0 196.68 0 298 0 C298 7.59 298 15.18 298 23 C199.66 23 101.32 23 0 23 C0 15.41 0 7.82 0 0 Z " fill="#FDFDFD" transform="translate(22,111)"/>
<path d="M0 0 C7.59 0 15.18 0 23 0 C23 55.77 23 111.54 23 169 C15.41 169 7.82 169 0 169 C0 113.23 0 57.46 0 0 Z " fill="#F9F9F9" transform="translate(205,156)"/>
<path d="M0 0 C7.59 0 15.18 0 23 0 C23 55.77 23 111.54 23 169 C15.41 169 7.82 169 0 169 C0 113.23 0 57.46 0 0 Z " fill="#F9F9F9" transform="translate(114,156)"/>
<path d="M0 0 C27.72 0 55.44 0 84 0 C84 7.59 84 15.18 84 23 C56.28 23 28.56 23 0 23 C0 15.41 0 7.82 0 0 Z " fill="#FBFBFB" transform="translate(129,42)"/>
<path d="M0 0 C7.59 0 15.18 0 23 0 C23 7.59 23 15.18 23 23 C15.41 23 7.82 23 0 23 C0 15.41 0 7.82 0 0 Z " fill="#050505" transform="translate(297,111)"/>
<path d="M0 0 C7.59 0 15.18 0 23 0 C23 7.59 23 15.18 23 23 C15.41 23 7.82 23 0 23 C0 15.41 0 7.82 0 0 Z " fill="#050505" transform="translate(22,111)"/>
</svg>
