<?xml version="1.0" encoding="UTF-8"?>
<!-- Generator: visioncortex VTracer 0.6.4 -->
<svg version="1.1" xmlns="http://www.w3.org/2000/svg" width="439" height="418">
<path d="M0 0 C144.87 0 289.74 0 439 0 C439 137.94 439 275.88 439 418 C294.13 418 149.26 418 0 418 C0 280.06 0 142.12 0 0 Z " fill="#FEFEFE" transform="translate(0,0)"/>
<path d="M0 0 C100.98 0 201.96 0 306 0 C306 78.21 306 156.42 306 237 C265.41 237 224.82 237 183 237 C183 252.18 183 267.36 183 283 C198.18 283 213.36 283 229 283 C229 290.26 229 297.52 229 305 C178.84 305 128.68 305 77 305 C77 297.74 77 290.48 77 283 C92.18 283 107.36 283 123 283 C123 267.82 123 252.64 123 237 C82.41 237 41.82 237 0 237 C0 158.79 0 80.58 0 0 Z " fill="#FEFEFE" transform="translate(62,61)"/>
<path d="M0 0 C25.74 0 51.48 0 78 0 C78 7.26 78 14.52 78 22 C85.26 22 92.52 22 100 22 C100 50.05 100 78.1 100 107 C92.74 107 85.48 107 78 107 C78 114.26 78 121.52 78 129 C85.26 129 92.52 129 100 129 C100 144.51 100 160.02 100 176 C59.74 176 19.48 176 -22 176 C-22 160.49 -22 144.98 -22 129 C-14.74 129 -7.48 129 0 129 C0 121.74 0 114.48 0 107 C-7.26 107 -14.52 107 -22 107 C-22 78.95 -22 50.9 -22 22 C-14.74 22 -7.48 22 0 22 C0 14.74 0 7.48 0 0 Z " fill="#030303" transform="translate(176,92)"/>
<path d="M0 0 C25.08 0 50.16 0 76 0 C76 27.72 76 55.44 76 84 C68.41 84 60.82 84 53 84 C53 91.59 53 99.18 53 107 C60.59 107 68.18 107 76 107 C76 114.26 76 121.52 76 129 C50.92 129 25.84 129 0 129 C0 121.74 0 114.48 0 107 C7.59 107 15.18 107 23 107 C23 99.41 23 91.82 23 84 C15.41 84 7.82 84 0 84 C0 56.28 0 28.56 0 0 Z " fill="#FEFEFE" transform="translate(177,115)"/>
<path d="M0 0 C100.98 0 201.96 0 306 0 C306 7.59 306 15.18 306 23 C205.02 23 104.04 23 0 23 C0 15.41 0 7.82 0 0 Z " fill="#010101" transform="translate(62,38)"/>
<path d="M0 0 C7.59 0 15.18 0 23 0 C23 7.59 23 15.18 23 23 C73.82 23 124.64 23 177 23 C177 15.41 177 7.82 177 0 C184.59 0 192.18 0 200 0 C200 15.18 200 30.36 200 46 C134 46 68 46 0 46 C0 30.82 0 15.64 0 0 Z " fill="#030303" transform="translate(115,344)"/>
<path d="M0 0 C7.59 0 15.18 0 23 0 C23 78.21 23 156.42 23 237 C15.41 237 7.82 237 0 237 C0 158.79 0 80.58 0 0 Z " fill="#010101" transform="translate(368,61)"/>
<path d="M0 0 C7.59 0 15.18 0 23 0 C23 78.21 23 156.42 23 237 C15.41 237 7.82 237 0 237 C0 158.79 0 80.58 0 0 Z " fill="#010101" transform="translate(39,61)"/>
<path d="M0 0 C40.59 0 81.18 0 123 0 C123 7.59 123 15.18 123 23 C97.59 23 72.18 23 46 23 C46 30.59 46 38.18 46 46 C30.82 46 15.64 46 0 46 C0 30.82 0 15.64 0 0 Z " fill="#040404" transform="translate(245,298)"/>
<path d="M0 0 C40.59 0 81.18 0 123 0 C123 15.18 123 30.36 123 46 C107.82 46 92.64 46 77 46 C77 38.41 77 30.82 77 23 C51.59 23 26.18 23 0 23 C0 15.41 0 7.82 0 0 Z " fill="#040404" transform="translate(62,298)"/>
<path d="M0 0 C7.26 0 14.52 0 22 0 C22 27.39 22 54.78 22 83 C14.74 83 7.48 83 0 83 C0 55.61 0 28.22 0 0 Z " fill="#000000" transform="translate(254,115)"/>
<path d="M0 0 C7.26 0 14.52 0 22 0 C22 27.39 22 54.78 22 83 C14.74 83 7.48 83 0 83 C0 55.61 0 28.22 0 0 Z " fill="#000000" transform="translate(154,115)"/>
<path d="M0 0 C25.08 0 50.16 0 76 0 C76 7.26 76 14.52 76 22 C50.92 22 25.84 22 0 22 C0 14.74 0 7.48 0 0 Z " fill="#000000" transform="translate(177,92)"/>
<path d="M0 0 C0.33 0 0.66 0 1 0 C1 7.26 1 14.52 1 22 C26.08 22 51.16 22 77 22 C77 14.74 77 7.48 77 0 C77.33 0 77.66 0 78 0 C78 7.26 78 14.52 78 22 C85.26 22 92.52 22 100 22 C100 22.33 100 22.66 100 23 C92.74 23 85.48 23 78 23 C78 50.39 78 77.78 78 106 C85.26 106 92.52 106 100 106 C100 106.33 100 106.66 100 107 C92.74 107 85.48 107 78 107 C78 114.26 78 121.52 78 129 C85.26 129 92.52 129 100 129 C100 129.33 100 129.66 100 130 C92.74 130 85.48 130 78 130 C78 137.59 78 145.18 78 153 C52.26 153 26.52 153 0 153 C0 145.41 0 137.82 0 130 C-7.26 130 -14.52 130 -22 130 C-22 129.67 -22 129.34 -22 129 C-14.74 129 -7.48 129 0 129 C0 121.74 0 114.48 0 107 C-7.26 107 -14.52 107 -22 107 C-22 106.67 -22 106.34 -22 106 C-14.74 106 -7.48 106 0 106 C0 78.61 0 51.22 0 23 C-7.26 23 -14.52 23 -22 23 C-22 22.67 -22 22.34 -22 22 C-14.74 22 -7.48 22 0 22 C0 14.74 0 7.48 0 0 Z M1 23 C1 50.72 1 78.44 1 107 C8.59 107 16.18 107 24 107 C24 114.59 24 122.18 24 130 C16.41 130 8.82 130 1 130 C1 137.26 1 144.52 1 152 C26.08 152 51.16 152 77 152 C77 144.74 77 137.48 77 130 C69.41 130 61.82 130 54 130 C54 122.41 54 114.82 54 107 C61.59 107 69.18 107 77 107 C77 79.28 77 51.56 77 23 C51.92 23 26.84 23 1 23 Z " fill="#747474" transform="translate(176,92)"/>
<path d="M0 0 C7.59 0 15.18 0 23 0 C23 7.59 23 15.18 23 23 C15.41 23 7.82 23 0 23 C0 15.41 0 7.82 0 0 Z " fill="#070707" transform="translate(230,199)"/>
<path d="M0 0 C7.26 0 14.52 0 22 0 C22 7.26 22 14.52 22 22 C14.74 22 7.48 22 0 22 C0 14.74 0 7.48 0 0 Z " fill="#000000" transform="translate(177,199)"/>
</svg>
