<?xml version="1.0" encoding="UTF-8"?>
<!-- Generator: visioncortex VTracer 0.6.4 -->
<svg version="1.1" xmlns="http://www.w3.org/2000/svg" width="457" height="416">
<path d="M0 0 C150.81 0 301.62 0 457 0 C457 137.28 457 274.56 457 416 C306.19 416 155.38 416 0 416 C0 278.72 0 141.44 0 0 Z " fill="#FCFCFC" transform="translate(0,0)"/>
<path d="M0 0 C150.81 0 301.62 0 457 0 C457 137.28 457 274.56 457 416 C306.19 416 155.38 416 0 416 C0 278.72 0 141.44 0 0 Z M63 39 C63 46.59 63 54.18 63 62 C55.41 62 47.82 62 40 62 C40 140.21 40 218.42 40 299 C47.59 299 55.18 299 63 299 C63 306.59 63 314.18 63 322 C88.41 322 113.82 322 140 322 C140 336.85 140 351.7 140 367 C190.16 367 240.32 367 292 367 C292 352.15 292 337.3 292 322 C317.41 322 342.82 322 369 322 C369 314.41 369 306.82 369 299 C376.59 299 384.18 299 392 299 C392 220.79 392 142.58 392 62 C384.41 62 376.82 62 369 62 C369 54.41 369 46.82 369 39 C268.02 39 167.04 39 63 39 Z " fill="#FEFEFE" transform="translate(0,0)"/>
<path d="M0 0 C85.8 0 171.6 0 260 0 C260 63.03 260 126.06 260 191 C174.2 191 88.4 191 0 191 C0 127.97 0 64.94 0 0 Z " fill="#010101" transform="translate(86,85)"/>
<path d="M0 0 C25.08 0 50.16 0 76 0 C76 7.59 76 15.18 76 23 C83.59 23 91.18 23 99 23 C99 48.08 99 73.16 99 99 C91.41 99 83.82 99 76 99 C76 106.59 76 114.18 76 122 C83.59 122 91.18 122 99 122 C99 129.59 99 137.18 99 145 C58.74 145 18.48 145 -23 145 C-23 137.41 -23 129.82 -23 122 C-15.41 122 -7.82 122 0 122 C0 114.41 0 106.82 0 99 C-7.59 99 -15.18 99 -23 99 C-23 73.92 -23 48.84 -23 23 C-15.41 23 -7.82 23 0 23 C0 15.41 0 7.82 0 0 Z " fill="#FEFEFE" transform="translate(178,108)"/>
<path d="M0 0 C100.98 0 201.96 0 306 0 C306 7.59 306 15.18 306 23 C205.02 23 104.04 23 0 23 C0 15.41 0 7.82 0 0 Z " fill="#010101" transform="translate(63,39)"/>
<path d="M0 0 C7.59 0 15.18 0 23 0 C23 7.59 23 15.18 23 23 C73.82 23 124.64 23 177 23 C177 15.41 177 7.82 177 0 C184.59 0 192.18 0 200 0 C200 15.18 200 30.36 200 46 C134 46 68 46 0 46 C0 30.82 0 15.64 0 0 Z " fill="#030303" transform="translate(116,345)"/>
<path d="M0 0 C7.59 0 15.18 0 23 0 C23 78.21 23 156.42 23 237 C15.41 237 7.82 237 0 237 C0 158.79 0 80.58 0 0 Z " fill="#010101" transform="translate(369,62)"/>
<path d="M0 0 C7.59 0 15.18 0 23 0 C23 78.21 23 156.42 23 237 C15.41 237 7.82 237 0 237 C0 158.79 0 80.58 0 0 Z " fill="#010101" transform="translate(40,62)"/>
<path d="M0 0 C40.59 0 81.18 0 123 0 C123 7.59 123 15.18 123 23 C97.59 23 72.18 23 46 23 C46 30.59 46 38.18 46 46 C30.82 46 15.64 46 0 46 C0 30.82 0 15.64 0 0 Z " fill="#040404" transform="translate(246,299)"/>
<path d="M0 0 C40.59 0 81.18 0 123 0 C123 15.18 123 30.36 123 46 C107.82 46 92.64 46 77 46 C77 38.41 77 30.82 77 23 C51.59 23 26.18 23 0 23 C0 15.41 0 7.82 0 0 Z " fill="#040404" transform="translate(63,299)"/>
</svg>
