<?xml version="1.0" encoding="UTF-8"?>
<!-- Generator: visioncortex VTracer 0.6.4 -->
<svg version="1.1" xmlns="http://www.w3.org/2000/svg" width="443" height="427">
<path d="M0 0 C146.19 0 292.38 0 443 0 C443 140.91 443 281.82 443 427 C296.81 427 150.62 427 0 427 C0 286.09 0 145.18 0 0 Z " fill="#FEFEFE" transform="translate(0,0)"/>
<path d="M0 0 C15.18 0 30.36 0 46 0 C46 7.59 46 15.18 46 23 C53.59 23 61.18 23 69 23 C69 123.98 69 224.96 69 329 C61.41 329 53.82 329 46 329 C46 336.59 46 344.18 46 352 C30.82 352 15.64 352 0 352 C0 344.41 0 336.82 0 329 C-7.59 329 -15.18 329 -23 329 C-23 321.41 -23 313.82 -23 306 C-30.26 306 -37.52 306 -45 306 C-45 298.41 -45 290.82 -45 283 C-52.59 283 -60.18 283 -68 283 C-68 275.41 -68 267.82 -68 260 C-85.82 260 -103.64 260 -122 260 C-122 252.41 -122 244.82 -122 237 C-129.59 237 -137.18 237 -145 237 C-145 196.74 -145 156.48 -145 115 C-137.41 115 -129.82 115 -122 115 C-122 107.41 -122 99.82 -122 92 C-104.18 92 -86.36 92 -68 92 C-68 84.41 -68 76.82 -68 69 C-60.41 69 -52.82 69 -45 69 C-45 61.41 -45 53.82 -45 46 C-37.74 46 -30.48 46 -23 46 C-23 38.41 -23 30.82 -23 23 C-15.41 23 -7.82 23 0 23 C0 15.41 0 7.82 0 0 Z " fill="#000000" transform="translate(170,46)"/>
<path d="M0 0 C7.59 0 15.18 0 23 0 C23 7.26 23 14.52 23 22 C30.59 22 38.18 22 46 22 C46 14.74 46 7.48 46 0 C53.59 0 61.18 0 69 0 C69 7.59 69 15.18 69 23 C61.74 23 54.48 23 47 23 C47 30.26 47 37.52 47 45 C54.26 45 61.52 45 69 45 C69 52.59 69 60.18 69 68 C76.59 68 84.18 68 92 68 C92 75.92 92 83.84 92 92 C84.41 92 76.82 92 69 92 C69 84.41 69 76.82 69 69 C61.41 69 53.82 69 46 69 C46 61.41 46 53.82 46 46 C38.41 46 30.82 46 23 46 C23 53.59 23 61.18 23 69 C15.41 69 7.82 69 0 69 C0 76.59 0 84.18 0 92 C-7.59 92 -15.18 92 -23 92 C-23 84.08 -23 76.16 -23 68 C-15.41 68 -7.82 68 0 68 C0 60.41 0 52.82 0 45 C7.59 45 15.18 45 23 45 C23 37.74 23 30.48 23 23 C15.41 23 7.82 23 0 23 C0 15.41 0 7.82 0 0 Z " fill="#0A0A0A" transform="translate(285,184)"/>
<path d="M0 0 C7.59 0 15.18 0 23 0 C23 7.59 23 15.18 23 23 C15.41 23 7.82 23 0 23 C0 15.41 0 7.82 0 0 Z " fill="#050505" transform="translate(354,161)"/>
<path d="M0 0 C7.59 0 15.18 0 23 0 C23 7.59 23 15.18 23 23 C15.41 23 7.82 23 0 23 C0 15.41 0 7.82 0 0 Z " fill="#050505" transform="translate(262,161)"/>
<path d="M0 0 C7.59 0 15.18 0 23 0 C23 7.26 23 14.52 23 22 C15.41 22 7.82 22 0 22 C0 14.74 0 7.48 0 0 Z " fill="#030303" transform="translate(331,230)"/>
<path d="M0 0 C7.59 0 15.18 0 23 0 C23 7.26 23 14.52 23 22 C15.41 22 7.82 22 0 22 C0 14.74 0 7.48 0 0 Z " fill="#010101" transform="translate(308,207)"/>
<path d="M0 0 C7.26 0 14.52 0 22 0 C22 7.26 22 14.52 22 22 C14.74 22 7.48 22 0 22 C0 14.74 0 7.48 0 0 Z " fill="#010101" transform="translate(286,230)"/>
<path d="M0 0 C7.26 0 14.52 0 22 0 C22 7.26 22 14.52 22 22 C14.74 22 7.48 22 0 22 C0 14.74 0 7.48 0 0 Z " fill="#010101" transform="translate(286,184)"/>
<path d="M0 0 C6.93 0 13.86 0 21 0 C21 7.26 21 14.52 21 22 C14.07 22 7.14 22 0 22 C0 14.74 0 7.48 0 0 Z " fill="#000000" transform="translate(332,184)"/>
<path d="M0 0 C0.33 0 0.66 0 1 0 C1 7.26 1 14.52 1 22 C15.85 22 30.7 22 46 22 C46 14.74 46 7.48 46 0 C46.33 0 46.66 0 47 0 C47 7.26 47 14.52 47 22 C53.93 22 60.86 22 68 22 C68 14.74 68 7.48 68 0 C68.33 0 68.66 0 69 0 C69 7.59 69 15.18 69 23 C61.74 23 54.48 23 47 23 C47 30.26 47 37.52 47 45 C54.26 45 61.52 45 69 45 C69 45.33 69 45.66 69 46 C46.56 46 24.12 46 1 46 C1 53.26 1 60.52 1 68 C8.26 68 15.52 68 23 68 C23 68.33 23 68.66 23 69 C7.82 69 -7.36 69 -23 69 C-23 68.67 -23 68.34 -23 68 C-15.41 68 -7.82 68 0 68 C0 60.41 0 52.82 0 45 C15.18 45 30.36 45 46 45 C46 37.74 46 30.48 46 23 C30.82 23 15.64 23 0 23 C0 15.41 0 7.82 0 0 Z " fill="#666666" transform="translate(285,184)"/>
</svg>
