<?xml version="1.0" encoding="UTF-8"?>
<!-- Generator: visioncortex VTracer 0.6.4 -->
<svg version="1.1" xmlns="http://www.w3.org/2000/svg" width="446" height="418">
<path d="M0 0 C147.18 0 294.36 0 446 0 C446 137.94 446 275.88 446 418 C298.82 418 151.64 418 0 418 C0 280.06 0 142.12 0 0 Z " fill="#FEFEFE" transform="translate(0,0)"/>
<path d="M0 0 C14.85 0 29.7 0 45 0 C45 100.98 45 201.96 45 306 C30.15 306 15.3 306 0 306 C0 298.41 0 290.82 0 283 C-7.59 283 -15.18 283 -23 283 C-23 275.41 -23 267.82 -23 260 C-30.59 260 -38.18 260 -46 260 C-46 252.41 -46 244.82 -46 237 C-53.59 237 -61.18 237 -69 237 C-69 229.41 -69 221.82 -69 214 C-86.82 214 -104.64 214 -123 214 C-123 173.74 -123 133.48 -123 92 C-105.18 92 -87.36 92 -69 92 C-69 84.41 -69 76.82 -69 69 C-61.41 69 -53.82 69 -46 69 C-46 61.41 -46 53.82 -46 46 C-38.41 46 -30.82 46 -23 46 C-23 38.41 -23 30.82 -23 23 C-15.41 23 -7.82 23 0 23 C0 15.41 0 7.82 0 0 Z " fill="#FEFEFE" transform="translate(175,61)"/>
<path d="M0 0 C7.59 0 15.18 0 23 0 C23 100.98 23 201.96 23 306 C15.41 306 7.82 306 0 306 C0 205.02 0 104.04 0 0 Z " fill="#030303" transform="translate(220,61)"/>
<path d="M0 0 C7.59 0 15.18 0 23 0 C23 80.52 23 161.04 23 244 C15.41 244 7.82 244 0 244 C0 163.48 0 82.96 0 0 Z " fill="#010101" transform="translate(358,92)"/>
<path d="M0 0 C7.59 0 15.18 0 23 0 C23 60.72 23 121.44 23 184 C15.41 184 7.82 184 0 184 C0 123.28 0 62.56 0 0 Z " fill="#020202" transform="translate(312,122)"/>
<path d="M0 0 C17.82 0 35.64 0 54 0 C54 7.59 54 15.18 54 23 C61.59 23 69.18 23 77 23 C77 30.59 77 38.18 77 46 C84.59 46 92.18 46 100 46 C100 53.59 100 61.18 100 69 C107.59 69 115.18 69 123 69 C123 76.59 123 84.18 123 92 C137.85 92 152.7 92 168 92 C168 99.59 168 107.18 168 115 C152.82 115 137.64 115 122 115 C122 107.41 122 99.82 122 92 C114.41 92 106.82 92 99 92 C99 84.41 99 76.82 99 69 C91.41 69 83.82 69 76 69 C76 61.41 76 53.82 76 46 C68.41 46 60.82 46 53 46 C53 38.41 53 30.82 53 23 C35.51 23 18.02 23 0 23 C0 15.41 0 7.82 0 0 Z " fill="#0B0B0B" transform="translate(52,275)"/>
<path d="M0 0 C15.18 0 30.36 0 46 0 C46 7.59 46 15.18 46 23 C31.15 23 16.3 23 1 23 C1 30.59 1 38.18 1 46 C-6.59 46 -14.18 46 -22 46 C-22 53.59 -22 61.18 -22 69 C-29.59 69 -37.18 69 -45 69 C-45 76.59 -45 84.18 -45 92 C-52.59 92 -60.18 92 -68 92 C-68 99.59 -68 107.18 -68 115 C-85.82 115 -103.64 115 -122 115 C-122 107.41 -122 99.82 -122 92 C-104.51 92 -87.02 92 -69 92 C-69 84.41 -69 76.82 -69 69 C-61.41 69 -53.82 69 -46 69 C-46 61.41 -46 53.82 -46 46 C-38.41 46 -30.82 46 -23 46 C-23 38.41 -23 30.82 -23 23 C-15.41 23 -7.82 23 0 23 C0 15.41 0 7.82 0 0 Z " fill="#161616" transform="translate(174,38)"/>
<path d="M0 0 C7.59 0 15.18 0 23 0 C23 40.26 23 80.52 23 122 C15.41 122 7.82 122 0 122 C0 81.74 0 41.48 0 0 Z " fill="#010101" transform="translate(29,153)"/>
<path d="M0 0 C7.59 0 15.18 0 23 0 C23 35.64 23 71.28 23 108 C15.41 108 7.82 108 0 108 C0 72.36 0 36.72 0 0 Z " fill="#020202" transform="translate(266,160)"/>
<path d="M0 0 C17.49 0 34.98 0 53 0 C53 7.59 53 15.18 53 23 C35.51 23 18.02 23 0 23 C0 15.41 0 7.82 0 0 Z " fill="#010101" transform="translate(52,130)"/>
<path d="M0 0 C14.85 0 29.7 0 45 0 C45 7.59 45 15.18 45 23 C30.15 23 15.3 23 0 23 C0 15.41 0 7.82 0 0 Z " fill="#010101" transform="translate(175,367)"/>
<path d="M0 0 C14.85 0 29.7 0 45 0 C45 7.59 45 15.18 45 23 C30.15 23 15.3 23 0 23 C0 15.41 0 7.82 0 0 Z " fill="#010101" transform="translate(175,38)"/>
<path d="M0 0 C0.33 0 0.66 0 1 0 C1 7.59 1 15.18 1 23 C8.59 23 16.18 23 24 23 C24 38.18 24 53.36 24 69 C23.67 69 23.34 69 23 69 C23 61.41 23 53.82 23 46 C15.41 46 7.82 46 0 46 C0 30.82 0 15.64 0 0 Z " fill="#161616" transform="translate(151,321)"/>
<path d="M0 0 C0.33 0 0.66 0 1 0 C1 15.18 1 30.36 1 46 C-6.59 46 -14.18 46 -22 46 C-22 53.59 -22 61.18 -22 69 C-22.33 69 -22.66 69 -23 69 C-23 53.82 -23 38.64 -23 23 C-15.41 23 -7.82 23 0 23 C0 15.41 0 7.82 0 0 Z " fill="#161616" transform="translate(174,38)"/>
<path d="M0 0 C7.26 0 14.52 0 22 0 C22 7.59 22 15.18 22 23 C14.74 23 7.48 23 0 23 C0 15.41 0 7.82 0 0 Z " fill="#010101" transform="translate(129,321)"/>
<path d="M0 0 C7.26 0 14.52 0 22 0 C22 7.26 22 14.52 22 22 C14.74 22 7.48 22 0 22 C0 14.74 0 7.48 0 0 Z " fill="#010101" transform="translate(106,299)"/>
<path d="M0 0 C7.26 0 14.52 0 22 0 C22 7.26 22 14.52 22 22 C14.74 22 7.48 22 0 22 C0 14.74 0 7.48 0 0 Z " fill="#010101" transform="translate(106,107)"/>
</svg>
