<?xml version="1.0" encoding="UTF-8"?>
<!-- Generator: visioncortex VTracer 0.6.4 -->
<svg version="1.1" xmlns="http://www.w3.org/2000/svg" width="367" height="407">
<path d="M0 0 C121.11 0 242.22 0 367 0 C367 134.31 367 268.62 367 407 C245.89 407 124.78 407 0 407 C0 272.69 0 138.38 0 0 Z " fill="#FEFEFE" transform="translate(0,0)"/>
<path d="M0 0 C15.18 0 30.36 0 46 0 C46 100.98 46 201.96 46 306 C30.82 306 15.64 306 0 306 C0 298.41 0 290.82 0 283 C-7.59 283 -15.18 283 -23 283 C-23 275.41 -23 267.82 -23 260 C-30.26 260 -37.52 260 -45 260 C-45 252.41 -45 244.82 -45 237 C-52.59 237 -60.18 237 -68 237 C-68 229.41 -68 221.82 -68 214 C-85.82 214 -103.64 214 -122 214 C-122 173.74 -122 133.48 -122 92 C-104.18 92 -86.36 92 -68 92 C-68 84.41 -68 76.82 -68 69 C-60.41 69 -52.82 69 -45 69 C-45 61.41 -45 53.82 -45 46 C-37.74 46 -30.48 46 -23 46 C-23 38.41 -23 30.82 -23 23 C-15.41 23 -7.82 23 0 23 C0 15.41 0 7.82 0 0 Z " fill="#FEFEFE" transform="translate(212,59)"/>
<path d="M0 0 C7.59 0 15.18 0 23 0 C23 100.98 23 201.96 23 306 C15.41 306 7.82 306 0 306 C0 205.02 0 104.04 0 0 Z " fill="#030303" transform="translate(258,59)"/>
<path d="M0 0 C7.59 0 15.18 0 23 0 C23 40.26 23 80.52 23 122 C15.41 122 7.82 122 0 122 C0 81.74 0 41.48 0 0 Z " fill="#030303" transform="translate(67,151)"/>
<path d="M0 0 C17.82 0 35.64 0 54 0 C54 7.59 54 15.18 54 23 C61.59 23 69.18 23 77 23 C77 30.59 77 38.18 77 46 C84.26 46 91.52 46 99 46 C99 53.59 99 61.18 99 69 C91.41 69 83.82 69 76 69 C76 61.41 76 53.82 76 46 C68.41 46 60.82 46 53 46 C53 38.41 53 30.82 53 23 C35.51 23 18.02 23 0 23 C0 15.41 0 7.82 0 0 Z " fill="#0B0B0B" transform="translate(90,273)"/>
<path d="M0 0 C7.59 0 15.18 0 23 0 C23 7.59 23 15.18 23 23 C15.74 23 8.48 23 1 23 C1 30.59 1 38.18 1 46 C-6.59 46 -14.18 46 -22 46 C-22 53.59 -22 61.18 -22 69 C-39.82 69 -57.64 69 -76 69 C-76 61.41 -76 53.82 -76 46 C-58.51 46 -41.02 46 -23 46 C-23 38.41 -23 30.82 -23 23 C-15.41 23 -7.82 23 0 23 C0 15.41 0 7.82 0 0 Z " fill="#010101" transform="translate(166,82)"/>
<path d="M0 0 C7.59 0 15.18 0 23 0 C23 7.59 23 15.18 23 23 C15.74 23 8.48 23 1 23 C1 30.59 1 38.18 1 46 C-6.59 46 -14.18 46 -22 46 C-22 53.59 -22 61.18 -22 69 C-22.33 69 -22.66 69 -23 69 C-23 53.82 -23 38.64 -23 23 C-15.41 23 -7.82 23 0 23 C0 15.41 0 7.82 0 0 Z " fill="#161616" transform="translate(166,82)"/>
<path d="M0 0 C15.18 0 30.36 0 46 0 C46 7.59 46 15.18 46 23 C30.82 23 15.64 23 0 23 C0 15.41 0 7.82 0 0 Z " fill="#030303" transform="translate(212,365)"/>
<path d="M0 0 C15.18 0 30.36 0 46 0 C46 7.59 46 15.18 46 23 C30.82 23 15.64 23 0 23 C0 15.41 0 7.82 0 0 Z " fill="#030303" transform="translate(212,36)"/>
<path d="M0 0 C7.59 0 15.18 0 23 0 C23 7.59 23 15.18 23 23 C15.41 23 7.82 23 0 23 C0 15.41 0 7.82 0 0 Z " fill="#060606" transform="translate(189,342)"/>
<path d="M0 0 C7.59 0 15.18 0 23 0 C23 7.59 23 15.18 23 23 C15.41 23 7.82 23 0 23 C0 15.41 0 7.82 0 0 Z " fill="#060606" transform="translate(189,59)"/>
<path d="M0 0 C7.26 0 14.52 0 22 0 C22 7.59 22 15.18 22 23 C14.74 23 7.48 23 0 23 C0 15.41 0 7.82 0 0 Z " fill="#010101" transform="translate(167,319)"/>
<path d="M0 0 C7.26 0 14.52 0 22 0 C22 7.26 22 14.52 22 22 C14.74 22 7.48 22 0 22 C0 14.74 0 7.48 0 0 Z " fill="#010101" transform="translate(144,297)"/>
<path d="M0 0 C7.26 0 14.52 0 22 0 C22 7.26 22 14.52 22 22 C14.74 22 7.48 22 0 22 C0 14.74 0 7.48 0 0 Z " fill="#010101" transform="translate(144,105)"/>
</svg>
