<?xml version="1.0" encoding="UTF-8"?>
<!-- Generator: visioncortex VTracer 0.6.4 -->
<svg version="1.1" xmlns="http://www.w3.org/2000/svg" width="418" height="414">
<path d="M0 0 C137.94 0 275.88 0 418 0 C418 136.62 418 273.24 418 414 C280.06 414 142.12 414 0 414 C0 277.38 0 140.76 0 0 Z " fill="#FEFEFE" transform="translate(0,0)"/>
<path d="M0 0 C15.18 0 30.36 0 46 0 C46 100.98 46 201.96 46 306 C30.82 306 15.64 306 0 306 C0 298.41 0 290.82 0 283 C-7.26 283 -14.52 283 -22 283 C-22 275.41 -22 267.82 -22 260 C-29.59 260 -37.18 260 -45 260 C-45 252.41 -45 244.82 -45 237 C-52.59 237 -60.18 237 -68 237 C-68 229.41 -68 221.82 -68 214 C-85.82 214 -103.64 214 -122 214 C-122 173.74 -122 133.48 -122 92 C-104.18 92 -86.36 92 -68 92 C-68 84.41 -68 76.82 -68 69 C-60.41 69 -52.82 69 -45 69 C-45 61.41 -45 53.82 -45 46 C-37.41 46 -29.82 46 -22 46 C-22 38.41 -22 30.82 -22 23 C-14.74 23 -7.48 23 0 23 C0 15.41 0 7.82 0 0 Z " fill="#FEFEFE" transform="translate(190,62)"/>
<path d="M0 0 C7.59 0 15.18 0 23 0 C23 100.98 23 201.96 23 306 C15.41 306 7.82 306 0 306 C0 205.02 0 104.04 0 0 Z " fill="#010101" transform="translate(236,62)"/>
<path d="M0 0 C17.82 0 35.64 0 54 0 C54 7.59 54 15.18 54 23 C61.59 23 69.18 23 77 23 C77 30.59 77 38.18 77 46 C84.59 46 92.18 46 100 46 C100 53.59 100 61.18 100 69 C107.26 69 114.52 69 122 69 C122 76.59 122 84.18 122 92 C114.41 92 106.82 92 99 92 C99 84.41 99 76.82 99 69 C91.41 69 83.82 69 76 69 C76 61.41 76 53.82 76 46 C68.41 46 60.82 46 53 46 C53 38.41 53 30.82 53 23 C35.51 23 18.02 23 0 23 C0 15.41 0 7.82 0 0 Z " fill="#0B0B0B" transform="translate(68,276)"/>
<path d="M0 0 C7.59 0 15.18 0 23 0 C23 7.59 23 15.18 23 23 C15.74 23 8.48 23 1 23 C1 30.59 1 38.18 1 46 C-6.59 46 -14.18 46 -22 46 C-22 53.59 -22 61.18 -22 69 C-29.59 69 -37.18 69 -45 69 C-45 76.59 -45 84.18 -45 92 C-62.82 92 -80.64 92 -99 92 C-99 84.41 -99 76.82 -99 69 C-81.51 69 -64.02 69 -46 69 C-46 61.41 -46 53.82 -46 46 C-38.41 46 -30.82 46 -23 46 C-23 38.41 -23 30.82 -23 23 C-15.41 23 -7.82 23 0 23 C0 15.41 0 7.82 0 0 Z " fill="#121212" transform="translate(167,62)"/>
<path d="M0 0 C7.59 0 15.18 0 23 0 C23 40.26 23 80.52 23 122 C15.41 122 7.82 122 0 122 C0 81.74 0 41.48 0 0 Z " fill="#010101" transform="translate(45,154)"/>
<path d="M0 0 C7.59 0 15.18 0 23 0 C23 35.64 23 71.28 23 108 C15.41 108 7.82 108 0 108 C0 72.36 0 36.72 0 0 Z " fill="#030303" transform="translate(282,161)"/>
<path d="M0 0 C17.49 0 34.98 0 53 0 C53 7.59 53 15.18 53 23 C35.51 23 18.02 23 0 23 C0 15.41 0 7.82 0 0 Z " fill="#010101" transform="translate(68,131)"/>
<path d="M0 0 C15.18 0 30.36 0 46 0 C46 7.59 46 15.18 46 23 C30.82 23 15.64 23 0 23 C0 15.41 0 7.82 0 0 Z " fill="#030303" transform="translate(190,368)"/>
<path d="M0 0 C15.18 0 30.36 0 46 0 C46 7.59 46 15.18 46 23 C30.82 23 15.64 23 0 23 C0 15.41 0 7.82 0 0 Z " fill="#030303" transform="translate(190,39)"/>
<path d="M0 0 C0.33 0 0.66 0 1 0 C1 7.59 1 15.18 1 23 C8.26 23 15.52 23 23 23 C23 30.59 23 38.18 23 46 C15.41 46 7.82 46 0 46 C0 30.82 0 15.64 0 0 Z " fill="#0D0D0D" transform="translate(167,322)"/>
<path d="M0 0 C7.26 0 14.52 0 22 0 C22 7.59 22 15.18 22 23 C14.74 23 7.48 23 0 23 C0 15.41 0 7.82 0 0 Z " fill="#010101" transform="translate(145,322)"/>
<path d="M0 0 C7.26 0 14.52 0 22 0 C22 7.26 22 14.52 22 22 C14.74 22 7.48 22 0 22 C0 14.74 0 7.48 0 0 Z " fill="#010101" transform="translate(122,300)"/>
<path d="M0 0 C7.26 0 14.52 0 22 0 C22 7.26 22 14.52 22 22 C14.74 22 7.48 22 0 22 C0 14.74 0 7.48 0 0 Z " fill="#010101" transform="translate(122,108)"/>
</svg>
