<?xml version="1.0" encoding="UTF-8"?>
<!-- Generator: visioncortex VTracer 0.6.4 -->
<svg version="1.1" xmlns="http://www.w3.org/2000/svg" width="395" height="431">
<path d="M0 0 C130.35 0 260.7 0 395 0 C395 142.23 395 284.46 395 431 C264.65 431 134.3 431 0 431 C0 288.77 0 146.54 0 0 Z " fill="#FEFEFE" transform="translate(0,0)"/>
<path d="M0 0 C15.18 0 30.36 0 46 0 C46 7.59 46 15.18 46 23 C53.59 23 61.18 23 69 23 C69 123.98 69 224.96 69 329 C61.41 329 53.82 329 46 329 C46 336.59 46 344.18 46 352 C30.82 352 15.64 352 0 352 C0 344.41 0 336.82 0 329 C-7.59 329 -15.18 329 -23 329 C-23 321.41 -23 313.82 -23 306 C-30.59 306 -38.18 306 -46 306 C-46 298.41 -46 290.82 -46 283 C-53.26 283 -60.52 283 -68 283 C-68 275.41 -68 267.82 -68 260 C-85.82 260 -103.64 260 -122 260 C-122 252.41 -122 244.82 -122 237 C-129.59 237 -137.18 237 -145 237 C-145 196.74 -145 156.48 -145 115 C-137.41 115 -129.82 115 -122 115 C-122 107.41 -122 99.82 -122 92 C-104.18 92 -86.36 92 -68 92 C-68 84.41 -68 76.82 -68 69 C-60.74 69 -53.48 69 -46 69 C-46 61.41 -46 53.82 -46 46 C-38.41 46 -30.82 46 -23 46 C-23 38.41 -23 30.82 -23 23 C-15.41 23 -7.82 23 0 23 C0 15.41 0 7.82 0 0 Z " fill="#000000" transform="translate(192,41)"/>
<path d="M0 0 C7.59 0 15.18 0 23 0 C23 35.64 23 71.28 23 108 C15.41 108 7.82 108 0 108 C0 72.36 0 36.72 0 0 Z " fill="#030303" transform="translate(284,163)"/>
</svg>
