<?xml version="1.0" encoding="UTF-8"?>
<!-- Generator: visioncortex VTracer 0.6.4 -->
<svg version="1.1" xmlns="http://www.w3.org/2000/svg" width="451" height="397">
<path d="M0 0 C148.83 0 297.66 0 451 0 C451 131.01 451 262.02 451 397 C302.17 397 153.34 397 0 397 C0 265.99 0 134.98 0 0 Z " fill="#FEFEFE" transform="translate(0,0)"/>
<path d="M0 0 C15.18 0 30.36 0 46 0 C46 7.59 46 15.18 46 23 C53.59 23 61.18 23 69 23 C69 123.98 69 224.96 69 329 C61.41 329 53.82 329 46 329 C46 336.59 46 344.18 46 352 C30.82 352 15.64 352 0 352 C0 344.41 0 336.82 0 329 C-7.59 329 -15.18 329 -23 329 C-23 321.41 -23 313.82 -23 306 C-30.26 306 -37.52 306 -45 306 C-45 298.41 -45 290.82 -45 283 C-52.59 283 -60.18 283 -68 283 C-68 275.41 -68 267.82 -68 260 C-85.82 260 -103.64 260 -122 260 C-122 252.41 -122 244.82 -122 237 C-129.59 237 -137.18 237 -145 237 C-145 196.74 -145 156.48 -145 115 C-137.41 115 -129.82 115 -122 115 C-122 107.41 -122 99.82 -122 92 C-104.18 92 -86.36 92 -68 92 C-68 84.41 -68 76.82 -68 69 C-60.41 69 -52.82 69 -45 69 C-45 61.41 -45 53.82 -45 46 C-37.74 46 -30.48 46 -23 46 C-23 38.41 -23 30.82 -23 23 C-15.41 23 -7.82 23 0 23 C0 15.41 0 7.82 0 0 Z " fill="#000000" transform="translate(187,16)"/>
<path d="M0 0 C7.59 0 15.18 0 23 0 C23 80.52 23 161.04 23 244 C15.41 244 7.82 244 0 244 C0 163.48 0 82.96 0 0 Z " fill="#010101" transform="translate(371,70)"/>
<path d="M0 0 C7.59 0 15.18 0 23 0 C23 60.72 23 121.44 23 184 C15.41 184 7.82 184 0 184 C0 123.28 0 62.56 0 0 Z " fill="#020202" transform="translate(325,100)"/>
<path d="M0 0 C7.59 0 15.18 0 23 0 C23 35.64 23 71.28 23 108 C15.41 108 7.82 108 0 108 C0 72.36 0 36.72 0 0 Z " fill="#020202" transform="translate(279,138)"/>
</svg>
