<?xml version="1.0" encoding="UTF-8"?>
<!-- Generator: visioncortex VTracer 0.6.4 -->
<svg version="1.1" xmlns="http://www.w3.org/2000/svg" width="293" height="408">
<path d="M0 0 C96.69 0 193.38 0 293 0 C293 134.64 293 269.28 293 408 C196.31 408 99.62 408 0 408 C0 273.36 0 138.72 0 0 Z " fill="#FEFEFE" transform="translate(0,0)"/>
<path d="M0 0 C35.64 0 71.28 0 108 0 C108 32.67 108 65.34 108 99 C115.26 99 122.52 99 130 99 C131 100 131 100 131.114 102.133 C131.108 103.049 131.103 103.966 131.098 104.91 C131.095 105.801 131.093 106.692 131.09 107.61 C131.081 108.749 131.072 109.889 131.062 111.062 C131.042 114.672 131.021 118.281 131 122 C138.59 122 146.18 122 154 122 C154 157.64 154 193.28 154 230 C146.41 230 138.82 230 131 230 C131.04 237.195 131.04 237.195 131.09 244.39 C131.094 245.727 131.094 245.727 131.098 247.09 C131.103 248.006 131.108 248.923 131.114 249.867 C131 252 131 252 130 253 C122.74 253 115.48 253 108 253 C108 285.67 108 318.34 108 352 C72.36 352 36.72 352 0 352 C0 319.33 0 286.66 0 253 C-7.26 253 -14.52 253 -22 253 C-23 252 -23 252 -23.114 249.867 C-23.108 248.951 -23.103 248.034 -23.098 247.09 C-23.095 246.199 -23.093 245.308 -23.09 244.39 C-23.081 243.251 -23.072 242.111 -23.062 240.938 C-23.042 237.328 -23.021 233.719 -23 230 C-30.59 230 -38.18 230 -46 230 C-46 194.36 -46 158.72 -46 122 C-38.41 122 -30.82 122 -23 122 C-23.04 114.805 -23.04 114.805 -23.09 107.61 C-23.093 106.719 -23.095 105.828 -23.098 104.91 C-23.106 103.535 -23.106 103.535 -23.114 102.133 C-23 100 -23 100 -22 99 C-14.74 99 -7.48 99 0 99 C0 66.33 0 33.66 0 0 Z " fill="#000000" transform="translate(79,19)"/>
<path d="M0 0 C34.98 0 69.96 0 106 0 C106.33 7.26 106.66 14.52 107 22 C117.89 22.495 117.89 22.495 129 23 C129 57.98 129 92.96 129 129 C121.74 129.33 114.48 129.66 107 130 C106.67 137.26 106.34 144.52 106 152 C71.02 152 36.04 152 0 152 C-0.33 144.74 -0.66 137.48 -1 130 C-8.26 129.67 -15.52 129.34 -23 129 C-23 94.02 -23 59.04 -23 23 C-15.74 22.67 -8.48 22.34 -1 22 C-0.67 14.74 -0.34 7.48 0 0 Z " fill="#FEFEFE" transform="translate(80,119)"/>
<path d="M0 0 C34.98 0 69.96 0 106 0 C106 32.67 106 65.34 106 99 C71.02 99 36.04 99 0 99 C0 66.33 0 33.66 0 0 Z " fill="#000000" transform="translate(80,272)"/>
<path d="M0 0 C0.33 0 0.66 0 1 0 C1 32.67 1 65.34 1 99 C35.98 99 70.96 99 107 99 C107 66.33 107 33.66 107 0 C107.33 0 107.66 0 108 0 C108 32.67 108 65.34 108 99 C115.26 99 122.52 99 130 99 C131 100 131 100 131.114 102.133 C131.108 103.049 131.103 103.966 131.098 104.91 C131.095 105.801 131.093 106.692 131.09 107.61 C131.081 108.749 131.072 109.889 131.062 111.062 C131.042 114.672 131.021 118.281 131 122 C138.59 122 146.18 122 154 122 C154 157.64 154 193.28 154 230 C146.41 230 138.82 230 131 230 C131.04 237.195 131.04 237.195 131.09 244.39 C131.094 245.727 131.094 245.727 131.098 247.09 C131.103 248.006 131.108 248.923 131.114 249.867 C131 252 131 252 130 253 C122.74 253 115.48 253 108 253 C108 285.67 108 318.34 108 352 C107.67 352 107.34 352 107 352 C107 319.33 107 286.66 107 253 C72.02 253 37.04 253 1 253 C1 285.67 1 318.34 1 352 C0.67 352 0.34 352 0 352 C0 319.33 0 286.66 0 253 C-7.26 253 -14.52 253 -22 253 C-23 252 -23 252 -23.114 249.867 C-23.108 248.951 -23.103 248.034 -23.098 247.09 C-23.095 246.199 -23.093 245.308 -23.09 244.39 C-23.081 243.251 -23.072 242.111 -23.062 240.938 C-23.042 237.328 -23.021 233.719 -23 230 C-30.59 230 -38.18 230 -46 230 C-46 194.36 -46 158.72 -46 122 C-38.41 122 -30.82 122 -23 122 C-23.04 114.805 -23.04 114.805 -23.09 107.61 C-23.093 106.719 -23.095 105.828 -23.098 104.91 C-23.106 103.535 -23.106 103.535 -23.114 102.133 C-23 100 -23 100 -22 99 C-14.74 99 -7.48 99 0 99 C0 66.33 0 33.66 0 0 Z M1 100 C0.67 107.26 0.34 114.52 0 122 C-10.89 122.495 -10.89 122.495 -22 123 C-22 157.98 -22 192.96 -22 229 C-14.74 229.33 -7.48 229.66 0 230 C0.33 237.26 0.66 244.52 1 252 C35.98 252 70.96 252 107 252 C107.33 244.74 107.66 237.48 108 230 C115.26 229.67 122.52 229.34 130 229 C130 194.02 130 159.04 130 123 C119.11 122.505 119.11 122.505 108 122 C107.67 114.74 107.34 107.48 107 100 C72.02 100 37.04 100 1 100 Z " fill="#000000" transform="translate(79,19)"/>
<path d="M0 0 C7.26 0 14.52 0 22 0 C22 34.98 22 69.96 22 106 C14.74 106 7.48 106 0 106 C0 71.02 0 36.04 0 0 Z " fill="#000000" transform="translate(210,142)"/>
<path d="M0 0 C7.26 0 14.52 0 22 0 C22 34.98 22 69.96 22 106 C14.74 106 7.48 106 0 106 C0 71.02 0 36.04 0 0 Z " fill="#000000" transform="translate(34,142)"/>
<path d="M0 0 C7.59 0 15.18 0 23 0 C23 22.77 23 45.54 23 69 C8.15 69 -6.7 69 -22 69 C-22 61.74 -22 54.48 -22 47 C-14.74 47 -7.48 47 0 47 C0 31.49 0 15.98 0 0 Z " fill="#030303" transform="translate(125,141)"/>
<path d="M0 0 C0.33 0 0.66 0 1 0 C1 32.67 1 65.34 1 99 C35.98 99 70.96 99 107 99 C107 66.33 107 33.66 107 0 C107.33 0 107.66 0 108 0 C108 32.67 108 65.34 108 99 C115.26 99 122.52 99 130 99 C130 99.33 130 99.66 130 100 C122.74 100 115.48 100 108 100 C108 107.26 108 114.52 108 122 C107.67 122 107.34 122 107 122 C107 114.74 107 107.48 107 100 C72.02 100 37.04 100 1 100 C1 107.26 1 114.52 1 122 C0.67 122.33 0.34 122.66 0 123 C-7.26 123 -14.52 123 -22 123 C-22 157.98 -22 192.96 -22 229 C-14.74 229 -7.48 229 0 229 C0 229.33 0 229.66 0 230 C-7.26 230 -14.52 230 -22 230 C-22 237.26 -22 244.52 -22 252 C-22.33 252 -22.66 252 -23 252 C-23 244.74 -23 237.48 -23 230 C-30.59 230 -38.18 230 -46 230 C-46 194.36 -46 158.72 -46 122 C-38.41 122 -30.82 122 -23 122 C-23.04 114.805 -23.04 114.805 -23.09 107.61 C-23.093 106.719 -23.095 105.828 -23.098 104.91 C-23.106 103.535 -23.106 103.535 -23.114 102.133 C-23 100 -23 100 -22 99 C-14.74 99 -7.48 99 0 99 C0 66.33 0 33.66 0 0 Z M-45 123 C-45 157.98 -45 192.96 -45 229 C-37.74 229 -30.48 229 -23 229 C-23 194.02 -23 159.04 -23 123 C-30.26 123 -37.52 123 -45 123 Z " fill="#000000" transform="translate(79,19)"/>
<path d="M0 0 C7.59 0 15.18 0 23 0 C23 7.26 23 14.52 23 22 C30.59 22 38.18 22 46 22 C46 57.64 46 93.28 46 130 C38.41 130 30.82 130 23 130 C23 137.26 23 144.52 23 152 C22.67 152 22.34 152 22 152 C22 144.74 22 137.48 22 130 C14.74 130 7.48 130 0 130 C0 129.67 0 129.34 0 129 C7.26 129 14.52 129 22 129 C22 94.02 22 59.04 22 23 C14.74 23 7.48 23 0 23 C0 15.41 0 7.82 0 0 Z M23 23 C23 57.98 23 92.96 23 129 C30.26 129 37.52 129 45 129 C45 94.02 45 59.04 45 23 C37.74 23 30.48 23 23 23 Z " fill="#000000" transform="translate(187,119)"/>
<path d="M0 0 C7.26 0 14.52 0 22 0 C22 7.26 22 14.52 22 22 C14.74 22 7.48 22 0 22 C0 14.74 0 7.48 0 0 Z " fill="#000000" transform="translate(187,249)"/>
<path d="M0 0 C0.33 0 0.66 0 1 0 C1 7.26 1 14.52 1 22 C35.98 22 70.96 22 107 22 C107 14.74 107 7.48 107 0 C107.33 0 107.66 0 108 0 C108 7.26 108 14.52 108 22 C115.26 22 122.52 22 130 22 C130 22.33 130 22.66 130 23 C122.74 23 115.48 23 108 23 C108 55.67 108 88.34 108 122 C107.67 122 107.34 122 107 122 C107 89.33 107 56.66 107 23 C72.02 23 37.04 23 1 23 C1 55.67 1 88.34 1 122 C0.67 122 0.34 122 0 122 C0 89.33 0 56.66 0 23 C-7.26 23 -14.52 23 -22 23 C-22 22.67 -22 22.34 -22 22 C-14.74 22 -7.48 22 0 22 C0 14.74 0 7.48 0 0 Z " fill="#727272" transform="translate(79,249)"/>
<path d="M0 0 C0.33 0 0.66 0 1 0 C1 32.67 1 65.34 1 99 C35.98 99 70.96 99 107 99 C107 66.33 107 33.66 107 0 C107.33 0 107.66 0 108 0 C108 32.67 108 65.34 108 99 C115.26 99 122.52 99 130 99 C130 99.33 130 99.66 130 100 C122.74 100 115.48 100 108 100 C108 107.26 108 114.52 108 122 C107.67 122 107.34 122 107 122 C107 114.74 107 107.48 107 100 C72.02 100 37.04 100 1 100 C1 107.26 1 114.52 1 122 C0.67 122 0.34 122 0 122 C0 114.74 0 107.48 0 100 C-7.26 100 -14.52 100 -22 100 C-22 99.67 -22 99.34 -22 99 C-14.74 99 -7.48 99 0 99 C0 66.33 0 33.66 0 0 Z " fill="#727272" transform="translate(79,19)"/>
<path d="M0 0 C0.33 0 0.66 0 1 0 C1 7.26 1 14.52 1 22 C8.59 22 16.18 22 24 22 C24 57.64 24 93.28 24 130 C16.41 130 8.82 130 1 130 C1 137.26 1 144.52 1 152 C0.67 152 0.34 152 0 152 C0 144.74 0 137.48 0 130 C-7.26 130 -14.52 130 -22 130 C-22 129.67 -22 129.34 -22 129 C-14.74 129 -7.48 129 0 129 C0 94.02 0 59.04 0 23 C-7.26 23 -14.52 23 -22 23 C-22 22.67 -22 22.34 -22 22 C-14.74 22 -7.48 22 0 22 C0 14.74 0 7.48 0 0 Z M1 23 C1 57.98 1 92.96 1 129 C8.26 129 15.52 129 23 129 C23 94.02 23 59.04 23 23 C15.74 23 8.48 23 1 23 Z " fill="#7C7C7C" transform="translate(209,119)"/>
<path d="M0 0 C0.33 0 0.66 0 1 0 C1 7.26 1 14.52 1 22 C8.26 22 15.52 22 23 22 C23 22.33 23 22.66 23 23 C15.74 23 8.48 23 1 23 C1 57.98 1 92.96 1 129 C8.26 129 15.52 129 23 129 C23 129.33 23 129.66 23 130 C15.74 130 8.48 130 1 130 C1 137.26 1 144.52 1 152 C0.67 152 0.34 152 0 152 C0 144.74 0 137.48 0 130 C-7.59 130 -15.18 130 -23 130 C-23 94.36 -23 58.72 -23 22 C-15.41 22 -7.82 22 0 22 C0 14.74 0 7.48 0 0 Z M-22 23 C-22 57.98 -22 92.96 -22 129 C-14.74 129 -7.48 129 0 129 C0 94.02 0 59.04 0 23 C-7.26 23 -14.52 23 -22 23 Z " fill="#7C7C7C" transform="translate(56,119)"/>
</svg>
