<?xml version="1.0" encoding="UTF-8"?>
<!-- Generator: visioncortex VTracer 0.6.4 -->
<svg version="1.1" xmlns="http://www.w3.org/2000/svg" width="467" height="413">
<path d="M0 0 C154.11 0 308.22 0 467 0 C467 136.29 467 272.58 467 413 C312.89 413 158.78 413 0 413 C0 276.71 0 140.42 0 0 Z " fill="#FEFEFE" transform="translate(0,0)"/>
<path d="M0 0 C70.62 0 141.24 0 214 0 C214 17.82 214 35.64 214 54 C236.77 54 259.54 54 283 54 C283 84.03 283 114.06 283 145 C275.41 145 267.82 145 260 145 C260 122.23 260 99.46 260 76 C258.152 77.848 258.872 80.868 258.871 83.34 C258.869 84.002 258.867 84.663 258.865 85.345 C258.861 87.543 258.864 89.74 258.867 91.938 C258.867 93.458 258.866 94.979 258.864 96.5 C258.863 99.691 258.865 102.882 258.87 106.073 C258.875 110.173 258.872 114.272 258.866 118.371 C258.862 121.513 258.864 124.654 258.866 127.796 C258.867 129.308 258.866 130.82 258.864 132.332 C258.861 134.441 258.865 136.551 258.871 138.66 C258.871 139.863 258.872 141.066 258.873 142.305 C258.693 144.917 258.693 144.917 260 146 C260.087 147.708 260.107 149.419 260.098 151.129 C260.095 152.06 260.093 152.992 260.09 153.951 C260.076 155.739 260.076 155.739 260.062 157.562 C260.042 161.337 260.021 165.111 260 169 C252.41 169 244.82 169 237 169 C237 176.26 237 183.52 237 191 C229.41 191 221.82 191 214 191 C214 198.59 214 206.18 214 214 C198.82 214 183.64 214 168 214 C168 229.18 168 244.36 168 260 C160.41 260 152.82 260 145 260 C145 267.59 145 275.18 145 283 C160.18 283 175.36 283 191 283 C191 290.59 191 298.18 191 306 C198.59 306 206.18 306 214 306 C214 321.18 214 336.36 214 352 C143.38 352 72.76 352 0 352 C0 336.82 0 321.64 0 306 C7.59 306 15.18 306 23 306 C23 298.41 23 290.82 23 283 C38.18 283 53.36 283 69 283 C69 275.41 69 267.82 69 260 C61.41 260 53.82 260 46 260 C46 244.82 46 229.64 46 214 C30.82 214 15.64 214 0 214 C0 206.41 0 198.82 0 191 C-7.59 191 -15.18 191 -23 191 C-23 183.74 -23 176.48 -23 169 C-30.59 169 -38.18 169 -46 169 C-46.031 163.338 -46.031 163.338 -46.062 157.562 C-46.072 156.371 -46.081 155.179 -46.09 153.951 C-46.093 153.02 -46.095 152.089 -46.098 151.129 C-46.106 149.691 -46.106 149.691 -46.114 148.225 C-46 146 -46 146 -45 145 C-44.901 142.889 -44.872 140.774 -44.871 138.66 C-44.869 137.998 -44.867 137.337 -44.865 136.655 C-44.861 134.457 -44.864 132.26 -44.867 130.062 C-44.867 128.542 -44.866 127.021 -44.864 125.5 C-44.863 122.309 -44.865 119.118 -44.87 115.927 C-44.875 111.827 -44.872 107.728 -44.866 103.629 C-44.862 100.487 -44.864 97.346 -44.866 94.204 C-44.867 92.692 -44.866 91.18 -44.864 89.668 C-44.861 87.559 -44.865 85.449 -44.871 83.34 C-44.871 82.137 -44.872 80.934 -44.873 79.695 C-44.693 77.083 -44.693 77.083 -46 76 C-46 98.77 -46 121.54 -46 145 C-53.59 145 -61.18 145 -69 145 C-69 114.97 -69 84.94 -69 54 C-46.23 54 -23.46 54 0 54 C0 36.18 0 18.36 0 0 Z " fill="#FEFEFE" transform="translate(105,35)"/>
<path d="M0 0 C70.62 0 141.24 0 214 0 C214 17.82 214 35.64 214 54 C236.77 54 259.54 54 283 54 C283 84.03 283 114.06 283 145 C275.41 145 267.82 145 260 145 C260 122.23 260 99.46 260 76 C237.23 76 214.46 76 191 76 C191 58.51 191 41.02 191 23 C135.56 23 80.12 23 23 23 C23 40.49 23 57.98 23 76 C0.23 76 -22.54 76 -46 76 C-46 98.77 -46 121.54 -46 145 C-53.59 145 -61.18 145 -69 145 C-69 114.97 -69 84.94 -69 54 C-46.23 54 -23.46 54 0 54 C0 36.18 0 18.36 0 0 Z " fill="#010101" transform="translate(105,35)"/>
<path d="M0 0 C7.59 0 15.18 0 23 0 C23 7.59 23 15.18 23 23 C78.44 23 133.88 23 191 23 C191 15.41 191 7.82 191 0 C198.59 0 206.18 0 214 0 C214 15.18 214 30.36 214 46 C143.38 46 72.76 46 0 46 C0 30.82 0 15.64 0 0 Z " fill="#020202" transform="translate(105,341)"/>
<path d="M0 0 C15.18 0 30.36 0 46 0 C46 7.59 46 15.18 46 23 C38.41 23 30.82 23 23 23 C23 30.59 23 38.18 23 46 C38.18 46 53.36 46 69 46 C69 53.59 69 61.18 69 69 C46.23 69 23.46 69 0 69 C0 46.23 0 23.46 0 0 Z " fill="#020202" transform="translate(227,272)"/>
<path d="M0 0 C15.18 0 30.36 0 46 0 C46 22.77 46 45.54 46 69 C23.23 69 0.46 69 -23 69 C-23 61.41 -23 53.82 -23 46 C-7.82 46 7.36 46 23 46 C23 38.41 23 30.82 23 23 C15.41 23 7.82 23 0 23 C0 15.41 0 7.82 0 0 Z " fill="#020202" transform="translate(151,272)"/>
<path d="M0 0 C7.59 0 15.18 0 23 0 C23 7.59 23 15.18 23 23 C15.41 23 7.82 23 0 23 C0 30.26 0 37.52 0 45 C-7.59 45 -15.18 45 -23 45 C-23 52.59 -23 60.18 -23 68 C-30.59 68 -38.18 68 -46 68 C-46 52.82 -46 37.64 -46 22 C-30.82 22 -15.64 22 0 22 C0 14.74 0 7.48 0 0 Z " fill="#000000" transform="translate(342,181)"/>
<path d="M0 0 C7.59 0 15.18 0 23 0 C23 7.26 23 14.52 23 22 C38.18 22 53.36 22 69 22 C69 37.18 69 52.36 69 68 C61.41 68 53.82 68 46 68 C46 60.41 46 52.82 46 45 C38.41 45 30.82 45 23 45 C23 37.74 23 30.48 23 23 C15.41 23 7.82 23 0 23 C0 15.41 0 7.82 0 0 Z " fill="#000000" transform="translate(59,181)"/>
<path d="M0 0 C15.18 0 30.36 0 46 0 C46 7.59 46 15.18 46 23 C38.41 23 30.82 23 23 23 C23 30.92 23 38.84 23 47 C15.41 47 7.82 47 0 47 C0 31.49 0 15.98 0 0 Z " fill="#080808" transform="translate(296,134)"/>
<path d="M0 0 C15.18 0 30.36 0 46 0 C46 15.51 46 31.02 46 47 C38.41 47 30.82 47 23 47 C23 39.08 23 31.16 23 23 C15.41 23 7.82 23 0 23 C0 15.41 0 7.82 0 0 Z " fill="#080808" transform="translate(82,134)"/>
<path d="M0 0 C7.59 0 15.18 0 23 0 C23 7.59 23 15.18 23 23 C0.56 23 -21.88 23 -45 23 C-45 37.85 -45 52.7 -45 68 C-45.33 68 -45.66 68 -46 68 C-46 52.82 -46 37.64 -46 22 C-30.82 22 -15.64 22 0 22 C0 14.74 0 7.48 0 0 Z " fill="#141414" transform="translate(342,181)"/>
<path d="M0 0 C7.59 0 15.18 0 23 0 C23 7.26 23 14.52 23 22 C38.18 22 53.36 22 69 22 C69 37.18 69 52.36 69 68 C68.67 68 68.34 68 68 68 C68 53.15 68 38.3 68 23 C45.56 23 23.12 23 0 23 C0 15.41 0 7.82 0 0 Z " fill="#141414" transform="translate(59,181)"/>
<path d="M0 0 C7.59 0 15.18 0 23 0 C23 7.59 23 15.18 23 23 C15.41 23 7.82 23 0 23 C0 15.41 0 7.82 0 0 Z " fill="#050505" transform="translate(273,249)"/>
<path d="M0 0 C7.59 0 15.18 0 23 0 C23 7.59 23 15.18 23 23 C15.41 23 7.82 23 0 23 C0 15.41 0 7.82 0 0 Z " fill="#050505" transform="translate(128,249)"/>
</svg>
