<?xml version="1.0" encoding="UTF-8"?>
<!-- Generator: visioncortex VTracer 0.6.4 -->
<svg version="1.1" xmlns="http://www.w3.org/2000/svg" width="462" height="406">
<path d="M0 0 C152.46 0 304.92 0 462 0 C462 133.98 462 267.96 462 406 C309.54 406 157.08 406 0 406 C0 272.02 0 138.04 0 0 Z " fill="#FEFEFE" transform="translate(0,0)"/>
<path d="M0 0 C70.62 0 141.24 0 214 0 C214 17.82 214 35.64 214 54 C236.77 54 259.54 54 283 54 C283 84.03 283 114.06 283 145 C275.41 145 267.82 145 260 145 C260 152.59 260 160.18 260 168 C252.41 168 244.82 168 237 168 C237 175.59 237 183.18 237 191 C229.41 191 221.82 191 214 191 C214 198.59 214 206.18 214 214 C206.41 214 198.82 214 191 214 C191 221.59 191 229.18 191 237 C183.41 237 175.82 237 168 237 C168 244.59 168 252.18 168 260 C160.41 260 152.82 260 145 260 C145 267.59 145 275.18 145 283 C160.18 283 175.36 283 191 283 C191 290.59 191 298.18 191 306 C198.59 306 206.18 306 214 306 C214 321.18 214 336.36 214 352 C143.38 352 72.76 352 0 352 C0 336.82 0 321.64 0 306 C7.59 306 15.18 306 23 306 C23 298.41 23 290.82 23 283 C38.18 283 53.36 283 69 283 C69 275.41 69 267.82 69 260 C61.41 260 53.82 260 46 260 C46 252.41 46 244.82 46 237 C38.41 237 30.82 237 23 237 C23 229.41 23 221.82 23 214 C15.41 214 7.82 214 0 214 C0 206.41 0 198.82 0 191 C-7.59 191 -15.18 191 -23 191 C-23 183.41 -23 175.82 -23 168 C-30.59 168 -38.18 168 -46 168 C-46 160.41 -46 152.82 -46 145 C-53.59 145 -61.18 145 -69 145 C-69 114.97 -69 84.94 -69 54 C-46.23 54 -23.46 54 0 54 C0 36.18 0 18.36 0 0 Z " fill="#000000" transform="translate(101,30)"/>
<path d="M0 0 C15.18 0 30.36 0 46 0 C46 12.54 46 25.08 46 38 C38.41 38 30.82 38 23 38 C23 45.59 23 53.18 23 61 C15.41 61 7.82 61 0 61 C0 40.87 0 20.74 0 0 Z " fill="#FCFCFC" transform="translate(315,114)"/>
<path d="M0 0 C15.18 0 30.36 0 46 0 C46 20.13 46 40.26 46 61 C38.41 61 30.82 61 23 61 C23 53.41 23 45.82 23 38 C15.41 38 7.82 38 0 38 C0 25.46 0 12.92 0 0 Z " fill="#FCFCFC" transform="translate(55,114)"/>
</svg>
