<?xml version="1.0" encoding="UTF-8"?>
<!-- Generator: visioncortex VTracer 0.6.4 -->
<svg version="1.1" xmlns="http://www.w3.org/2000/svg" width="501" height="434">
<path d="M0 0 C165.33 0 330.66 0 501 0 C501 143.22 501 286.44 501 434 C335.67 434 170.34 434 0 434 C0 290.78 0 147.56 0 0 Z " fill="#FEFEFE" transform="translate(0,0)"/>
<path d="M0 0 C11.22 0 22.44 0 34 0 C34 8.25 34 16.5 34 25 C42.25 25 50.5 25 59 25 C59 33.25 59 41.5 59 50 C67.25 50 75.5 50 84 50 C84 58.25 84 66.5 84 75 C92.25 75 100.5 75 109 75 C109 83.58 109 92.16 109 101 C117.25 101 125.5 101 134 101 C134 109.25 134 117.5 134 126 C145.22 126 156.44 126 168 126 C168 117.75 168 109.5 168 101 C176.25 101 184.5 101 193 101 C193 92.42 193 83.84 193 75 C201.25 75 209.5 75 218 75 C218 66.75 218 58.5 218 50 C226.25 50 234.5 50 243 50 C243 41.75 243 33.5 243 25 C251.25 25 259.5 25 268 25 C268 16.75 268 8.5 268 0 C279.22 0 290.44 0 302 0 C302 8.25 302 16.5 302 25 C310.25 25 318.5 25 327 25 C327 36.22 327 47.44 327 59 C318.75 59 310.5 59 302 59 C302 67.25 302 75.5 302 84 C293.75 84 285.5 84 277 84 C277 92.25 277 100.5 277 109 C268.75 109 260.5 109 252 109 C252 117.25 252 125.5 252 134 C243.42 134 234.84 134 226 134 C226 142.25 226 150.5 226 159 C217.75 159 209.5 159 201 159 C201 170.22 201 181.44 201 193 C209.25 193 217.5 193 226 193 C226 201.25 226 209.5 226 218 C234.25 218 242.5 218 251 218 C251 226.25 251 234.5 251 243 C259.58 243 268.16 243 277 243 C277 251.25 277 259.5 277 268 C285.25 268 293.5 268 302 268 C302 276.25 302 284.5 302 293 C310.25 293 318.5 293 327 293 C327 304.22 327 315.44 327 327 C318.75 327 310.5 327 302 327 C302 335.25 302 343.5 302 352 C290.78 352 279.56 352 268 352 C268 343.75 268 335.5 268 327 C259.75 327 251.5 327 243 327 C243 318.75 243 310.5 243 302 C234.75 302 226.5 302 218 302 C218 293.42 218 284.84 218 276 C209.75 276 201.5 276 193 276 C193 267.75 193 259.5 193 251 C184.75 251 176.5 251 168 251 C168 242.75 168 234.5 168 226 C156.78 226 145.56 226 134 226 C134 234.25 134 242.5 134 251 C125.75 251 117.5 251 109 251 C109 259.25 109 267.5 109 276 C100.75 276 92.5 276 84 276 C84 284.58 84 293.16 84 302 C75.75 302 67.5 302 59 302 C59 310.25 59 318.5 59 327 C50.75 327 42.5 327 34 327 C34 335.25 34 343.5 34 352 C22.78 352 11.56 352 0 352 C0 343.75 0 335.5 0 327 C-8.25 327 -16.5 327 -25 327 C-25 315.78 -25 304.56 -25 293 C-16.75 293 -8.5 293 0 293 C0 284.75 0 276.5 0 268 C8.25 268 16.5 268 25 268 C25 259.75 25 251.5 25 243 C33.58 243 42.16 243 51 243 C51 234.75 51 226.5 51 218 C59.25 218 67.5 218 76 218 C76 209.75 76 201.5 76 193 C84.25 193 92.5 193 101 193 C101 181.78 101 170.56 101 159 C92.75 159 84.5 159 76 159 C76 150.75 76 142.5 76 134 C67.42 134 58.84 134 50 134 C50 125.75 50 117.5 50 109 C41.75 109 33.5 109 25 109 C25 100.75 25 92.5 25 84 C16.75 84 8.5 84 0 84 C0 75.75 0 67.5 0 59 C-8.25 59 -16.5 59 -25 59 C-25 47.78 -25 36.56 -25 25 C-16.75 25 -8.5 25 0 25 C0 16.75 0 8.5 0 0 Z " fill="#010101" transform="translate(62,43)"/>
</svg>
